<svg xmlns="http://www.w3.org/2000/svg" width="423" height="411" viewBox="0 0 423 411" role="img" aria-label="Handmade logo">
  <path d="M 172.87 405.44 C134.58,411.06 93.68,400.65 62.00,377.24 C45.00,364.68 28.60,345.09 18.88,325.76 C0.09,288.40 -0.38,240.89 17.66,202.06 C23.46,189.56 91.57,70.94 95.80,65.95 C97.83,63.56 102.06,60.60 106.75,58.28 C113.86,54.77 115.00,54.51 122.95,54.57 C138.69,54.71 149.66,61.61 156.12,75.43 C158.86,81.30 159.36,83.52 159.38,89.93 C159.41,99.91 158.35,102.75 147.87,120.66 C142.99,128.99 139.00,136.19 139.00,136.64 C139.00,137.09 167.91,108.63 203.25,73.39 C261.66,15.14 270.01,6.27 279.58,4.68 C281.90,4.29 284.30,4.33 287.50,4.20 C299.03,3.73 305.65,6.00 313.42,13.10 C318.68,17.91 324.00,26.50 324.00,30.20 C324.00,31.19 324.31,32.00 324.68,32.00 C325.05,32.00 328.83,28.62 333.07,24.49 C343.94,13.91 349.41,11.50 362.50,11.50 C371.18,11.50 373.22,11.84 378.00,14.09 C385.31,17.54 391.63,24.05 395.38,32.00 C398.00,37.55 398.45,39.67 398.47,46.50 C398.48,55.17 396.38,62.98 392.79,67.54 C391.06,69.74 390.94,70.35 392.10,71.08 C392.87,71.57 394.17,71.98 395.00,71.99 C397.55,72.04 406.31,77.61 410.18,81.66 C412.21,83.77 415.13,87.97 416.68,91.00 C419.22,95.95 419.50,97.50 419.50,106.50 C419.50,121.34 417.81,124.37 398.87,143.57 C383.93,158.70 383.78,158.91 386.62,159.58 C392.14,160.88 401.19,166.40 404.56,170.51 C414.08,182.12 416.11,197.61 409.86,210.93 C408.24,214.39 389.54,233.73 333.11,290.33 C292.07,331.48 254.90,368.08 250.50,371.64 C227.52,390.28 202.75,401.06 172.87,405.44 ZM 132.50 389.53 C166.81,395.00 206.63,384.82 235.50,363.20 C238.80,360.73 276.05,324.24 318.28,282.10 C392.00,208.56 395.13,205.29 396.61,200.23 C399.01,192.03 396.20,183.54 389.35,178.32 C386.29,175.98 384.50,175.46 378.49,175.16 C373.14,174.89 370.42,175.23 367.90,176.50 C366.03,177.44 350.31,192.33 332.96,209.60 C304.51,237.93 301.11,241.00 298.17,241.00 C293.79,241.00 290.00,237.20 290.00,232.82 C290.00,229.82 294.77,224.76 345.46,174.02 C383.83,135.61 401.40,117.35 402.46,114.78 C408.97,99.06 395.70,83.35 379.01,86.99 L 373.50 88.19 L 318.00 143.49 C287.48,173.90 261.50,199.29 260.27,199.91 C255.39,202.40 249.60,198.33 249.60,192.42 C249.60,189.14 253.54,184.99 315.21,123.22 C376.06,62.27 382.34,56.16 382.93,49.54 C383.00,48.78 382.99,48.01 382.98,47.15 C382.98,46.94 382.97,46.72 382.97,46.50 C382.95,43.13 379.77,35.51 377.20,32.66 C372.33,27.28 360.44,25.23 353.70,28.60 C351.94,29.48 321.24,59.41 285.47,95.10 C226.03,154.42 220.15,160.00 217.17,160.00 C212.79,160.00 209.00,156.20 209.00,151.82 C209.00,148.84 213.28,144.25 257.40,100.02 C284.02,73.34 306.57,49.97 307.51,48.09 C308.74,45.63 309.10,42.97 308.82,38.46 C308.31,30.57 304.96,25.13 298.75,22.12 C293.40,19.53 284.34,19.28 279.70,21.60 C277.94,22.48 237.57,62.08 189.99,109.60 C110.47,189.01 103.21,196.00 100.19,196.00 C96.04,196.00 92.00,192.20 92.00,188.29 C92.00,186.56 95.86,178.80 102.10,167.99 C107.66,158.37 115.84,144.20 120.28,136.50 C124.72,128.80 131.61,116.88 135.58,110.00 C139.56,103.12 143.12,96.02 143.49,94.21 C145.90,82.62 135.20,70.03 122.93,70.01 C118.37,70.00 111.40,72.99 108.30,76.29 C106.65,78.06 97.84,92.55 88.73,108.50 C79.62,124.45 68.93,143.12 64.96,150.00 C31.12,208.69 28.88,213.15 24.42,230.70 C16.61,261.51 20.23,293.11 34.82,321.48 C40.93,333.35 48.93,343.80 59.91,354.25 C80.05,373.42 103.77,384.94 132.50,389.53 ZM 184.80 326.60 C183.31,327.37 180.39,328.00 178.30,328.00 C174.66,328.01 173.43,326.93 149.79,303.20 C127.78,281.10 124.72,277.63 121.79,271.44 C118.79,265.11 118.50,263.67 118.50,255.00 C118.50,246.79 118.86,244.73 121.18,239.78 C124.73,232.20 132.08,224.52 139.48,220.65 C145.18,217.67 146.10,217.50 156.57,217.50 C166.90,217.50 168.03,217.70 173.49,220.50 L 179.35 223.50 L 185.25 220.57 C189.94,218.24 192.86,217.54 199.42,217.20 C213.54,216.46 224.28,221.16 232.08,231.48 C238.03,239.37 240.23,246.68 239.77,257.08 C239.17,270.97 237.54,273.43 210.55,301.35 C197.87,314.47 186.28,325.83 184.80,326.60 ZM 158.50 289.34 C169.50,300.68 178.79,309.96 179.14,309.98 C179.49,309.99 188.90,300.66 200.05,289.25 C212.49,276.52 221.02,266.95 222.14,264.50 C223.15,262.28 223.97,258.14 223.98,255.22 C224.03,242.20 214.92,233.07 201.84,233.02 C197.11,233.00 194.89,233.68 188.46,237.09 C179.97,241.59 176.51,241.76 171.66,237.95 C161.93,230.30 146.61,231.59 139.10,240.70 C133.64,247.32 132.50,259.43 136.71,265.96 C137.70,267.48 147.50,278.00 158.50,289.34 Z" fill="hsl(20.8 29.7% 32.4%)"/>
</svg>
