<?xml version="1.0" encoding="UTF-8"?>
<svg version="1.1" xmlns="http://www.w3.org/2000/svg" width="934" height="1381">
<path d="M0 0 C-3.3266139 6.30569886 -7.03412951 12.12995358 -11.25 17.875 C-11.81992676 18.6572998 -12.38985352 19.43959961 -12.97705078 20.24560547 C-17.45044337 26.34408294 -22.09770598 32.23883951 -27 38 C-27.61359375 38.75925781 -28.2271875 39.51851562 -28.859375 40.30078125 C-29.73335937 41.35845703 -29.73335937 41.35845703 -30.625 42.4375 C-31.11226562 43.03433594 -31.59953125 43.63117187 -32.1015625 44.24609375 C-36.8400011 48.62378702 -42.41722325 50.68169263 -48.56640625 52.26171875 C-50.02488026 52.65678898 -51.48320812 53.05239904 -52.94140625 53.44848633 C-53.69566895 53.65003326 -54.44993164 53.8515802 -55.22705078 54.05923462 C-69.97447957 58.0264795 -84.11199993 62.58554586 -98 69 C-99.6715918 69.76497803 -99.6715918 69.76497803 -101.37695312 70.54541016 C-105.01100027 72.21929516 -108.63245365 73.91576315 -112.25 75.625 C-113.36955078 76.15134033 -114.48910156 76.67768066 -115.64257812 77.2199707 C-121.88162465 80.23397792 -127.51738945 83.5335386 -133.06542969 87.69287109 C-135 89 -135 89 -137 89 C-137 89.66 -137 90.32 -137 91 C-136.24203125 90.76925781 -135.4840625 90.53851563 -134.703125 90.30078125 C-125.81047562 87.75571304 -116.85371736 85.94516694 -107.75 84.3125 C-106.56696289 84.09827393 -105.38392578 83.88404785 -104.16503906 83.66333008 C-93.15226118 81.73216851 -82.48781021 80.839669 -71.3125 80.9375 C-70.31283203 80.94201172 -69.31316406 80.94652344 -68.28320312 80.95117188 C-65.85540203 80.96278815 -63.427736 80.97911832 -61 81 C-61 85.07256484 -63.04279853 87.22738545 -65.375 90.375 C-66.05175781 91.29514893 -66.05175781 91.29514893 -66.7421875 92.23388672 C-67.68829077 93.51671077 -68.63723867 94.79744121 -69.58886719 96.07617188 C-70.94081963 97.91931811 -72.24390046 99.78855702 -73.5390625 101.671875 C-74.35849041 102.82354658 -75.17876923 103.97461331 -76 105.125 C-76.721875 106.15882812 -77.44375 107.19265625 -78.1875 108.2578125 C-82.05878759 112.0323179 -85.9258037 113.30276608 -91 115 C-92.27113914 115.4339888 -93.5421253 115.86842585 -94.81298828 116.30322266 C-97.69271019 117.28230139 -100.575992 118.25005149 -103.46166992 119.21142578 C-133.37317838 129.1908686 -161.42150549 142.52863127 -184.46875 164.70703125 C-186 166 -186 166 -188 166 C-188 166.66 -188 167.32 -188 168 C-187.45923828 167.75878418 -186.91847656 167.51756836 -186.36132812 167.26904297 C-164.03045479 157.42792255 -137.79391857 148.5254718 -113 150 C-112.67 150.66 -112.34 151.32 -112 152 C-118.87074571 168.2694073 -133.96188764 178.2021851 -148.46606445 186.88061523 C-162.23548274 195.1363787 -174.76295242 204.56564461 -186.4375 215.58984375 C-188.59472292 217.61881714 -190.79251215 219.53821581 -193.0625 221.4375 C-222.2646588 246.89888639 -241.46309859 284.00175897 -254 320 C-253.34 320 -252.68 320 -252 320 C-251.72019287 319.41009277 -251.44038574 318.82018555 -251.15209961 318.21240234 C-250.08787211 316.16874276 -248.950238 314.43769415 -247.56640625 312.6015625 C-246.84880127 311.64576294 -246.84880127 311.64576294 -246.11669922 310.6706543 C-245.60381348 309.99558838 -245.09092773 309.32052246 -244.5625 308.625 C-244.02898926 307.91964111 -243.49547852 307.21428223 -242.94580078 306.48754883 C-241.30239337 304.32101838 -239.65243414 302.15965136 -238 300 C-237.51225098 299.36078613 -237.02450195 298.72157227 -236.52197266 298.06298828 C-231.04076424 290.9022692 -225.38519858 284.04419847 -219.25 277.4296875 C-217.37207106 275.40178506 -215.54976485 273.34672605 -213.75 271.25 C-200.6663079 256.26210858 -186.85032469 242.51398306 -170.9765625 230.49658203 C-169.59799216 229.45277816 -168.22328008 228.40386746 -166.8515625 227.35107422 C-129.72205963 198.90171681 -86.3816289 178.15624859 -40.30273438 169.43603516 C-38.40087232 169.07590733 -36.50427345 168.68810311 -34.609375 168.29296875 C-5.72471911 162.6854727 27.95373918 164.68121972 57 168 C58.05123047 168.11827148 59.10246094 168.23654297 60.18554688 168.35839844 C92.1599688 172.15017509 123.8728615 182.77604333 152.21875 198.04833984 C154.10200629 199.05449843 156.00161485 200.02325983 157.90625 200.98828125 C173.64016659 209.0368298 173.64016659 209.0368298 180 215 C180 215.99 180 216.98 180 218 C172.93776968 220.38005698 165.87081615 222.74548194 158.79754448 225.09253788 C155.51298697 226.18292552 152.23024003 227.27821303 148.95117188 228.38500977 C145.17808486 229.65830994 141.3979251 230.90974616 137.6171875 232.16015625 C136.44509735 232.55904556 135.2730072 232.95793488 134.06539917 233.36891174 C132.964711 233.72936081 131.86402283 234.08980988 130.72998047 234.46118164 C129.76623505 234.78317032 128.80248962 235.105159 127.80953979 235.43690491 C123.10220843 236.3803602 119.12195629 235.29575449 114.8828125 233.21484375 C114.12419922 232.85310059 113.36558594 232.49135742 112.58398438 232.11865234 C111.77251953 231.72887207 110.96105469 231.3390918 110.125 230.9375 C78.86031077 216.47960615 44.37839788 208.41014645 10 207 C10 207.66 10 208.32 10 209 C10.5986084 209.16798096 11.1972168 209.33596191 11.81396484 209.5090332 C18.25330002 211.37101715 24.43242842 213.62816154 30.625 216.1875 C31.5835791 216.58332275 32.5421582 216.97914551 33.52978516 217.38696289 C51.19544729 224.77396559 69.27167741 233.34794587 83 247 C82.67 247.99 82.34 248.98 82 250 C79.70751947 251.06533143 77.53157904 251.9258811 75.1484375 252.734375 C74.45618073 252.97665833 73.76392395 253.21894165 73.0506897 253.46856689 C71.58158913 253.97866982 70.11034622 254.48263746 68.63720703 254.98095703 C66.3978349 255.74223722 64.16987927 256.53168624 61.94140625 257.32421875 C60.51101877 257.81685588 59.08004532 258.30779552 57.6484375 258.796875 C56.98774261 259.03323669 56.32704773 259.26959839 55.64633179 259.51312256 C49.08074907 261.684313 43.92389759 260.66707399 37.734375 257.92578125 C36.29106812 257.29965942 36.29106812 257.29965942 34.81860352 256.66088867 C33.80596436 256.21592041 32.7933252 255.77095215 31.75 255.3125 C9.84054579 245.98477821 -13.96336386 238.331013 -38 238 C-38.93457031 237.98630371 -39.86914062 237.97260742 -40.83203125 237.95849609 C-53.25032522 237.80270432 -65.63175729 237.74068802 -78 239 C-78 239.66 -78 240.32 -78 241 C-76.83210937 241.13535156 -75.66421875 241.27070313 -74.4609375 241.41015625 C-47.26537175 244.84984091 -18.40329926 256.78116599 3 274 C2.67 274.99 2.34 275.98 2 277 C-0.38916016 278.16674805 -0.38916016 278.16674805 -3.5390625 279.26171875 C-4.67730469 279.65810547 -5.81554687 280.05449219 -6.98828125 280.46289062 C-8.18839844 280.86701172 -9.38851562 281.27113281 -10.625 281.6875 C-12.39037109 282.31108398 -12.39037109 282.31108398 -14.19140625 282.94726562 C-22.28840254 285.72064624 -28.45917951 286.96194555 -36.859375 284.57421875 C-38.51223511 284.12284546 -38.51223511 284.12284546 -40.19848633 283.66235352 C-41.37048584 283.34065186 -42.54248535 283.0189502 -43.75 282.6875 C-77.22190155 273.95522323 -110.51833281 273.97554839 -144.09619141 281.57470703 C-146.39035291 282.08720118 -148.69220501 282.55318141 -151 283 C-151 283.66 -151 284.32 -151 285 C-150.27039063 284.96519531 -149.54078125 284.93039062 -148.7890625 284.89453125 C-129.18225223 284.38620654 -105.86706043 288.72518691 -89 299 C-89.33 299.99 -89.66 300.98 -90 302 C-92.74977788 302.41816899 -95.49983539 302.834387 -98.25 303.25 C-99.14041992 303.38567383 -100.03083984 303.52134766 -100.94824219 303.66113281 C-106.1055483 304.44009177 -111.2648299 305.17390783 -116.4375 305.84375 C-159.91152352 311.55013029 -199.53897529 323.66669063 -236 349 C-236.99 349.66 -237.98 350.32 -239 351 C-232.03195751 349.64767306 -225.77367613 347.486303 -219.1875 344.875 C-177.68392656 328.99464541 -134.07094341 321.79906229 -89.75 321.6875 C-88.79441193 321.68364288 -87.83882385 321.67978577 -86.85427856 321.67581177 C-74.7484957 321.65169952 -62.98252193 322.27623982 -51 324 C-49.95553711 324.14058838 -48.91107422 324.28117676 -47.83496094 324.42602539 C-4.51391712 330.44447705 37.29518761 346.77001716 73 372 C73.56799316 372.4007373 74.13598633 372.80147461 74.72119141 373.21435547 C85.87216702 381.15964103 96.53327178 390.09746332 106 400 C108.5067182 402.52334651 111.02853235 405.0277542 113.578125 407.5078125 C119.86791001 413.66885922 125.59413729 420.03303832 131 427 C131.44956055 427.57314941 131.89912109 428.14629883 132.36230469 428.73681641 C152.66118042 454.70480943 168.62590355 483.8353844 180.1875 514.6875 C180.47906982 515.45892334 180.77063965 516.23034668 181.07104492 517.02514648 C182.42776163 520.78535884 183.35611351 523.98778776 183 528 C173.44484105 526.20321468 164.51494981 522.72489408 155.45727539 519.27612305 C154.11869796 518.76729534 152.78007533 518.25858653 151.44140625 517.75 C150.78922623 517.50115555 150.1370462 517.2523111 149.46510315 516.9959259 C145.91561995 515.6586953 142.38873813 514.50170208 138.71484375 513.5625 C131.59897336 511.6018697 127.53194023 509.31822228 123.515625 502.9375 C120.59602277 497.78337022 118.04240851 492.47122833 115.51757812 487.11523438 C113.24148007 482.44293528 110.63479457 478.00162391 107.9375 473.5625 C107.44596436 472.75063232 106.95442871 471.93876465 106.44799805 471.10229492 C88.63434141 441.30386526 88.63434141 441.30386526 63 419 C64.16396571 421.50128801 65.3307797 424.00116773 66.5 426.5 C67.04140625 427.6597937 67.04140625 427.6597937 67.59375 428.84301758 C69.3440128 432.56954282 71.11705322 436.27254988 73.03125 439.91796875 C92.53356832 477.10978173 92.53356832 477.10978173 89 493 C88.41371826 492.82404297 87.82743652 492.64808594 87.22338867 492.46679688 C86.4007251 492.21994141 85.57806152 491.97308594 84.73046875 491.71875 C83.81442871 491.4403125 82.89838867 491.161875 81.95458984 490.875 C80.03312356 490.30595892 78.10374612 489.76276995 76.16650391 489.25 C65.77429339 486.41688758 56.61034179 483.28498395 50.52734375 473.93359375 C47.25555117 468.18256225 44.42993428 462.23849002 41.61865234 456.25 C39.33630592 451.6674064 36.58526909 447.55837512 33.5625 443.4375 C33.06999756 442.76251465 32.57749512 442.0875293 32.07006836 441.39208984 C30.72983861 439.58146349 29.370823 437.787528 28 436 C26.90945313 434.56527344 26.90945313 434.56527344 25.796875 433.1015625 C21.84070409 428.03953279 17.6146182 423.24154449 13.27734375 418.50390625 C11.76794098 416.84433991 10.28042931 415.16457714 8.81640625 413.46484375 C-0.51392259 402.70419712 -11.80225742 394.27518146 -24 387 C-23.56244385 387.64324219 -23.1248877 388.28648437 -22.67407227 388.94921875 C-14.2535155 401.36148905 -5.97706575 413.71260638 1 427 C1.31759277 427.58894043 1.63518555 428.17788086 1.96240234 428.78466797 C7.82994007 439.67724055 13.23385385 451.48627961 14 464 C8.1014929 463.46733269 3.42262096 461.71068 -1.9375 459.25 C-3.07735352 458.74726562 -3.07735352 458.74726562 -4.24023438 458.234375 C-11.57723001 454.9261481 -18.30263357 451.58859921 -23.25 445.0625 C-47.47156159 414.13342905 -73.52566828 391.11114824 -109 374 C-108.36384766 374.61875 -108.36384766 374.61875 -107.71484375 375.25 C-103.24297403 379.65307172 -99.0758895 384.23104427 -95 389 C-94.26007812 389.82757813 -93.52015625 390.65515625 -92.7578125 391.5078125 C-87.42876781 397.62003948 -82.89794869 403.96854789 -78.5625 410.8125 C-78.05436768 411.61276611 -77.54623535 412.41303223 -77.02270508 413.23754883 C-70 424.54333875 -70 424.54333875 -70 431 C-86.68274929 429.86253982 -103.76666331 417.66641474 -117.6875 409.125 C-149.25052508 389.86915861 -179.26254806 380.12361601 -216.0625 378.3125 C-217.02091797 378.26399902 -217.97933594 378.21549805 -218.96679688 378.16552734 C-219.85560547 378.12766113 -220.74441406 378.08979492 -221.66015625 378.05078125 C-222.45043213 378.01637939 -223.24070801 377.98197754 -224.05493164 377.9465332 C-226.08247408 377.86520885 -226.08247408 377.86520885 -228 379 C-226.95360352 379.34667725 -225.90720703 379.69335449 -224.82910156 380.05053711 C-184.79538948 393.35210559 -184.79538948 393.35210559 -170 401 C-169.38479492 401.31710937 -168.76958984 401.63421875 -168.13574219 401.9609375 C-152.82571678 410.00223137 -138.44098332 420.15772153 -125 431 C-124.00355469 431.79148437 -123.00710938 432.58296875 -121.98046875 433.3984375 C-108.03902766 444.68899453 -94.80932655 457.66853334 -84 472 C-83.07661945 473.17274085 -82.15205137 474.34454725 -81.2265625 475.515625 C-69.56523109 490.45403897 -59.90547741 506.78453958 -52 524 C-51.6704834 524.71414063 -51.3409668 525.42828125 -51.00146484 526.1640625 C-35.64394967 559.89037033 -30.86820845 593.52900661 -30.75 630.25 C-30.74464233 631.18222382 -30.73928467 632.11444763 -30.73376465 633.07492065 C-30.65778871 650.52962465 -31.50649185 667.4736032 -36.1875 684.375 C-36.64008179 686.06749878 -36.64008179 686.06749878 -37.10180664 687.79418945 C-39.97583116 698.33920888 -43.36622986 708.69511385 -47 719 C-49.74394843 716.39450093 -51.89851898 713.85374388 -53.890625 710.640625 C-54.4280835 709.7837207 -54.96554199 708.92681641 -55.51928711 708.04394531 C-56.09042236 707.12194336 -56.66155762 706.19994141 -57.25 705.25 C-61.19336566 698.91041632 -65.19547725 692.65645244 -69.51171875 686.5625 C-70.24938477 685.50772461 -70.98705078 684.45294922 -71.74707031 683.36621094 C-73.17955409 681.32829041 -74.63265931 679.3046709 -76.10839844 677.29785156 C-79.27945632 672.74521892 -81.54166709 669.45991364 -81.03515625 663.78515625 C-80.72948572 662.18209118 -80.38628862 660.58557031 -80 659 C-79.75742262 657.66069508 -79.5176447 656.32087876 -79.28125 654.98046875 C-78.76196024 652.45931699 -78.24113592 649.9384808 -77.71875 647.41796875 C-75.70557846 636.20342681 -75.79688429 624.73219617 -75.8125 613.375 C-75.81277191 612.62909607 -75.81304382 611.88319214 -75.81332397 611.11468506 C-75.83962037 595.40290474 -76.46023967 580.16279952 -81 565 C-81.66 565 -82.32 565 -83 565 C-83.08636719 566.28648437 -83.17273438 567.57296875 -83.26171875 568.8984375 C-84.68399638 587.96411382 -87.64617379 606.71712634 -93.5625 624.9375 C-93.84311279 625.81349854 -94.12372559 626.68949707 -94.4128418 627.59204102 C-96.92621228 634.86950708 -96.92621228 634.86950708 -101 637 C-106.24310173 631.02076078 -110.70017635 624.65359895 -114.9375 617.9375 C-115.4219458 617.1945166 -115.9063916 616.4515332 -116.40551758 615.68603516 C-121.11148326 608.06637405 -121.51805518 601.7511416 -120 593 C-119.00768726 580.82273003 -118.76936327 568.63629851 -118.96289062 556.42333984 C-118.98597359 554.91596155 -119.00165128 553.40842805 -119.00585938 551.90087891 C-119.10012532 533.13724287 -124.57752136 510.84495729 -133 494 C-135.0852598 496.0852598 -134.18593648 500.62256446 -134.2109375 503.50390625 C-134.23906973 505.29623209 -134.26773435 507.08854964 -134.296875 508.88085938 C-134.3376572 511.69750152 -134.37453805 514.51399934 -134.40136719 517.33081055 C-134.56432248 533.08268762 -136.10759192 547.47350648 -141.1875 562.5 C-141.46013672 563.33402344 -141.73277344 564.16804687 -142.01367188 565.02734375 C-142.66682672 567.02118485 -143.3319851 569.01108832 -144 571 C-155.46243685 562.04445581 -163.1683252 548.28991868 -165.68359375 533.96875 C-166.00949067 530.91095176 -166.13325881 527.87085391 -166.23168945 524.79833984 C-167.25392673 494.93418749 -176.33164785 463.00252823 -193 438 C-193.16780222 443.0340667 -192.97373451 447.59421696 -192.0390625 452.546875 C-190.94885373 458.86717864 -190.49657679 465.09695765 -190.25 471.5 C-190.19457031 472.53769531 -190.13914062 473.57539063 -190.08203125 474.64453125 C-189.77977858 481.99934631 -190.52835186 488.79311041 -192 496 C-192.99 496 -193.98 496 -195 496 C-196.76953125 494.11328125 -196.76953125 494.11328125 -198.8125 491.3125 C-199.19647949 490.7870459 -199.58045898 490.2615918 -199.97607422 489.72021484 C-204.93746106 482.83916334 -209.5679482 475.72442039 -214.25 468.65234375 C-231.7731836 441.74601896 -231.7731836 441.74601896 -252.16015625 417.015625 C-253.91730393 415.09059696 -255.45228354 413.09417796 -257 411 C-257.18542017 437.65771514 -256.76464933 464.24700079 -255.78963852 490.8867836 C-255.68512801 493.7525418 -255.58273626 496.61836923 -255.48086548 499.48422241 C-255.01160502 512.65710926 -254.51638449 525.8288791 -254 539 C-253.970271 539.76127701 -253.94054199 540.52255402 -253.90991211 541.30690002 C-250.44627777 629.79671324 -243.60010038 718.52375892 -223 874 C-222.7367708 875.63882731 -222.47358833 877.27766213 -222.21044922 878.91650391 C-221.42089699 883.82095294 -220.61973011 888.72343196 -219.8125 893.625 C-219.63131622 894.72939926 -219.63131622 894.72939926 -219.44647217 895.85610962 C-218.05365476 904.30672225 -216.48879024 912.67817931 -214.55737305 921.02490234 C-214 924 -214 924 -214 929 C-255.58 929 -297.16 929 -340 929 C-338.87540822 912.13112325 -338.87540822 912.13112325 -337.92773438 906.06420898 C-337.8248152 905.39263826 -337.72189602 904.72106754 -337.61585808 904.02914619 C-337.39533194 902.59521025 -337.17197101 901.1617076 -336.94587326 899.7286396 C-336.57948822 897.40567063 -336.22118829 895.08156525 -335.86465454 892.75706482 C-335.34903441 889.39857572 -334.83062775 886.04053523 -334.31011963 882.68280029 C-325.01869033 822.6423461 -317.18737905 762.54426053 -312 702 C-311.88934204 700.7119043 -311.77868408 699.42380859 -311.66467285 698.09667969 C-306.62276159 639.0683523 -303.46064673 579.95018486 -301.3125 520.75 C-301.26637699 519.47932112 -301.26637699 519.47932112 -301.2193222 518.18297195 C-299.42303701 472.19738461 -299.42303701 472.19738461 -298.9375 426.1875 C-298.9425717 424.76627778 -298.94712372 423.34505362 -298.95117188 421.92382812 C-298.96162532 418.61584105 -298.97850486 415.30793635 -299 412 C-308.34086287 421.38390832 -315.5952775 432.07025153 -323 443 C-323.61097534 443.89986633 -324.22195068 444.79973267 -324.85144043 445.72686768 C-329.8518189 453.09973533 -334.81470563 460.49761333 -339.77539062 467.8972168 C-353.37455095 488.17166012 -353.37455095 488.17166012 -360 497 C-360.66 496.67 -361.32 496.34 -362 496 C-364.20452425 488.57913669 -364.30161565 481.44933429 -364.25 473.75 C-364.25773437 472.61175781 -364.26546875 471.47351563 -364.2734375 470.30078125 C-364.25766533 463.35314086 -363.60890309 456.78648865 -362.43652344 449.94238281 C-361.8857956 446.23020611 -361.85318801 442.74370581 -362 439 C-367.89881043 449.41704821 -373.03479068 459.96000447 -377.375 471.125 C-377.77895996 472.14706543 -378.18291992 473.16913086 -378.59912109 474.22216797 C-384.42882819 489.60241392 -386.76760605 505.2323536 -388.5625 521.5 C-388.94850173 524.99096515 -389.34749711 528.48010854 -389.75390625 531.96875 C-389.83524307 532.74391968 -389.9165799 533.51908936 -390.00038147 534.31774902 C-391.02095009 543.06375795 -393.57553269 550.21587222 -398.875 557.25 C-399.29652344 557.83523438 -399.71804688 558.42046875 -400.15234375 559.0234375 C-402.83443984 562.6815869 -405.71768272 565.87062224 -409 569 C-409.99 568.67 -410.98 568.34 -412 568 C-419.23178357 550.55863962 -420.02135172 529.95074307 -420.5625 511.375 C-420.60580627 509.97525068 -420.64942387 508.57551096 -420.69335938 507.17578125 C-420.79862355 503.78393549 -420.90076009 500.39202646 -421 497 C-421.66 497 -422.32 497 -423 497 C-424.01621219 499.99515171 -425.01156127 502.99561509 -426 506 C-426.39832031 507.18722656 -426.79664063 508.37445312 -427.20703125 509.59765625 C-436.04526787 536.41550686 -437.0955264 563.86656505 -434.71191406 591.81542969 C-434.53228081 593.93842624 -434.3657474 596.06258183 -434.21386719 598.18774414 C-434.08727407 599.85238587 -433.92870739 601.51594253 -433.70019531 603.16967773 C-433.04499538 609.97214369 -437.12578395 614.83387133 -440.75 620.1875 C-441.70132813 621.64446289 -441.70132813 621.64446289 -442.671875 623.13085938 C-450.89784076 635.63261359 -450.89784076 635.63261359 -455 637 C-467.58554283 622.02066516 -469.42796164 592.76292732 -472 574 C-472.19048286 572.65872271 -472.38183114 571.31756791 -472.57421875 569.9765625 C-472.71472656 568.99429688 -472.85523438 568.01203125 -473 567 C-485.78312438 590.5805207 -480.52086242 631.30042706 -475.28515625 656.24804688 C-475.10597656 657.15490234 -474.92679687 658.06175781 -474.7421875 658.99609375 C-474.5757373 659.79200928 -474.40928711 660.5879248 -474.23779297 661.40795898 C-473.64246672 667.89725961 -475.32342976 672.17029318 -478.90234375 677.5 C-479.49281494 678.39105438 -479.49281494 678.39105438 -480.09521484 679.30010986 C-481.36391768 681.2084618 -482.64995637 683.10432067 -483.9375 685 C-484.81229073 686.30498662 -485.68606844 687.61065288 -486.55883789 688.91699219 C-488.26540196 691.46865988 -489.97827009 694.01592106 -491.6953125 696.56054688 C-493.6173889 699.41702039 -495.49417279 702.29900569 -497.34375 705.203125 C-497.7962915 705.90824219 -498.24883301 706.61335937 -498.71508789 707.33984375 C-499.5034675 708.57177545 -500.28449299 709.80845959 -501.05639648 711.05078125 C-502.60658702 713.43557709 -503.5491416 714.82809558 -506.25390625 715.859375 C-507.11822266 715.92898438 -507.11822266 715.92898438 -508 716 C-516.75706846 696.0636952 -521.01106607 675.49031332 -524 654 C-524.29197266 652.15148437 -524.29197266 652.15148437 -524.58984375 650.265625 C-525.39036779 643.59714892 -525.24457782 636.83279146 -525.25 630.125 C-525.25067474 629.37423187 -525.25134949 628.62346375 -525.25204468 627.84994507 C-525.22069683 605.74737134 -522.38463394 584.43988597 -517 563 C-516.81211914 562.24460937 -516.62423828 561.48921875 -516.43066406 560.7109375 C-507.99068015 527.61296138 -490.96933879 497.66559382 -470 471 C-469.57315918 470.45456543 -469.14631836 469.90913086 -468.70654297 469.34716797 C-456.89035106 454.40849043 -443.08727377 440.47323516 -427.69042969 429.24169922 C-425.94280379 427.95798672 -424.22467945 426.64091441 -422.5078125 425.31640625 C-400.54770545 408.54670734 -376.1099802 397.14235839 -350.47900391 387.19726562 C-343.45741236 384.45685953 -336.66053106 381.53445488 -330 378 C-370.89481325 379.02548645 -402.04366361 388.65739472 -437.37597656 409.40942383 C-444.63718125 413.67074315 -451.96950592 417.73718165 -459.4375 421.625 C-460.34193848 422.09744141 -461.24637695 422.56988281 -462.17822266 423.05664062 C-464.77383319 424.39612406 -467.38159918 425.7056741 -470 427 C-470.95406738 427.47663086 -471.90813477 427.95326172 -472.89111328 428.44433594 C-473.84614746 428.90356445 -474.80118164 429.36279297 -475.78515625 429.8359375 C-476.64117432 430.25149902 -477.49719238 430.66706055 -478.37915039 431.09521484 C-481.38502677 432.13292121 -483.84194399 432.15973368 -487 432 C-486.51060109 426.53223287 -484.53548455 422.99697102 -481.625 418.5 C-481.18019287 417.80293945 -480.73538574 417.10587891 -480.27709961 416.38769531 C-473.30120104 405.64429992 -465.19691474 396.04766963 -456.4609375 386.7109375 C-453.36744807 383.30318883 -450.66653121 379.74755738 -448 376 C-463.20658429 381.22726335 -476.39313107 390.22128798 -489 400 C-489.94230469 400.71671875 -490.88460937 401.4334375 -491.85546875 402.171875 C-503.92823255 411.65889175 -514.61040516 422.88022827 -524 435 C-533.59438521 447.18084971 -541.86590063 454.54499112 -556.3125 460.375 C-557.19687744 460.73311768 -558.08125488 461.09123535 -558.99243164 461.46020508 C-562.99547615 463.02604909 -565.62681539 464 -570 464 C-566.16351554 441.92943771 -554.51840372 421.4701067 -542.34375 403.03857422 C-540.46729367 400.19184269 -538.63935799 397.31629876 -536.8125 394.4375 C-536.28269531 393.61121094 -535.75289062 392.78492188 -535.20703125 391.93359375 C-533.97255049 390.02365646 -533.97255049 390.02365646 -533 388 C-542.68501415 393.53717025 -550.81720883 400.4768332 -559 408 C-559.85561523 408.78552246 -559.85561523 408.78552246 -560.72851562 409.58691406 C-575.81987319 423.62311795 -587.99864085 440.74773099 -598.2265625 458.58203125 C-598.78988281 459.55954346 -599.35320312 460.53705566 -599.93359375 461.54418945 C-601.03150553 463.46284099 -602.11571591 465.38942258 -603.18359375 467.32495117 C-608.93581227 477.41408761 -615.70628989 482.42900196 -626.3125 486.875 C-627.65151367 487.45894531 -627.65151367 487.45894531 -629.01757812 488.0546875 C-634.97489446 490.6366395 -639.39732627 492.12457875 -646 492 C-645.52503355 486.06634873 -644.56699002 480.68736857 -642.625 475.0625 C-642.36734863 474.3094458 -642.10969727 473.5563916 -641.84423828 472.78051758 C-635.07100542 453.52430502 -626.6513498 435.40908002 -616 418 C-639.98115345 429.02330533 -656.95419836 461.61149705 -668.73632812 483.63769531 C-670.6288863 487.17563831 -672.54017948 490.7032129 -674.46020508 494.22631836 C-675.42391793 495.99495681 -676.38234721 497.7664875 -677.3347168 499.54125977 C-677.76953369 500.34104248 -678.20435059 501.1408252 -678.65234375 501.96484375 C-679.03382568 502.6724585 -679.41530762 503.38007324 -679.80834961 504.10913086 C-682.35357208 508.14780082 -684.83891995 509.53757773 -689.3203125 511.12890625 C-690.40199707 511.51965332 -691.48368164 511.91040039 -692.59814453 512.31298828 C-694.34393799 512.93149658 -694.34393799 512.93149658 -696.125 513.5625 C-698.56353652 514.44375166 -701.00101239 515.32794299 -703.4375 516.21484375 C-704.05980499 516.44107422 -704.68210999 516.66730469 -705.32327271 516.90039062 C-713.0837899 519.73716322 -720.73630838 522.84268863 -728.39111328 525.95141602 C-729.37837402 526.35158936 -730.36563477 526.7517627 -731.3828125 527.1640625 C-732.25309082 527.51936035 -733.12336914 527.8746582 -734.02001953 528.24072266 C-736 529 -736 529 -737 529 C-737.59408832 522.1338973 -735.4696625 516.48117115 -733.1875 510.0625 C-732.78587646 508.92240479 -732.38425293 507.78230957 -731.97045898 506.60766602 C-718.98761648 470.59227161 -698.8181274 440.06526071 -673 412 C-671.49934876 410.31307911 -669.99935807 408.62557038 -668.5 406.9375 C-661.71810294 399.42813301 -654.71516319 392.5679005 -646.8046875 386.24609375 C-644.97789738 384.78313509 -643.16933051 383.29703045 -641.3828125 381.78515625 C-603.76969335 350.03164765 -554.62445182 331.65503516 -506.41699219 324.37011719 C-504.37018362 324.0566867 -502.32882418 323.70798401 -500.2890625 323.3515625 C-470.64339443 318.58337813 -439.85370069 321.08460183 -410.3125 325.3125 C-409.6369104 325.4071051 -408.9613208 325.50171021 -408.26525879 325.59918213 C-386.54843661 328.69237738 -366.01246534 335.40657627 -345.25 342.3125 C-342.69189088 343.15837166 -340.133064 344.00206135 -337.57421875 344.84570312 C-331.38030726 346.88962221 -325.18909009 348.94153049 -319 351 C-318.67 350.67 -318.34 350.34 -318 350 C-328.16434116 342.31954928 -338.69740228 335.87173523 -350 330 C-350.68400879 329.64164062 -351.36801758 329.28328125 -352.07275391 328.9140625 C-376.62639363 316.21657882 -403.36507833 310.28744847 -430.5 306.25 C-431.21661804 306.14281647 -431.93323608 306.03563293 -432.67156982 305.92520142 C-441.18718245 304.66551637 -449.62409556 303.70683014 -458.22460938 303.23730469 C-461 303 -461 303 -464 302 C-462.96452428 298.92012351 -462.11327147 298.06399518 -459.234375 296.4375 C-441.40482204 289.08180999 -423.37262053 284.18271757 -404 285 C-404 284.34 -404 283.68 -404 283 C-409.27007747 281.81739002 -414.54202267 280.64395245 -419.81689453 279.48291016 C-421.53429155 279.10301625 -423.24991522 278.71510496 -424.96484375 278.32421875 C-454.61335933 271.86173033 -486.6318225 277.27667465 -515.77148438 283.6015625 C-526.0561264 285.80596879 -533.36076789 284.26302957 -543.3125 281.0625 C-545.10010742 280.50272461 -545.10010742 280.50272461 -546.92382812 279.93164062 C-555.61491935 277.19254032 -555.61491935 277.19254032 -558 276 C-553.79405003 265.15042624 -533.4102795 258.92053495 -523.48046875 254.47363281 C-508.24205404 248.02167776 -492.21377907 243.27019804 -476 240 C-483.53003468 238.16502014 -490.7015565 237.64892806 -498.4375 237.6875 C-499.6032959 237.69168945 -500.7690918 237.69587891 -501.97021484 237.70019531 C-533.55565527 238.09813545 -563.81879502 244.72286173 -592.56054688 257.91723633 C-599.47785874 260.97992464 -605.04539297 260.25373846 -612.140625 258.1015625 C-612.78948669 257.90654144 -613.43834839 257.71152039 -614.10687256 257.5105896 C-615.46619669 257.09986019 -616.82412462 256.68448349 -618.18066406 256.26464844 C-620.25518494 255.62339729 -622.33403414 254.99812672 -624.4140625 254.375 C-634.56059261 251.29293826 -634.56059261 251.29293826 -638 249 C-636.49101898 244.60383528 -633.10882423 242.70724875 -629.375 240.3125 C-628.70911865 239.87824707 -628.0432373 239.44399414 -627.35717773 238.99658203 C-620.09348036 234.31947787 -612.61160057 230.07999882 -605 226 C-604.39172363 225.66790527 -603.78344727 225.33581055 -603.15673828 224.99365234 C-590.31958669 218.02590286 -576.67135721 213.07042094 -563 208 C-598.37227872 208.7438965 -634.45775029 216.12176778 -665.84814453 232.88769531 C-673.76542511 236.93752696 -678.81369904 235.71837375 -687.02734375 233.21484375 C-689.33305663 232.46282817 -691.63634114 231.70333759 -693.9375 230.9375 C-696.42048047 230.12471752 -698.90355557 229.31222408 -701.38671875 228.5 C-702.65676328 228.08210722 -703.92678276 227.66413829 -705.19677734 227.24609375 C-711.20273166 225.27328308 -717.22719073 223.35808895 -723.25 221.4375 C-725.3385928 220.76969114 -727.42713955 220.10173826 -729.515625 219.43359375 C-731.0104077 218.95570113 -732.50519558 218.47782468 -734 218 C-730.32470294 208.96740685 -717.47036959 204.35751008 -709.3125 200.1875 C-708.72663116 199.88696716 -708.14076233 199.58643433 -707.53713989 199.27679443 C-670.92849776 180.53661943 -633.02891795 169.58574457 -592 166 C-591.2059375 165.92942383 -590.411875 165.85884766 -589.59375 165.78613281 C-584.73147499 165.37587836 -579.87756615 165.12872398 -575 165 C-574.17064941 164.97808594 -573.34129883 164.95617187 -572.48681641 164.93359375 C-500.14232726 163.35545547 -432.20409636 189.73295433 -376.7578125 235.72265625 C-374.80700432 237.33359275 -372.84817677 238.92338601 -370.8671875 240.49609375 C-369.35511719 241.70458984 -369.35511719 241.70458984 -367.8125 242.9375 C-366.42998047 244.03384766 -366.42998047 244.03384766 -365.01953125 245.15234375 C-364.35308594 245.76207031 -363.68664062 246.37179687 -363 247 C-363 247.66 -363 248.32 -363 249 C-362.41822998 249.25724854 -361.83645996 249.51449707 -361.23706055 249.77954102 C-358.80116474 251.1084773 -357.17021622 252.57114431 -355.20703125 254.52734375 C-354.14440063 255.58405273 -354.14440063 255.58405273 -353.06030273 256.66210938 C-352.31852783 257.41298828 -351.57675293 258.16386719 -350.8125 258.9375 C-350.04945557 259.70513672 -349.28641113 260.47277344 -348.50024414 261.26367188 C-343.65791637 266.18397677 -339.13883387 271.1876495 -334.8828125 276.625 C-333.11394573 278.85626762 -331.25461364 280.91974439 -329.3125 283 C-323.20260626 289.77374537 -318.01963325 297.33650783 -312.67480469 304.71533203 C-310.55309725 307.60963789 -308.36892323 310.45403972 -306.16845703 313.28881836 C-305 315 -305 315 -304 318 C-303.34 318 -302.68 318 -302 318 C-307.41890384 304.0178901 -312.87159206 290.20649489 -320 277 C-320.35416992 276.33178223 -320.70833984 275.66356445 -321.07324219 274.97509766 C-326.00551296 265.7004261 -331.40713038 257.2151988 -338 249 C-338.70769531 248.10023438 -339.41539062 247.20046875 -340.14453125 246.2734375 C-351.09549046 232.57980563 -363.2657436 219.31379647 -376.99609375 208.390625 C-379.09931505 206.71679999 -381.16794561 205.02754307 -383.22265625 203.296875 C-390.72149195 197.04908216 -398.53208264 191.5812056 -406.75 186.3125 C-417.26351123 179.56196834 -426.57694134 172.51283615 -435.5 163.75 C-436.2583313 163.00617065 -436.2583313 163.00617065 -437.03198242 162.24731445 C-444 155.21299119 -444 155.21299119 -444 151 C-431.15346442 144.57673221 -402.35581867 155.0729468 -389.359375 159.19482422 C-381.77779453 161.78216408 -374.37648006 164.88329197 -367 168 C-390.56733186 141.76802006 -424.40943012 128.08894048 -457.11328125 117.30078125 C-475.66507536 111.14781566 -486.08488725 98.4778378 -496 82 C-496 81.67 -496 81.34 -496 81 C-472.62881569 80.44206722 -439.42153213 80.28923394 -418 91 C-437.79434995 69.3295898 -477.92836226 60.08864936 -505.59375 52.41015625 C-506.37226318 52.19407715 -507.15077637 51.97799805 -507.95288086 51.75537109 C-509.84926286 51.24489956 -511.75430048 50.76684603 -513.66015625 50.29296875 C-521.66773742 47.19295779 -526.71980944 41.42712077 -531.75 34.6875 C-532.34417725 33.90713379 -532.93835449 33.12676758 -533.55053711 32.32275391 C-541.47001625 21.84979292 -549.13834334 11.19914425 -556 0 C-541.29513445 -0.34841419 -527.39666925 -0.07973441 -513 3 C-511.61486257 3.27096262 -510.2294435 3.54048936 -508.84375 3.80859375 C-481.99434909 9.1994935 -455.07639188 17.83884868 -431 31 C-430.25540527 31.40589355 -429.51081055 31.81178711 -428.74365234 32.22998047 C-408.41230745 43.42127597 -389.47320344 56.93116987 -372.45703125 72.7265625 C-370.27900347 74.74184416 -368.06390714 76.69272436 -365.8125 78.625 C-358.98067629 84.59590283 -353.01911312 91.01172495 -347.34765625 98.09375 C-344.97513333 101.03078337 -342.52234622 103.8859537 -340.0625 106.75 C-304.66448095 149.30410006 -289.76305858 203.32666395 -277 256 C-276.84442627 255.1656543 -276.68885254 254.33130859 -276.52856445 253.47167969 C-262.7466302 179.93431309 -231.91826867 107.14974958 -170 61 C-168.60660162 59.92860545 -167.21339 58.85696798 -165.8203125 57.78515625 C-150.56656346 46.17786178 -134.42990414 36.14176553 -117.07666016 27.97851562 C-115.64812203 27.30539303 -114.22350153 26.6239132 -112.80224609 25.93554688 C-79.24802661 9.71278631 -37.66312811 -3.79710011 0 0 Z " fill="#20511E" transform="translate(743,10)"/>
<path d="M0 0 C-3.3266139 6.30569886 -7.03412951 12.12995358 -11.25 17.875 C-11.81992676 18.6572998 -12.38985352 19.43959961 -12.97705078 20.24560547 C-17.45044337 26.34408294 -22.09770598 32.23883951 -27 38 C-27.61359375 38.75925781 -28.2271875 39.51851562 -28.859375 40.30078125 C-29.73335937 41.35845703 -29.73335937 41.35845703 -30.625 42.4375 C-31.11226562 43.03433594 -31.59953125 43.63117187 -32.1015625 44.24609375 C-36.8400011 48.62378702 -42.41722325 50.68169263 -48.56640625 52.26171875 C-50.02488026 52.65678898 -51.48320812 53.05239904 -52.94140625 53.44848633 C-53.69566895 53.65003326 -54.44993164 53.8515802 -55.22705078 54.05923462 C-69.97447957 58.0264795 -84.11199993 62.58554586 -98 69 C-99.6715918 69.76497803 -99.6715918 69.76497803 -101.37695312 70.54541016 C-105.01100027 72.21929516 -108.63245365 73.91576315 -112.25 75.625 C-113.36955078 76.15134033 -114.48910156 76.67768066 -115.64257812 77.2199707 C-121.88162465 80.23397792 -127.51738945 83.5335386 -133.06542969 87.69287109 C-135 89 -135 89 -137 89 C-137 89.66 -137 90.32 -137 91 C-136.24203125 90.76925781 -135.4840625 90.53851563 -134.703125 90.30078125 C-125.81047562 87.75571304 -116.85371736 85.94516694 -107.75 84.3125 C-106.56696289 84.09827393 -105.38392578 83.88404785 -104.16503906 83.66333008 C-93.15226118 81.73216851 -82.48781021 80.839669 -71.3125 80.9375 C-70.31283203 80.94201172 -69.31316406 80.94652344 -68.28320312 80.95117188 C-65.85540203 80.96278815 -63.427736 80.97911832 -61 81 C-61 85.07256484 -63.04279853 87.22738545 -65.375 90.375 C-66.05175781 91.29514893 -66.05175781 91.29514893 -66.7421875 92.23388672 C-67.68829077 93.51671077 -68.63723867 94.79744121 -69.58886719 96.07617188 C-70.94081963 97.91931811 -72.24390046 99.78855702 -73.5390625 101.671875 C-74.35849041 102.82354658 -75.17876923 103.97461331 -76 105.125 C-77.0828125 106.67574219 -77.0828125 106.67574219 -78.1875 108.2578125 C-82.05878759 112.0323179 -85.9258037 113.30276608 -91 115 C-92.27113914 115.4339888 -93.5421253 115.86842585 -94.81298828 116.30322266 C-97.69271019 117.28230139 -100.575992 118.25005149 -103.46166992 119.21142578 C-133.37317838 129.1908686 -161.42150549 142.52863127 -184.46875 164.70703125 C-186 166 -186 166 -188 166 C-188 166.66 -188 167.32 -188 168 C-187.45923828 167.75878418 -186.91847656 167.51756836 -186.36132812 167.26904297 C-164.03045479 157.42792255 -137.79391857 148.5254718 -113 150 C-112.67 150.66 -112.34 151.32 -112 152 C-118.87074571 168.2694073 -133.96188764 178.2021851 -148.46606445 186.88061523 C-162.23548274 195.1363787 -174.76295242 204.56564461 -186.4375 215.58984375 C-188.59472292 217.61881714 -190.79251215 219.53821581 -193.0625 221.4375 C-222.2646588 246.89888639 -241.46309859 284.00175897 -254 320 C-253.34 320 -252.68 320 -252 320 C-251.71125 319.360625 -251.4225 318.72125 -251.125 318.0625 C-250 316 -250 316 -248 315 C-249.25702431 318.50919288 -250.88061057 321.55428503 -252.86767578 324.70361328 C-263.19210607 341.08290566 -270.39066622 358.51636786 -276 377 C-279.03904799 374.4235745 -280.2786554 371.54583428 -281.85546875 367.92578125 C-282.11821594 367.32927261 -282.38096313 366.73276398 -282.65167236 366.11817932 C-283.21241918 364.84425137 -283.77025053 363.56903679 -284.32540894 362.29266357 C-285.76837568 358.97826872 -287.23571272 355.67472234 -288.703125 352.37109375 C-288.99001694 351.72432678 -289.27690887 351.07755981 -289.57249451 350.41119385 C-294.1946158 340.02692178 -299.29163328 329.93133368 -305.06640625 320.13671875 C-306 318 -306 318 -305 315 C-304.67 315.99 -304.34 316.98 -304 318 C-303.34 318 -302.68 318 -302 318 C-307.41890384 304.0178901 -312.87159206 290.20649489 -320 277 C-320.35416992 276.33178223 -320.70833984 275.66356445 -321.07324219 274.97509766 C-326.00551296 265.7004261 -331.40713038 257.2151988 -338 249 C-338.70769531 248.10023438 -339.41539062 247.20046875 -340.14453125 246.2734375 C-351.09549046 232.57980563 -363.2657436 219.31379647 -376.99609375 208.390625 C-379.09931505 206.71679999 -381.16794561 205.02754307 -383.22265625 203.296875 C-390.72149195 197.04908216 -398.53208264 191.5812056 -406.75 186.3125 C-417.26351123 179.56196834 -426.57694134 172.51283615 -435.5 163.75 C-436.2583313 163.00617065 -436.2583313 163.00617065 -437.03198242 162.24731445 C-444 155.21299119 -444 155.21299119 -444 151 C-431.15346442 144.57673221 -402.35581867 155.0729468 -389.359375 159.19482422 C-381.77779453 161.78216408 -374.37648006 164.88329197 -367 168 C-390.56733186 141.76802006 -424.40943012 128.08894048 -457.11328125 117.30078125 C-475.66507536 111.14781566 -486.08488725 98.4778378 -496 82 C-496 81.67 -496 81.34 -496 81 C-472.62881569 80.44206722 -439.42153213 80.28923394 -418 91 C-437.79434995 69.3295898 -477.92836226 60.08864936 -505.59375 52.41015625 C-506.37226318 52.19407715 -507.15077637 51.97799805 -507.95288086 51.75537109 C-509.84926286 51.24489956 -511.75430048 50.76684603 -513.66015625 50.29296875 C-521.66773742 47.19295779 -526.71980944 41.42712077 -531.75 34.6875 C-532.34417725 33.90713379 -532.93835449 33.12676758 -533.55053711 32.32275391 C-541.47001625 21.84979292 -549.13834334 11.19914425 -556 0 C-541.29513445 -0.34841419 -527.39666925 -0.07973441 -513 3 C-511.61486257 3.27096262 -510.2294435 3.54048936 -508.84375 3.80859375 C-481.99434909 9.1994935 -455.07639188 17.83884868 -431 31 C-430.25540527 31.40589355 -429.51081055 31.81178711 -428.74365234 32.22998047 C-408.41230745 43.42127597 -389.47320344 56.93116987 -372.45703125 72.7265625 C-370.27900347 74.74184416 -368.06390714 76.69272436 -365.8125 78.625 C-358.98067629 84.59590283 -353.01911312 91.01172495 -347.34765625 98.09375 C-344.97513333 101.03078337 -342.52234622 103.8859537 -340.0625 106.75 C-304.66448095 149.30410006 -289.76305858 203.32666395 -277 256 C-276.84442627 255.1656543 -276.68885254 254.33130859 -276.52856445 253.47167969 C-262.7466302 179.93431309 -231.91826867 107.14974958 -170 61 C-168.60660162 59.92860545 -167.21339 58.85696798 -165.8203125 57.78515625 C-150.56656346 46.17786178 -134.42990414 36.14176553 -117.07666016 27.97851562 C-115.64812203 27.30539303 -114.22350153 26.6239132 -112.80224609 25.93554688 C-79.24802661 9.71278631 -37.66312811 -3.79710011 0 0 Z " fill="#4BAB46" transform="translate(743,10)"/>
<path d="M0 0 C8.43747875 -0.03260397 16.87496633 -0.05161406 25.3125 -0.0625 C25.9709919 -0.06335602 26.6294838 -0.06421204 27.30792999 -0.06509399 C55.33252014 -0.09702927 83.35252683 0.17615882 111.375 0.5 C112.92763235 0.51793673 112.92763235 0.51793673 114.51163101 0.53623581 C127.34115956 0.6849851 140.17061133 0.83965359 153 1 C153.13935471 2.19375244 153.27870941 3.38750488 153.42228699 4.61743164 C153.94849835 9.11873462 154.47834716 13.6196037 155.00920105 18.12036133 C155.23687214 20.05481817 155.46360444 21.98938578 155.6893158 23.92407227 C160.52191403 65.32451443 169.40717865 105.93861106 182.828125 145.4296875 C183.06234161 146.12066528 183.29655823 146.81164307 183.53787231 147.52355957 C184.66789673 150.84724738 185.81418421 154.16381972 186.98974609 157.47167969 C187.39789551 158.64891602 187.80604492 159.82615234 188.2265625 161.0390625 C188.59346191 162.07240723 188.96036133 163.10575195 189.33837891 164.17041016 C190.26121795 168.11716458 189.67024255 170.70643188 187.828125 174.26171875 C183.99082152 180.16014811 179.95259259 185.87368352 175.8125 191.5625 C145.4070439 233.3776231 121.07862003 279.37810603 102 327.375 C101.62593018 328.30771729 101.25186035 329.24043457 100.86645508 330.20141602 C97.60355873 338.55101433 95.71479197 346.02041224 95.9375 355 C95.95209534 356.39450411 95.96383514 357.78904116 95.97265625 359.18359375 C95.98167969 360.44300781 95.99070312 361.70242188 96 363 C95.99115142 369.30903701 95.08281925 373.03717213 90.6328125 377.69140625 C88.50319989 379.3981532 86.71553495 379.92013133 84 380 C81.3804598 374.02267959 81.66647523 368.04822902 81.62109375 361.64453125 C81.59607788 359.72903473 81.59607788 359.72903473 81.57055664 357.77484131 C81.52441461 354.2084712 81.49056312 350.64207352 81.45881271 347.07555008 C81.42269975 343.24096352 81.37567705 339.40650776 81.33032227 335.57202148 C81.23955795 327.71320851 81.16100441 319.85431021 81.08629704 311.99532986 C81.01509322 304.51312936 80.93989462 297.03097508 80.86328125 289.54882812 C80.63492864 267.18816814 80.41386882 244.82742174 80.212677 222.46649933 C80.19374095 220.37478562 80.17446136 218.28307498 80.15478516 216.1913681 C80.10983288 211.39050709 80.07175719 206.5898682 80.04904175 201.78884888 C80.02592687 197.66409447 79.94247726 193.54425446 79.83499146 189.42086792 C79.79486149 187.24925022 79.75488943 185.0776296 79.71508789 182.90600586 C79.67911971 181.89915772 79.64315153 180.89230959 79.60609341 179.8549509 C79.49719851 172.026061 79.49719851 172.026061 82.05149841 168.55177307 C84.24243305 166.38132723 86.48337143 164.76254853 89 163 C91.89332992 158.6955061 91.3882327 153.99040777 91 149 C90.20849319 145.83397276 89.87299238 144.55289518 87.125 142.8125 C86.42375 142.544375 85.7225 142.27625 85 142 C84.41734375 141.66226562 83.8346875 141.32453125 83.234375 140.9765625 C78.74083858 139.01260428 73.78510225 139.37307484 69 140 C65.49653028 141.61801464 63.59594451 143.99772968 61.625 147.3125 C60.08571787 153.93141316 60.70917913 158.33956059 63.83203125 164.23828125 C65.91192982 167.37551956 67.3847099 168.7949033 71 170 C71.14675495 177.26513663 71.28849998 184.53036037 71.42724609 191.7956543 C71.47467713 194.25140439 71.52313021 196.70713503 71.57275391 199.1628418 C72.24064252 232.30511049 71.96605668 265.42882964 71.62768555 298.57299805 C71.57244638 304.00116679 71.52228256 309.42937015 71.47328281 314.8575983 C71.43389998 319.12447399 71.39094068 323.39130862 71.34705925 327.65814018 C71.32705654 329.65790007 71.30828833 331.6576728 71.29092598 333.65745735 C71.19838913 344.16006376 70.99217185 354.64833087 70.54272461 365.14233398 C70.50469254 366.07225945 70.46666048 367.00218493 70.42747593 367.96028996 C70.38715213 368.82481502 70.34682833 369.68934008 70.30528259 370.58006287 C70.27063872 371.33900565 70.23599485 372.09794844 70.20030117 372.87988949 C69.99948682 375.0054318 69.57299031 376.94623922 69 379 C63.72559742 378.68033924 60.56176651 375.60963971 57 372 C55.77110858 369.54221717 55.95799821 368.10972335 56.078125 365.37109375 C56.48643665 352.48561464 55.64285036 342.00511906 51 330 C50.65598145 329.07928711 50.31196289 328.15857422 49.95751953 327.20996094 C42.29458929 306.86073327 32.74315363 287.41495789 23 268 C22.43071777 266.8641748 21.86143555 265.72834961 21.27490234 264.55810547 C8.33734114 238.90348689 -6.75140953 215.35414288 -23.8203125 192.30078125 C-30.96376982 182.64729109 -30.96376982 182.64729109 -34 178 C-34.67869141 177.00033203 -34.67869141 177.00033203 -35.37109375 175.98046875 C-38.20001511 171.27796668 -38.01746313 168.37558495 -36.84887695 163.140625 C-35.2212565 157.11885061 -33.15498601 151.2411824 -31.12042236 145.34762573 C-25.74419081 129.72560545 -20.90797711 114.06101965 -17 98 C-16.75088867 96.989375 -16.50177734 95.97875 -16.24511719 94.9375 C-12.68177006 80.29588688 -9.93366205 65.53124727 -7.375 50.6875 C-7.16447998 49.47693436 -7.16447998 49.47693436 -6.94970703 48.24191284 C-4.18105502 32.22372013 -2.08410741 16.11852364 0 0 Z " fill="#664E3D" transform="translate(389,995)"/>
<path d="M0 0 C3.29795554 1.42102213 4.94600744 4.10580266 6.98828125 6.9375 C7.80679627 8.04203395 8.62581871 9.14619204 9.4453125 10.25 C9.84625122 10.82042023 10.24718994 11.39084045 10.66027832 11.97854614 C12.12015751 13.97781386 12.12015751 13.97781386 13.96118164 15.58493042 C18.93760382 20.58425875 19.79609957 24.94041307 19.81323242 31.71533203 C19.78531551 34.32514846 19.72063685 36.92970315 19.62841225 39.53805161 C19.49466879 43.367823 19.4420585 47.19750803 19.38548183 51.02907753 C19.35587374 53.02629553 19.32257869 55.02346207 19.28571415 57.02055931 C19.1118002 67.1069544 19.3733158 77.16243574 19.7265625 87.2421875 C19.78590909 89.01070505 19.84520961 90.77922414 19.90446472 92.54774475 C20.05786815 97.04219461 20.22044036 101.5362657 20.38614273 106.03027725 C20.49084354 108.88229598 20.59318196 111.73439131 20.69491577 114.58651733 C21.16371267 127.70449898 21.65954805 140.82130337 22.17578125 153.9375 C22.20551025 154.69680565 22.23523926 155.4561113 22.26586914 156.23842621 C25.73551605 244.73079456 32.57531114 333.45829933 53.17578125 488.9375 C53.43901045 490.57632731 53.70219292 492.21516213 53.96533203 493.85400391 C54.75488426 498.75845294 55.55605114 503.66093196 56.36328125 508.5625 C56.48407043 509.29876617 56.60485962 510.03503235 56.72930908 510.79360962 C58.12212649 519.24422225 59.68699101 527.61567931 61.6184082 535.96240234 C62.17578125 538.9375 62.17578125 538.9375 62.17578125 543.9375 C20.59578125 543.9375 -20.98421875 543.9375 -63.82421875 543.9375 C-62.69962697 527.06862325 -62.69962697 527.06862325 -61.75195312 521.00170898 C-61.64903395 520.33013826 -61.54611477 519.65856754 -61.44007683 518.96664619 C-61.21955069 517.53271025 -60.99618976 516.0992076 -60.77009201 514.6661396 C-60.40370697 512.34317063 -60.04540704 510.01906525 -59.68887329 507.69456482 C-59.17325316 504.33607572 -58.6548465 500.97803523 -58.13433838 497.62030029 C-48.84290908 437.5798461 -41.0115978 377.48176053 -35.82421875 316.9375 C-35.65823181 315.00535645 -35.65823181 315.00535645 -35.4888916 313.03417969 C-30.44698034 254.0058523 -27.28486548 194.88768486 -25.13671875 135.6875 C-25.10597008 134.84038074 -25.07522141 133.99326149 -25.04354095 133.12047195 C-24.63652253 121.86046298 -24.25802014 110.59970359 -23.90109634 99.33800125 C-23.82256909 96.88598933 -23.74164487 94.43406544 -23.6602478 91.98214722 C-22.84729164 70.35379058 -22.84729164 70.35379058 -23.1484375 48.72265625 C-23.17750687 47.96159576 -23.20657623 47.20053528 -23.23652649 46.41641235 C-23.34901615 43.53051914 -23.46427253 40.64994919 -23.67456055 37.76928711 C-24.24496023 29.49625304 -24.07562145 23.64062504 -18.68379211 17.00926208 C-16.62443083 14.70867493 -14.49111049 12.51185725 -12.2723999 10.36503601 C-10.27730671 8.39838469 -8.48933346 6.27762589 -6.69921875 4.125 C-3.07325293 -0.10529346 -3.07325293 -0.10529346 0 0 Z " fill="#664E3D" transform="translate(466.82421875,395.0625)"/>
<path d="M0 0 C1.2156665 0.1446167 2.43133301 0.2892334 3.68383789 0.43823242 C25.36343495 3.25204896 46.02126176 8.43746063 66.75 15.3125 C68.94293939 16.02798123 71.13629856 16.74217717 73.33007812 17.45507812 C83.21433342 20.67462911 93.07694332 23.95869505 102.9375 27.25 C103.2675 26.92 103.5975 26.59 103.9375 26.25 C108.22211323 26.25 110.63865812 28.64984206 113.9375 31.125 C114.60668457 31.6209668 115.27586914 32.11693359 115.96533203 32.62792969 C121.06753003 36.46525097 125.76573528 40.57597979 130.41796875 44.94921875 C133.58029311 47.83698471 136.9223046 50.41732391 140.35546875 52.97265625 C140.87753906 53.39417969 141.39960938 53.81570313 141.9375 54.25 C141.9375 54.58 141.9375 54.91 141.9375 55.25 C141.36644531 55.27283554 140.79539062 55.29567108 140.20703125 55.31919861 C134.2366471 55.5586087 128.26646914 55.80274336 122.29638672 56.04956055 C120.07150079 56.14092997 117.84656587 56.23111488 115.62158203 56.32006836 C112.41425019 56.44850514 109.20712157 56.58127107 106 56.71484375 C105.01322266 56.75343002 104.02644531 56.7920163 103.00976562 56.83177185 C97.59915928 57.06172378 92.30057328 57.49374018 86.9375 58.25 C88.5875 56.93 90.2375 55.61 91.9375 54.25 C51.04268675 55.27548645 19.89383639 64.90739472 -15.43847656 85.65942383 C-22.69968125 89.92074315 -30.03200592 93.98718165 -37.5 97.875 C-38.40443848 98.34744141 -39.30887695 98.81988281 -40.24072266 99.30664062 C-42.83633319 100.64612406 -45.44409918 101.9556741 -48.0625 103.25 C-49.01656738 103.72663086 -49.97063477 104.20326172 -50.95361328 104.69433594 C-51.90864746 105.15356445 -52.86368164 105.61279297 -53.84765625 106.0859375 C-54.70367432 106.50149902 -55.55969238 106.91706055 -56.44165039 107.34521484 C-59.44752677 108.38292121 -61.90444399 108.40973368 -65.0625 108.25 C-64.57310109 102.78223287 -62.59798455 99.24697102 -59.6875 94.75 C-59.24269287 94.05293945 -58.79788574 93.35587891 -58.33959961 92.63769531 C-51.36370104 81.89429992 -43.25941474 72.29766963 -34.5234375 62.9609375 C-31.42994807 59.55318883 -28.72903121 55.99755738 -26.0625 52.25 C-41.26908429 57.47726335 -54.45563107 66.47128798 -67.0625 76.25 C-68.00480469 76.96671875 -68.94710937 77.6834375 -69.91796875 78.421875 C-81.99073255 87.90889175 -92.67290516 99.13022827 -102.0625 111.25 C-111.65688521 123.43084971 -119.92840063 130.79499112 -134.375 136.625 C-135.25937744 136.98311768 -136.14375488 137.34123535 -137.05493164 137.71020508 C-141.05797615 139.27604909 -143.68931539 140.25 -148.0625 140.25 C-144.22601554 118.17943771 -132.58090372 97.7201067 -120.40625 79.28857422 C-118.52979367 76.44184269 -116.70185799 73.56629876 -114.875 70.6875 C-114.34519531 69.86121094 -113.81539062 69.03492188 -113.26953125 68.18359375 C-112.03505049 66.27365646 -112.03505049 66.27365646 -111.0625 64.25 C-120.74751415 69.78717025 -128.87970883 76.7268332 -137.0625 84.25 C-137.91811523 85.03552246 -137.91811523 85.03552246 -138.79101562 85.83691406 C-153.88237319 99.87311795 -166.06114085 116.99773099 -176.2890625 134.83203125 C-176.85238281 135.80954346 -177.41570312 136.78705566 -177.99609375 137.79418945 C-179.09400553 139.71284099 -180.17821591 141.63942258 -181.24609375 143.57495117 C-186.99831227 153.66408761 -193.76878989 158.67900196 -204.375 163.125 C-205.26767578 163.51429688 -206.16035156 163.90359375 -207.08007812 164.3046875 C-213.03739446 166.8866395 -217.45982627 168.37457875 -224.0625 168.25 C-223.58753355 162.31634873 -222.62949002 156.93736857 -220.6875 151.3125 C-220.42984863 150.5594458 -220.17219727 149.8063916 -219.90673828 149.03051758 C-213.13350542 129.77430502 -204.7138498 111.65908002 -194.0625 94.25 C-218.04365345 105.27330533 -235.01669836 137.86149705 -246.79882812 159.88769531 C-248.6913863 163.42563831 -250.60267948 166.9532129 -252.52270508 170.47631836 C-253.48641793 172.24495681 -254.44484721 174.0164875 -255.3972168 175.79125977 C-255.83203369 176.59104248 -256.26685059 177.3908252 -256.71484375 178.21484375 C-257.09632568 178.9224585 -257.47780762 179.63007324 -257.87084961 180.35913086 C-260.41607208 184.39780082 -262.90141995 185.78757773 -267.3828125 187.37890625 C-268.46449707 187.76965332 -269.54618164 188.16040039 -270.66064453 188.56298828 C-271.82450684 188.97532715 -272.98836914 189.38766602 -274.1875 189.8125 C-276.62603652 190.69375166 -279.06351239 191.57794299 -281.5 192.46484375 C-282.12230499 192.69107422 -282.74460999 192.91730469 -283.38577271 193.15039062 C-291.1462899 195.98716322 -298.79880838 199.09268863 -306.45361328 202.20141602 C-307.93450439 202.80167603 -307.93450439 202.80167603 -309.4453125 203.4140625 C-310.31559082 203.76936035 -311.18586914 204.1246582 -312.08251953 204.49072266 C-314.0625 205.25 -314.0625 205.25 -315.0625 205.25 C-315.65658832 198.3838973 -313.5321625 192.73117115 -311.25 186.3125 C-310.84837646 185.17240479 -310.44675293 184.03230957 -310.03295898 182.85766602 C-297.05011648 146.84227161 -276.8806274 116.31526071 -251.0625 88.25 C-249.56184876 86.56307911 -248.06185807 84.87557038 -246.5625 83.1875 C-239.78060294 75.67813301 -232.77766319 68.8179005 -224.8671875 62.49609375 C-223.04039738 61.03313509 -221.23183051 59.54703045 -219.4453125 58.03515625 C-181.8384062 26.28689262 -132.70035716 7.91040927 -84.50146484 0.62011719 C-82.38991872 0.29968636 -80.28238593 -0.04698385 -78.17578125 -0.3984375 C-52.39470957 -4.38252249 -25.79112852 -3.12923095 0 0 Z " fill="#4BAB46" transform="translate(321.0625,333.75)"/>
<path d="M0 0 C0.95558807 -0.00385712 1.91117615 -0.00771423 2.89572144 -0.01168823 C15.0015043 -0.03580048 26.76747807 0.58873982 38.75 2.3125 C39.79446289 2.45308838 40.83892578 2.59367676 41.91503906 2.73852539 C85.23608288 8.75697705 127.04518761 25.08251716 162.75 50.3125 C163.31799316 50.7132373 163.88598633 51.11397461 164.47119141 51.52685547 C175.62216702 59.47214103 186.28327178 68.40996332 195.75 78.3125 C198.2567182 80.83584651 200.77853235 83.3402542 203.328125 85.8203125 C209.61791001 91.98135922 215.34413729 98.34553832 220.75 105.3125 C221.19956055 105.88564941 221.64912109 106.45879883 222.11230469 107.04931641 C242.41118042 133.01730943 258.37590355 162.1478844 269.9375 193 C270.22906982 193.77142334 270.52063965 194.54284668 270.82104492 195.33764648 C272.17776163 199.09785884 273.10611351 202.30028776 272.75 206.3125 C263.19484105 204.51571468 254.26494981 201.03739408 245.20727539 197.58862305 C243.86869796 197.07979534 242.53007533 196.57108653 241.19140625 196.0625 C240.53922623 195.81365555 239.8870462 195.5648111 239.21510315 195.3084259 C235.66561995 193.9711953 232.13873813 192.81420208 228.46484375 191.875 C221.34897336 189.9143697 217.28194023 187.63072228 213.265625 181.25 C210.34602277 176.09587022 207.79240851 170.78372833 205.26757812 165.42773438 C202.99148007 160.75543528 200.38479457 156.31412391 197.6875 151.875 C197.19596436 151.06313232 196.70442871 150.25126465 196.19799805 149.41479492 C178.38434141 119.61636526 178.38434141 119.61636526 152.75 97.3125 C153.91396571 99.81378801 155.0807797 102.31366773 156.25 104.8125 C156.6109375 105.5856958 156.971875 106.3588916 157.34375 107.15551758 C159.0940128 110.88204282 160.86705322 114.58504988 162.78125 118.23046875 C182.28356832 155.42228173 182.28356832 155.42228173 178.75 171.3125 C177.87057739 171.04856445 177.87057739 171.04856445 176.97338867 170.77929688 C176.1507251 170.53244141 175.32806152 170.28558594 174.48046875 170.03125 C173.56442871 169.7528125 172.64838867 169.474375 171.70458984 169.1875 C169.78312356 168.61845892 167.85374612 168.07526995 165.91650391 167.5625 C155.52429339 164.72938758 146.36034179 161.59748395 140.27734375 152.24609375 C137.00555117 146.49506225 134.17993428 140.55099002 131.36865234 134.5625 C129.08630592 129.9799064 126.33526909 125.87087512 123.3125 121.75 C122.81999756 121.07501465 122.32749512 120.4000293 121.82006836 119.70458984 C120.47983861 117.89396349 119.120823 116.100028 117.75 114.3125 C117.02296875 113.35601562 116.2959375 112.39953125 115.546875 111.4140625 C111.59070409 106.35203279 107.3646182 101.55404449 103.02734375 96.81640625 C101.51794098 95.15683991 100.03042931 93.47707714 98.56640625 91.77734375 C89.23607741 81.01669712 77.94774258 72.58768146 65.75 65.3125 C66.18755615 65.95574219 66.6251123 66.59898437 67.07592773 67.26171875 C75.4964845 79.67398905 83.77293425 92.02510638 90.75 105.3125 C91.06759277 105.90144043 91.38518555 106.49038086 91.71240234 107.09716797 C97.57994007 117.98974055 102.98385385 129.79877961 103.75 142.3125 C97.8514929 141.77983269 93.17262096 140.02318 87.8125 137.5625 C87.05259766 137.22734375 86.29269531 136.8921875 85.50976562 136.546875 C78.17276999 133.2386481 71.44736643 129.90109921 66.5 123.375 C42.27843841 92.44592905 16.22433172 69.42364824 -19.25 52.3125 C-18.61384766 52.93125 -18.61384766 52.93125 -17.96484375 53.5625 C-13.49297403 57.96557172 -9.3258895 62.54354427 -5.25 67.3125 C-4.14011719 68.55386719 -4.14011719 68.55386719 -3.0078125 69.8203125 C2.32123219 75.93253948 6.85205131 82.28104789 11.1875 89.125 C11.69563232 89.92526611 12.20376465 90.72553223 12.72729492 91.55004883 C19.75 102.85583875 19.75 102.85583875 19.75 109.3125 C3.06725071 108.17503982 -14.01666331 95.97891474 -27.9375 87.4375 C-59.50052508 68.18165861 -89.51254806 58.43611601 -126.3125 56.625 C-127.75012695 56.55224854 -127.75012695 56.55224854 -129.21679688 56.47802734 C-130.55000977 56.42122803 -130.55000977 56.42122803 -131.91015625 56.36328125 C-132.70043213 56.32887939 -133.49070801 56.29447754 -134.30493164 56.2590332 C-136.33247408 56.17770885 -136.33247408 56.17770885 -138.25 57.3125 C-137.26 57.9725 -136.27 58.6325 -135.25 59.3125 C-139.22331941 58.8197196 -143.19330708 58.32025917 -147.16015625 57.77734375 C-159.53820984 56.16488842 -171.78189324 56.09575035 -184.25 56.3125 C-179.1887698 50.05199539 -173.47167605 45.3296645 -166.9921875 40.59423828 C-165.2907096 39.34245031 -163.614066 38.06221204 -161.9375 36.77734375 C-160.85538716 35.97491398 -159.77209547 35.17407095 -158.6875 34.375 C-157.73746094 33.66472656 -156.78742188 32.95445312 -155.80859375 32.22265625 C-151.96646495 29.83318237 -147.74198957 29.09658903 -143.37524414 28.09692383 C-138.49391642 26.87173002 -133.91824994 24.98378889 -129.25 23.125 C-87.83226999 7.25058606 -44.23251453 0.1113397 0 0 Z " fill="#4BAB46" transform="translate(653.25,331.6875)"/>
<path d="M0 0 C1.87541977 -0.01258347 1.87541977 -0.01258347 3.78872681 -0.02542114 C5.17193915 -0.01445414 6.55514837 -0.00308817 7.93835449 0.00863647 C9.39729147 0.00649011 10.85622677 0.00261167 12.31515503 -0.00286865 C16.2785756 -0.01256737 20.24154602 0.00275307 24.20491219 0.02303743 C28.3606425 0.04062402 32.5163592 0.03708286 36.67211914 0.03631592 C43.65970362 0.03818987 50.64711458 0.05555659 57.63464355 0.08285522 C65.68930087 0.11420867 73.74376751 0.12485478 81.79848146 0.12338412 C90.39436413 0.12202704 98.99017416 0.13595488 107.58603477 0.15427732 C110.05044715 0.15851996 112.51484762 0.15995702 114.97926331 0.16075516 C118.8731838 0.16278213 122.76694762 0.17513701 126.66081619 0.19508743 C128.08126997 0.20087215 129.5017418 0.20340162 130.92220688 0.20223236 C154.8801491 0.1899871 154.8801491 0.1899871 161.90515137 6.49447632 C165.06496693 10.18092781 165.36217873 13.46333749 165.19812012 18.15072632 C164.5269509 23.52008007 162.5943366 28.49387975 158.90515137 32.49447632 C156.53545952 32.98946095 156.53545952 32.98946095 153.67929077 32.98222351 C152.05339523 32.99263924 152.05339523 32.99263924 150.39465332 33.00326538 C149.20428467 32.99045532 148.01391602 32.97764526 146.78747559 32.96444702 C145.53306671 32.96663742 144.27865784 32.96882782 142.98623657 32.97108459 C139.53368538 32.97651992 136.08166815 32.95702264 132.62921286 32.93298364 C128.98513597 32.91160661 125.34105956 32.91227705 121.69692993 32.91029358 C115.54472798 32.90383107 109.3927236 32.88257479 103.24060059 32.85116577 C95.45183376 32.81144215 87.66319776 32.79355214 79.87434196 32.78385639 C73.08527611 32.77539093 66.29623566 32.75818612 59.50719309 32.73881888 C58.07508108 32.734823 56.64296836 32.7310764 55.21085501 32.72759652 C46.48705628 32.70620834 37.76495101 32.6478975 29.0417099 32.53766251 C26.15142329 32.50361026 23.2616111 32.48763385 20.3711319 32.48205185 C16.54650965 32.47412365 12.7231519 32.43659547 8.89895463 32.37983167 C7.44200176 32.36317298 5.98489256 32.35667798 4.52785087 32.36100066 C-6.75576293 32.38471258 -6.75576293 32.38471258 -10.08368301 30.17228127 C-14.30419731 25.23298018 -14.43221343 20.77299098 -14.38000488 14.54525757 C-13.88749929 9.27612242 -11.65014814 6.40057241 -8.33515167 2.33788109 C-5.4080937 -0.07061122 -3.76207519 -0.00377127 0 0 Z " fill="#664E3D" transform="translate(390.0948486328125,950.5055236816406)"/>
<path d="M0 0 C1.875 -0.36328125 1.875 -0.36328125 4 -0.3125 C4.70125 -0.30863281 5.4025 -0.30476562 6.125 -0.30078125 C8 0 8 0 10 2 C10.73247302 7.82559125 9.77656465 13.84416966 8.8984375 19.609375 C8.72348503 20.80357307 8.72348503 20.80357307 8.54499817 22.02189636 C8.16365622 24.59931789 7.77078053 27.17475823 7.375 29.75 C7.23961823 30.63881866 7.10423645 31.52763733 6.9647522 32.44338989 C2.04908362 64.56751628 -4.8207343 96.34355981 -15.75 127 C-16.27847534 128.4845166 -16.27847534 128.4845166 -16.81762695 129.99902344 C-22.60167817 145.62016387 -22.60167817 145.62016387 -28 150 C-30.6875 149.6875 -30.6875 149.6875 -33 149 C-34.07625744 144.33752232 -33.83607162 141.40434038 -32.33203125 136.8828125 C-31.93927002 135.66118408 -31.54650879 134.43955566 -31.1418457 133.1809082 C-30.92597809 132.52450348 -30.71011047 131.86809875 -30.48770142 131.19180298 C-17.54770445 91.58225293 -7.86142967 50.19161034 -2.88452148 8.79223633 C-2.43329983 5.16785665 -2.06420002 3.09630003 0 0 Z " fill="#FAFAFA" transform="translate(407,1015)"/>
<path d="M0 0 C0.66 0.66 1.32 1.32 2 2 C4.68839385 2.26991906 7.29141936 2.08737357 10 2 C7.49484216 4.50515784 5.38931835 5.05099086 2 6 C0.68 6 -0.64 6 -2 6 C-1.125 1.125 -1.125 1.125 0 0 Z " fill="#736450" transform="translate(175,468)"/>
<path d="M0 0 C1.33332095 2.6666419 0.67102033 4.16680303 0 7 C1.65 7 3.3 7 5 7 C3 9 3 9 -0.125 9.125 C-1.548125 9.063125 -1.548125 9.063125 -3 9 C-2.5020163 5.26512223 -2.12508244 3.18762365 0 0 Z " fill="#6E604A" transform="translate(259,433)"/>
</svg>
