<svg xmlns="http://www.w3.org/2000/svg" width="1539" height="1022" viewBox="0 0 1539 1022" version="1.1"><path d="M 677.500 8.867 C 669.318 12.597, 662.648 20.879, 658.468 32.500 C 657.479 35.250, 656.406 37.807, 656.085 38.182 C 655.763 38.557, 651.675 37.684, 647 36.242 C 639.287 33.862, 636.926 33.614, 621.500 33.563 C 602.824 33.501, 599.092 34.215, 585.453 40.457 C 565.482 49.597, 550.887 66.767, 545.892 87 C 544.005 94.644, 544.263 111, 546.398 119 C 551.819 139.323, 567.761 160.786, 593.909 182.968 L 604.862 192.259 600.317 204.880 C 594.042 222.302, 577.904 268.102, 577.263 270.307 C 576.969 271.316, 576.138 271.883, 575.379 271.592 C 572.752 270.584, 549.443 264.068, 544.500 262.960 C 522.683 258.068, 493.475 257.938, 466 262.609 C 440.613 266.925, 371.295 286.917, 316.568 305.706 C 265.937 323.089, 245.080 335.653, 235.534 354.521 C 230.252 364.960, 229.885 368.293, 229.094 412.940 C 228.481 447.522, 228.123 454.459, 226.930 454.854 C 151.570 479.854, 81.093 505.235, 61.377 514.476 C 34.851 526.910, 16.846 546.641, 10.935 569.756 C 7.458 583.348, 8.784 595.801, 15.084 608.749 C 21.062 621.036, 40.300 638.296, 58.404 647.615 L 65.879 651.463 69.004 661.320 C 76.317 684.389, 86.872 705.170, 98.261 718.926 C 111.839 735.324, 123.771 741.727, 225.500 787.209 C 263.571 804.230, 313.622 826.356, 346 840.478 C 354.525 844.197, 366.900 849.614, 373.500 852.517 C 436.684 880.306, 470.759 894.945, 554.500 930.281 C 693.902 989.103, 723.353 999.963, 768.035 1009.025 C 790.604 1013.601, 807.057 1015.274, 830 1015.324 C 874.399 1015.420, 900.725 1008.621, 979.500 976.713 C 998.940 968.839, 1013.555 962.758, 1054 945.715 C 1086.271 932.116, 1157.454 899.790, 1180.428 888.301 C 1213.952 871.536, 1231.582 852.893, 1245.491 819.500 C 1247.782 814, 1250.721 805.778, 1252.021 801.228 L 1254.386 792.957 1260.943 789.332 C 1298.336 768.663, 1316.571 746.283, 1318.653 718.500 C 1320.061 699.717, 1311.271 682.981, 1293.947 671.465 C 1290.153 668.942, 1281.075 664.034, 1273.774 660.557 C 1241.975 645.413, 1161.268 611.711, 1105.756 590.394 L 1093.012 585.500 1092.991 554.500 C 1092.945 489.157, 1089.188 469.188, 1074.101 454.101 C 1064.875 444.875, 1058.188 441.883, 990 416.468 C 959.669 405.163, 911.973 388.329, 804.500 350.995 C 785.800 344.499, 766.675 337.811, 762 336.132 C 749.110 331.504, 666.988 302.651, 646 295.377 C 635.825 291.851, 626.827 288.720, 626.005 288.420 C 625.052 288.072, 627.046 286.538, 631.508 284.187 C 640.749 279.318, 646.379 274.689, 651.152 268.037 C 664.048 250.064, 660.608 225.336, 642.250 204.055 C 639.913 201.346, 638 198.652, 638 198.069 C 638 195.724, 688.939 91.201, 692.366 86.515 C 693.684 84.712, 694.056 84.861, 700.125 89.615 C 755.179 132.739, 802.157 151.262, 862.500 153.637 C 887.225 154.610, 912.146 152.066, 937.845 145.946 C 956.905 141.407, 979.386 133.420, 1016.459 118.018 C 1069.818 95.849, 1097.145 86.120, 1130 77.595 C 1173.228 66.378, 1216.596 62.205, 1262 64.893 C 1330.683 68.960, 1384.940 84.953, 1428 113.824 C 1444.514 124.896, 1455.803 134.553, 1466.805 147.018 C 1498.128 182.506, 1513.562 225.138, 1510.012 266.362 C 1507.023 301.065, 1494.482 327.208, 1469.497 350.814 C 1456.969 362.651, 1442.524 372.303, 1423.510 381.545 C 1404.659 390.708, 1392.661 395.144, 1373.565 400.011 C 1329.271 411.301, 1285.353 411.436, 1246.875 400.402 C 1237.293 397.654, 1233.483 398.227, 1232.391 402.578 C 1231.474 406.233, 1233.687 408.818, 1240.789 412.386 C 1257.594 420.831, 1276.968 424.882, 1304.504 425.708 C 1348.665 427.034, 1391.709 417.812, 1431.500 398.500 C 1461.896 383.747, 1486.612 364.111, 1502.261 342.281 C 1549.075 276.979, 1535.086 184.378, 1468.917 121.560 C 1451.595 105.116, 1430.411 90.890, 1404.830 78.525 C 1359.613 56.669, 1300.786 44.989, 1236 45.005 C 1164.065 45.023, 1102.962 60.064, 1005.500 101.744 C 972.084 116.035, 955.852 121.809, 933.500 127.357 C 872.557 142.482, 810.091 134.675, 757.783 105.393 C 740.854 95.917, 704.584 70.687, 703.381 67.550 C 703.137 66.916, 705.051 61.695, 707.632 55.948 C 711.853 46.555, 712.372 44.586, 712.774 36.443 C 713.160 28.643, 712.909 26.660, 710.971 22.155 C 708.321 15.994, 701.847 9.870, 696.193 8.176 C 690.457 6.457, 682.109 6.766, 677.500 8.867 M 685.500 30.977 C 682.503 32.156, 680.358 34.941, 677.541 41.312 C 674.327 48.578, 674.355 49.188, 678 51.341 C 681.560 53.444, 681.870 56.490, 679.137 62.500 C 676.375 68.571, 674.847 69.454, 671.570 66.876 C 670.046 65.678, 668.497 65.128, 668.035 65.621 C 666.533 67.225, 661.878 84.126, 662.192 86.835 C 662.433 88.920, 663.111 89.570, 665.310 89.822 C 666.856 89.999, 668.811 89.572, 669.654 88.872 C 672.171 86.784, 684.603 61.058, 688.484 49.908 C 690.621 43.769, 691.972 38.149, 691.797 36.133 C 691.451 32.160, 688.543 29.780, 685.500 30.977 M 611.881 52.008 C 587.941 55.788, 570.619 69.685, 564.612 89.932 C 560.133 105.025, 564.771 122.283, 578.035 139.886 C 585.109 149.273, 609.943 173.457, 611.209 172.191 C 611.688 171.712, 620.562 145.711, 630.930 114.410 C 647.320 64.930, 649.584 57.344, 648.272 56.303 C 644.120 53.010, 622.043 50.404, 611.881 52.008 M 614.707 245.908 C 607.168 262.503, 601 276.513, 601 277.041 C 601 278.413, 601.836 278.277, 609.575 275.644 C 625.221 270.321, 635.017 263.036, 639.010 253.754 C 643.355 243.656, 640.237 229.895, 631.135 218.992 L 628.415 215.734 614.707 245.908 M 492.968 283.018 C 479.348 284.058, 470.885 285.571, 450.701 290.574 C 384.455 306.995, 295.293 336.676, 273.051 349.710 C 266.836 353.352, 259.202 360.684, 256.876 365.244 C 255.811 367.330, 254.515 372.291, 253.994 376.268 C 252.595 386.955, 251.707 510.116, 252.740 550 C 253.551 581.289, 253.822 584.919, 255.650 589 C 259.665 597.961, 266.657 602.065, 302.500 616.499 C 306.900 618.270, 323.775 625.238, 340 631.981 C 366.685 643.072, 395.267 654.878, 434.500 671.014 C 455.013 679.451, 468.794 685.214, 504.500 700.289 C 522.100 707.720, 549.100 718.989, 564.500 725.332 C 579.900 731.674, 599.925 740.001, 609 743.836 C 618.075 747.671, 637.425 755.850, 652 762.013 C 666.575 768.176, 685.250 776.043, 693.500 779.495 C 701.750 782.947, 722.009 791.643, 738.521 798.820 C 771.392 813.108, 781.312 816.033, 796.657 815.965 C 814.386 815.886, 813.469 816.176, 921.500 776.481 C 937.450 770.620, 953.425 764.799, 957 763.546 C 979.839 755.540, 1038.589 733.207, 1044 730.474 C 1060.216 722.284, 1062.105 715.080, 1066.535 644.500 C 1069.658 594.739, 1069.965 513.293, 1067.095 496 C 1064.173 478.398, 1059.622 470.709, 1049 465.430 C 1037.233 459.582, 947.914 426.996, 855.500 394.836 C 830.200 386.032, 794.200 373.503, 775.500 366.995 C 756.800 360.487, 724.850 349.228, 704.500 341.975 C 642.158 319.756, 589.884 301.782, 589.301 302.366 C 589.080 302.587, 585.390 310.807, 581.100 320.633 C 562.226 363.870, 554.972 379.205, 551.717 382.750 C 548.869 385.853, 544.516 385.717, 542.382 382.460 C 540.812 380.065, 540.847 379.427, 542.998 371.210 C 544.251 366.420, 549.733 349.056, 555.180 332.625 C 560.626 316.193, 564.832 302.499, 564.526 302.193 C 563.779 301.446, 549.158 305.675, 540.685 309.089 C 519.987 317.428, 504.562 333.127, 497.659 352.882 C 495.133 360.112, 494.579 363.432, 494.219 373.500 C 493.434 395.480, 499.408 411.625, 514.250 427.633 C 518.513 432.230, 521.993 436.331, 521.985 436.746 C 521.941 438.920, 520.035 440.226, 517.744 439.651 C 509.910 437.684, 496.104 424.906, 488.761 412.825 C 473.460 387.652, 474.955 353.618, 492.530 327 C 503.142 310.928, 519.976 298.954, 541.877 291.900 C 545.797 290.638, 548.643 289.243, 548.202 288.802 C 546.589 287.189, 528.281 283.872, 516.051 282.977 C 509.148 282.472, 503.275 282.111, 503 282.175 C 502.725 282.239, 498.210 282.618, 492.968 283.018 M 297.851 371.097 C 296.394 371.648, 294.665 373.394, 294.010 374.975 C 292.369 378.938, 294.340 382.785, 299.500 385.689 C 306.772 389.782, 337.476 402.463, 427 438.348 C 532.265 480.542, 575.260 498.014, 636.500 523.480 C 640.900 525.310, 650.125 529.148, 657 532.009 C 663.875 534.871, 692.900 547.229, 721.500 559.473 C 750.100 571.717, 774.263 581.996, 775.195 582.315 C 776.163 582.646, 777.102 584.312, 777.385 586.197 C 777.657 588.014, 778.382 634.725, 778.997 690 C 779.612 745.275, 780.377 792.300, 780.696 794.500 C 781.866 802.539, 785.052 805.719, 791.048 804.833 C 792.286 804.650, 794.236 803.241, 795.380 801.703 C 797.276 799.154, 797.526 796.975, 798.192 777.203 C 798.593 765.266, 798.914 717.025, 798.903 670 C 798.893 622.975, 798.911 583.988, 798.942 583.362 C 798.974 582.737, 802.487 580.843, 806.750 579.153 C 823.993 572.319, 855.494 560.508, 891 547.565 C 911.625 540.046, 930.750 533.024, 933.500 531.960 C 936.250 530.895, 945.025 527.714, 953 524.890 C 1014.909 502.965, 1036.268 494.311, 1039.356 489.902 C 1041.525 486.805, 1041.434 483.757, 1039.085 480.861 C 1036.293 477.418, 1029.220 477.902, 1015 482.509 C 980.494 493.688, 836.596 545.058, 801 558.905 C 795.225 561.151, 789.316 562.991, 787.869 562.994 C 784.969 563.001, 777.903 560.464, 762 553.708 C 687.323 521.984, 672.419 515.724, 636.500 500.994 C 622.750 495.355, 607.900 489.260, 603.500 487.448 C 517.962 452.235, 390.073 401.217, 348 385.523 C 310.691 371.606, 302.631 369.288, 297.851 371.097 M 190.482 492.096 C 152.288 504.935, 116.509 517.703, 93.500 526.703 C 57.959 540.606, 44.895 550.176, 36.244 568.642 C 33.889 573.669, 33.500 575.776, 33.500 583.500 C 33.500 591.653, 33.776 592.970, 36.435 597.500 C 46.079 613.930, 63.849 625.197, 116.500 648.265 C 141.371 659.162, 249.217 705.434, 289.500 722.492 C 302.150 727.849, 319.025 735.067, 327 738.532 C 334.975 741.998, 352.300 749.410, 365.500 755.004 C 378.700 760.598, 396.025 768.034, 404 771.527 C 418.577 777.913, 435.032 785.022, 466.500 798.528 C 475.850 802.541, 492.500 809.730, 503.500 814.504 C 514.500 819.277, 529.800 825.887, 537.500 829.191 C 545.200 832.496, 564.325 840.733, 580 847.495 C 595.675 854.257, 625.150 866.863, 645.500 875.508 C 665.850 884.152, 691.950 895.273, 703.500 900.221 C 761.568 925.094, 786.717 931.495, 826 931.401 C 860.400 931.319, 879.493 925.900, 956 894.506 C 966.175 890.331, 990.700 880.359, 1010.500 872.345 C 1099.424 836.355, 1215.301 785.954, 1245 770.349 C 1277.747 753.142, 1293.906 735.994, 1294.842 717.458 C 1295.314 708.110, 1292.668 701.685, 1285.805 695.514 C 1278.960 689.361, 1254.533 677.176, 1219 662.192 C 1166.200 639.925, 1094.746 611, 1092.543 611 C 1092.030 611, 1091.042 626.269, 1090.831 637.437 L 1090.624 648.375 1103.562 653.716 C 1125.831 662.910, 1150.950 673.974, 1165.500 680.997 C 1189.504 692.583, 1201.507 702.143, 1207.560 714.500 C 1210.068 719.619, 1210.500 721.675, 1210.500 728.500 C 1210.500 738.361, 1207.995 744.138, 1200.527 751.500 C 1191.408 760.489, 1176.259 767.868, 1125 788.292 C 999.558 838.271, 902.017 873.224, 858.041 883.953 C 824.808 892.061, 794.169 892.688, 762.500 885.909 C 735.078 880.039, 685.598 861.272, 598 823.516 C 594.975 822.212, 585.525 818.236, 577 814.679 C 531.955 795.886, 505.666 784.846, 498.500 781.714 C 494.100 779.791, 481.725 774.514, 471 769.987 C 460.275 765.461, 436.425 755.330, 418 747.473 C 399.575 739.617, 372.575 728.139, 358 721.966 C 283.717 690.506, 206.325 656.878, 162.500 637.017 C 131.633 623.029, 122.388 617.656, 115.274 609.574 C 100.415 592.693, 110.012 569.367, 137.611 555.281 C 146.835 550.574, 206.272 526.952, 221.161 522.077 L 227.822 519.896 228.161 504.231 C 228.523 487.482, 228.205 480, 227.132 480 C 226.765 480, 210.272 485.443, 190.482 492.096 M 209 549.595 C 180.728 560.058, 161.191 567.872, 150.461 573.009 C 134.989 580.416, 127.390 588.353, 129.478 594.930 C 131.347 600.818, 156.767 613.062, 261.500 658.520 C 313.306 681.006, 366.293 703.610, 442 735.521 C 464.397 744.962, 483.666 753.122, 566 788.033 C 576.175 792.347, 597.550 801.354, 613.500 808.047 C 629.450 814.741, 652.625 824.480, 665 829.688 C 735.366 859.306, 761.405 867.451, 794 870.041 C 826.488 872.623, 850.263 867.629, 922 843.153 C 996.972 817.573, 1131.393 765.604, 1169.052 747.640 C 1185.429 739.827, 1191.003 734.161, 1189.611 726.740 C 1188.323 719.874, 1178.668 711.814, 1161.367 703.163 C 1140.434 692.694, 1090.428 671.239, 1089.388 672.279 C 1089.152 672.515, 1088.279 680.086, 1087.447 689.104 C 1083.457 732.348, 1074.849 744.653, 1039 758.357 C 1033.775 760.354, 1014.200 767.619, 995.500 774.501 C 976.800 781.383, 958.575 788.116, 955 789.462 C 938.286 795.757, 874.063 819.096, 852.954 826.546 C 822.289 837.369, 816.887 838.502, 796 838.493 C 771.307 838.482, 768.087 837.570, 720 816.984 C 689.751 804.035, 669.777 795.607, 627 777.745 C 612.425 771.658, 596 764.794, 590.500 762.490 C 585 760.186, 557.550 748.742, 529.500 737.060 C 456.298 706.572, 401.043 683.451, 389.500 678.479 C 380.605 674.647, 326.753 652.304, 279.500 632.841 C 256.761 623.474, 251.598 620.630, 244.379 613.494 C 232.493 601.744, 229.964 593.505, 229.264 564.250 C 228.908 549.397, 228.415 543.018, 227.627 543.060 C 227.007 543.092, 218.625 546.034, 209 549.595 M 96 666.808 C 96 669.792, 107.933 692.476, 113.091 699.298 C 122.833 712.182, 132.588 718.528, 166.727 734.186 C 217.964 757.686, 332.959 808.889, 377.500 828.035 C 383.550 830.635, 398.400 837.135, 410.500 842.479 C 422.600 847.823, 438.125 854.579, 445 857.492 C 451.875 860.405, 466.050 866.497, 476.500 871.029 C 486.950 875.561, 499.550 880.970, 504.500 883.049 C 509.450 885.128, 519.800 889.507, 527.500 892.780 C 630.196 936.435, 689.197 960.941, 707 967.335 C 736.385 977.887, 772.293 987.196, 794 989.889 C 846.928 996.455, 877.227 991.534, 944 965.525 C 1031.549 931.423, 1165.375 871.799, 1186.673 857.405 C 1195.709 851.298, 1207.061 840.091, 1212.599 831.810 C 1217.288 824.800, 1225.448 808.115, 1224.602 807.269 C 1224.331 806.998, 1213.623 811.519, 1200.805 817.316 C 1131.224 848.784, 1094.998 864.083, 992 905.497 C 916.150 935.995, 896.644 943.141, 873.489 948.914 C 830.200 959.707, 783.165 955.966, 733.500 937.779 C 723.562 934.140, 644.049 900.927, 606.500 884.730 C 598.250 881.172, 581.150 873.873, 568.500 868.510 C 555.850 863.148, 540.325 856.518, 534 853.777 C 489.809 834.629, 367.224 781.801, 357 777.500 C 344.690 772.321, 229.231 722.627, 199 709.495 C 190.475 705.792, 179.450 701.074, 174.500 699.009 C 169.550 696.945, 149.863 688.497, 130.750 680.235 C 104.572 668.920, 96 665.608, 96 666.808" stroke="none" fill="#080707" fill-rule="evenodd"/></svg>