<svg xmlns="http://www.w3.org/2000/svg" xmlns:xlink="http://www.w3.org/1999/xlink" width="2000" zoomAndPan="magnify" viewBox="0 0 1500 1499.999933" height="2000" preserveAspectRatio="xMidYMid meet" version="1.0"><defs><g/><clipPath id="b948b15a32"><path d="M 1.105469 1.105469 L 1472.894531 1.105469 L 1472.894531 1472.894531 L 1.105469 1472.894531 Z M 1.105469 1.105469 " clip-rule="nonzero"/></clipPath><clipPath id="e5325d7cd3"><path d="M 204.914062 683.375 L 879.480469 683.375 L 879.480469 1079.9375 L 204.914062 1079.9375 Z M 204.914062 683.375 " clip-rule="nonzero"/></clipPath><clipPath id="8bd600f2a7"><path d="M 94 0.375 L 667 0.375 L 667 305 L 94 305 Z M 94 0.375 " clip-rule="nonzero"/></clipPath><clipPath id="72e3e0d2f2"><path d="M 0.914062 111 L 675.316406 111 L 675.316406 396.9375 L 0.914062 396.9375 Z M 0.914062 111 " clip-rule="nonzero"/></clipPath><clipPath id="aacb7d73bd"><rect x="0" width="676" y="0" height="397"/></clipPath><clipPath id="8820a0b73b"><path d="M 439 694 L 488 694 L 488 779.910156 L 439 779.910156 Z M 439 694 " clip-rule="nonzero"/></clipPath><clipPath id="62ab0453ea"><path d="M 471 531.34375 L 567 531.34375 L 567 748 L 471 748 Z M 471 531.34375 " clip-rule="nonzero"/></clipPath><clipPath id="d00ef4309d"><path d="M 558 552 L 1043.113281 552 L 1043.113281 765 L 558 765 Z M 558 552 " clip-rule="nonzero"/></clipPath><clipPath id="e2bdc592c1"><rect x="0" width="940" y="0" height="847"/></clipPath><clipPath id="5082918fb5"><rect x="0" width="1482" y="0" height="1482"/></clipPath></defs><g transform="matrix(1, 0, 0, 1, 13, 13)"><g clip-path="url(#5082918fb5)"><g clip-path="url(#b948b15a32)"><path fill="#f7e996" d="M 1472.894531 737 C 1472.894531 749.042969 1472.597656 761.078125 1472.007812 773.109375 C 1471.414062 785.136719 1470.53125 797.144531 1469.347656 809.128906 C 1468.167969 821.117188 1466.695312 833.066406 1464.925781 844.976562 C 1463.160156 856.890625 1461.101562 868.753906 1458.753906 880.566406 C 1456.402344 892.378906 1453.765625 904.125 1450.839844 915.808594 C 1447.914062 927.488281 1444.703125 939.09375 1441.207031 950.617188 C 1437.710938 962.144531 1433.933594 973.574219 1429.875 984.914062 C 1425.816406 996.253906 1421.484375 1007.488281 1416.875 1018.613281 C 1412.265625 1029.742188 1407.386719 1040.746094 1402.238281 1051.632812 C 1397.089844 1062.523438 1391.675781 1073.277344 1386 1083.898438 C 1380.320312 1094.519531 1374.386719 1104.996094 1368.195312 1115.324219 C 1362.003906 1125.652344 1355.5625 1135.824219 1348.871094 1145.839844 C 1342.179688 1155.855469 1335.25 1165.695312 1328.074219 1175.371094 C 1320.898438 1185.042969 1313.492188 1194.535156 1305.851562 1203.84375 C 1298.210938 1213.15625 1290.347656 1222.273438 1282.261719 1231.195312 C 1274.171875 1240.117188 1265.871094 1248.839844 1257.355469 1257.355469 C 1248.839844 1265.871094 1240.117188 1274.171875 1231.195312 1282.261719 C 1222.273438 1290.347656 1213.15625 1298.210938 1203.84375 1305.851562 C 1194.535156 1313.492188 1185.042969 1320.898438 1175.371094 1328.074219 C 1165.695312 1335.25 1155.855469 1342.179688 1145.839844 1348.871094 C 1135.824219 1355.5625 1125.65625 1362.003906 1115.324219 1368.195312 C 1104.996094 1374.386719 1094.519531 1380.320312 1083.898438 1386 C 1073.277344 1391.675781 1062.523438 1397.089844 1051.632812 1402.238281 C 1040.746094 1407.386719 1029.742188 1412.265625 1018.613281 1416.875 C 1007.488281 1421.484375 996.253906 1425.816406 984.914062 1429.875 C 973.574219 1433.933594 962.144531 1437.710938 950.617188 1441.207031 C 939.09375 1444.703125 927.488281 1447.914062 915.808594 1450.839844 C 904.125 1453.765625 892.378906 1456.402344 880.566406 1458.753906 C 868.753906 1461.101562 856.890625 1463.160156 844.976562 1464.925781 C 833.066406 1466.695312 821.117188 1468.167969 809.128906 1469.347656 C 797.144531 1470.53125 785.136719 1471.414062 773.109375 1472.007812 C 761.078125 1472.597656 749.042969 1472.894531 737 1472.894531 C 724.957031 1472.894531 712.921875 1472.597656 700.890625 1472.007812 C 688.863281 1471.414062 676.855469 1470.53125 664.871094 1469.347656 C 652.882812 1468.167969 640.933594 1466.695312 629.023438 1464.925781 C 617.109375 1463.160156 605.246094 1461.101562 593.433594 1458.753906 C 581.621094 1456.402344 569.875 1453.765625 558.191406 1450.839844 C 546.511719 1447.914062 534.90625 1444.703125 523.382812 1441.207031 C 511.855469 1437.710938 500.425781 1433.933594 489.085938 1429.875 C 477.746094 1425.816406 466.511719 1421.484375 455.386719 1416.875 C 444.257812 1412.265625 433.253906 1407.386719 422.367188 1402.238281 C 411.476562 1397.089844 400.722656 1391.675781 390.101562 1386 C 379.480469 1380.320312 369.003906 1374.386719 358.675781 1368.195312 C 348.34375 1362.003906 338.171875 1355.5625 328.160156 1348.871094 C 318.144531 1342.179688 308.300781 1335.25 298.628906 1328.074219 C 288.957031 1320.898438 279.464844 1313.492188 270.15625 1305.851562 C 260.84375 1298.210938 251.726562 1290.347656 242.804688 1282.261719 C 233.882812 1274.171875 225.160156 1265.871094 216.644531 1257.355469 C 208.128906 1248.839844 199.828125 1240.117188 191.738281 1231.195312 C 183.652344 1222.273438 175.789062 1213.15625 168.148438 1203.84375 C 160.507812 1194.535156 153.101562 1185.042969 145.925781 1175.371094 C 138.75 1165.695312 131.820312 1155.855469 125.128906 1145.839844 C 118.4375 1135.824219 111.996094 1125.652344 105.804688 1115.324219 C 99.613281 1104.996094 93.675781 1094.519531 88 1083.898438 C 82.324219 1073.277344 76.910156 1062.523438 71.761719 1051.632812 C 66.613281 1040.746094 61.734375 1029.742188 57.125 1018.613281 C 52.515625 1007.488281 48.183594 996.253906 44.125 984.914062 C 40.066406 973.574219 36.289062 962.144531 32.792969 950.617188 C 29.296875 939.09375 26.085938 927.488281 23.160156 915.808594 C 20.234375 904.125 17.597656 892.378906 15.246094 880.566406 C 12.898438 868.753906 10.839844 856.890625 9.070312 844.976562 C 7.304688 833.066406 5.832031 821.117188 4.652344 809.128906 C 3.46875 797.144531 2.585938 785.136719 1.992188 773.109375 C 1.402344 761.078125 1.105469 749.042969 1.105469 737 C 1.105469 724.957031 1.402344 712.921875 1.992188 700.890625 C 2.585938 688.863281 3.46875 676.855469 4.652344 664.871094 C 5.832031 652.882812 7.304688 640.933594 9.070312 629.023438 C 10.839844 617.109375 12.898438 605.246094 15.246094 593.433594 C 17.597656 581.621094 20.234375 569.875 23.160156 558.191406 C 26.085938 546.511719 29.296875 534.90625 32.792969 523.382812 C 36.289062 511.855469 40.066406 500.425781 44.125 489.085938 C 48.183594 477.746094 52.515625 466.511719 57.125 455.386719 C 61.734375 444.257812 66.613281 433.253906 71.761719 422.363281 C 76.910156 411.476562 82.324219 400.722656 88 390.101562 C 93.675781 379.480469 99.613281 369.003906 105.804688 358.675781 C 111.996094 348.34375 118.4375 338.171875 125.128906 328.160156 C 131.820312 318.144531 138.75 308.300781 145.925781 298.628906 C 153.101562 288.957031 160.507812 279.464844 168.148438 270.15625 C 175.789062 260.84375 183.652344 251.726562 191.738281 242.804688 C 199.828125 233.882812 208.128906 225.160156 216.644531 216.644531 C 225.160156 208.128906 233.882812 199.828125 242.804688 191.738281 C 251.726562 183.652344 260.84375 175.789062 270.15625 168.148438 C 279.464844 160.507812 288.957031 153.097656 298.628906 145.925781 C 308.300781 138.75 318.144531 131.820312 328.160156 125.128906 C 338.171875 118.4375 348.34375 111.996094 358.675781 105.804688 C 369.003906 99.613281 379.480469 93.675781 390.101562 88 C 400.722656 82.324219 411.476562 76.910156 422.367188 71.761719 C 433.253906 66.613281 444.257812 61.734375 455.386719 57.125 C 466.511719 52.515625 477.746094 48.183594 489.085938 44.125 C 500.425781 40.066406 511.855469 36.289062 523.382812 32.792969 C 534.90625 29.296875 546.511719 26.085938 558.191406 23.160156 C 569.875 20.234375 581.621094 17.597656 593.433594 15.246094 C 605.246094 12.898438 617.109375 10.839844 629.023438 9.070312 C 640.933594 7.304688 652.882812 5.832031 664.871094 4.652344 C 676.855469 3.46875 688.863281 2.585938 700.890625 1.992188 C 712.921875 1.402344 724.957031 1.105469 737 1.105469 C 749.042969 1.105469 761.078125 1.402344 773.109375 1.992188 C 785.136719 2.585938 797.144531 3.46875 809.128906 4.652344 C 821.117188 5.832031 833.066406 7.304688 844.976562 9.070312 C 856.890625 10.839844 868.753906 12.898438 880.566406 15.246094 C 892.378906 17.597656 904.125 20.234375 915.808594 23.160156 C 927.488281 26.085938 939.09375 29.296875 950.617188 32.792969 C 962.144531 36.289062 973.574219 40.066406 984.914062 44.125 C 996.253906 48.183594 1007.488281 52.515625 1018.613281 57.125 C 1029.742188 61.734375 1040.746094 66.613281 1051.632812 71.761719 C 1062.523438 76.910156 1073.277344 82.324219 1083.898438 88 C 1094.519531 93.675781 1104.996094 99.613281 1115.324219 105.804688 C 1125.65625 111.996094 1135.824219 118.4375 1145.839844 125.128906 C 1155.855469 131.820312 1165.695312 138.75 1175.371094 145.925781 C 1185.042969 153.097656 1194.535156 160.507812 1203.84375 168.148438 C 1213.15625 175.789062 1222.273438 183.652344 1231.195312 191.738281 C 1240.117188 199.828125 1248.839844 208.128906 1257.355469 216.644531 C 1265.871094 225.160156 1274.171875 233.882812 1282.261719 242.804688 C 1290.347656 251.726562 1298.210938 260.84375 1305.851562 270.15625 C 1313.492188 279.464844 1320.898438 288.957031 1328.074219 298.628906 C 1335.25 308.300781 1342.179688 318.144531 1348.871094 328.160156 C 1355.5625 338.171875 1362.003906 348.34375 1368.195312 358.675781 C 1374.386719 369.003906 1380.320312 379.480469 1386 390.101562 C 1391.675781 400.722656 1397.089844 411.476562 1402.238281 422.363281 C 1407.386719 433.253906 1412.265625 444.257812 1416.875 455.386719 C 1421.484375 466.511719 1425.816406 477.746094 1429.875 489.085938 C 1433.933594 500.425781 1437.710938 511.855469 1441.207031 523.382812 C 1444.703125 534.90625 1447.914062 546.511719 1450.839844 558.191406 C 1453.765625 569.875 1456.402344 581.621094 1458.753906 593.433594 C 1461.101562 605.246094 1463.160156 617.109375 1464.925781 629.023438 C 1466.695312 640.933594 1468.167969 652.882812 1469.347656 664.871094 C 1470.53125 676.855469 1471.414062 688.863281 1472.007812 700.890625 C 1472.597656 712.921875 1472.894531 724.957031 1472.894531 737 Z M 1472.894531 737 " fill-opacity="1" fill-rule="nonzero"/></g><path fill="#635472" d="M 737 1402.703125 C 369.601562 1402.703125 71.296875 1104.398438 71.296875 737 C 71.296875 369.601562 369.601562 71.296875 737 71.296875 C 1104.398438 71.296875 1402.703125 369.601562 1402.703125 737 C 1402.703125 1104.398438 1104.398438 1402.703125 737 1402.703125 Z M 737 87.746094 C 378.375 87.746094 87.746094 378.375 87.746094 737 C 87.746094 1095.625 379.472656 1386.253906 737 1386.253906 C 1095.625 1386.253906 1386.253906 1094.527344 1386.253906 737 C 1386.253906 378.375 1095.625 87.746094 737 87.746094 Z M 737 87.746094 " fill-opacity="1" fill-rule="nonzero"/><g clip-path="url(#e5325d7cd3)"><g transform="matrix(1, 0, 0, 1, 204, 683)"><g clip-path="url(#aacb7d73bd)"><g clip-path="url(#8bd600f2a7)"><path fill="#8d593e" d="M 94.882812 111.378906 L 100.460938 120.488281 L 108.640625 118.054688 C 109.554688 117.796875 110.503906 118.3125 110.757812 119.203125 C 110.800781 119.351562 110.824219 119.5 110.824219 119.652344 L 111.324219 161.210938 C 110.792969 174.980469 117.101562 184.847656 130.246094 190.808594 C 205.34375 224.835938 286.394531 259.121094 373.402344 293.65625 C 393.582031 301.675781 411.996094 307.890625 429.871094 302.011719 C 465.53125 290.230469 501.117188 276.433594 536.636719 260.621094 C 553.039062 253.355469 561.601562 243.953125 562.101562 226.449219 C 562.214844 222.25 562.441406 218.191406 562.773438 214.273438 L 562.1875 194.503906 C 562.171875 193.597656 562.894531 192.855469 563.800781 192.839844 C 564.007812 192.835938 564.21875 192.871094 564.414062 192.945312 C 596.96875 205.148438 627.929688 219.144531 657.292969 234.925781 C 661.292969 235.179688 664.203125 233.191406 666.019531 228.964844 C 635.5625 209.542969 602.125 194.316406 565.710938 183.289062 C 564.199219 182.855469 563.214844 181.394531 563.359375 179.808594 C 565.402344 159.460938 564.9375 139.84375 561.976562 120.953125 C 559.167969 103.277344 538.191406 95.21875 521.324219 88.878906 C 446.59375 60.78125 369.765625 33.464844 290.839844 6.933594 C 267.035156 -1.042969 241.570312 -1.53125 214.445312 5.464844 C 184.292969 13.277344 156.996094 22.339844 132.550781 32.667969 C 118.621094 38.542969 111.476562 49.949219 111.113281 66.882812 C 110.75 84.457031 110.820312 96.992188 111.320312 104.496094 C 111.394531 105.824219 110.542969 107.023438 109.265625 107.390625 Z M 545.996094 246.679688 L 417.957031 296.089844 C 404.40625 299.617188 389.976562 288.324219 380.328125 284.503906 C 282.664062 245.605469 202.867188 212.0625 140.945312 183.878906 C 136.105469 181.667969 131.6875 179.46875 127.6875 177.285156 C 124.890625 175.769531 123.054688 172.910156 122.820312 169.6875 C 120.246094 131.542969 119.964844 93.988281 121.980469 57.015625 C 122.117188 54.664062 123.265625 52.386719 125.421875 50.175781 C 131.796875 44.4375 138.957031 40.226562 146.898438 37.539062 C 181.558594 25.835938 210.269531 17.46875 233.03125 12.433594 C 250.511719 8.570312 267.363281 9.425781 283.582031 14.992188 C 343.328125 35.449219 424.617188 64.359375 527.453125 101.722656 C 536.878906 105.136719 543.117188 107.878906 546.164062 109.949219 C 547.527344 110.882812 548.59375 112.195312 549.226562 113.726562 C 551.824219 120.246094 553.292969 126.851562 553.628906 133.542969 C 555.648438 172.613281 553.101562 210.324219 545.996094 246.679688 Z M 545.996094 246.679688 " fill-opacity="1" fill-rule="nonzero"/></g><path fill="#feebb7" d="M 125.425781 50.171875 C 130.683594 54.203125 137.394531 56.847656 145.558594 58.105469 L 334.261719 131.488281 C 354.957031 139.015625 371.878906 145.785156 385.023438 151.804688 C 388.9375 153.597656 392.839844 156.578125 396.726562 160.746094 C 397.660156 161.734375 398.976562 162.269531 400.335938 162.214844 C 407.1875 161.847656 411.84375 160.882812 414.304688 159.316406 C 418.835938 156.460938 422.34375 154.9375 424.835938 154.742188 C 425.675781 153.257812 426.554688 152.335938 427.480469 151.96875 C 459.699219 139.320312 494.183594 127.914062 530.933594 117.757812 C 531.972656 117.476562 533.050781 118.042969 533.410156 119.058594 L 533.746094 120.070312 C 533.914062 120.589844 533.636719 121.148438 533.117188 121.328125 L 504.628906 131.863281 C 523.257812 142.109375 536.722656 149.285156 537.351562 173.046875 C 538.023438 197.144531 540.902344 221.6875 545.992188 246.679688 C 553.097656 210.324219 555.644531 172.613281 553.628906 133.546875 C 553.292969 126.855469 551.824219 120.25 549.226562 113.730469 C 548.59375 112.195312 547.527344 110.882812 546.164062 109.953125 C 543.113281 107.882812 536.878906 105.140625 527.453125 101.726562 C 424.617188 64.363281 343.324219 35.453125 283.582031 14.992188 C 267.359375 9.425781 250.507812 8.570312 233.03125 12.433594 C 210.265625 17.46875 181.554688 25.835938 146.902344 37.535156 C 138.960938 40.222656 131.800781 44.433594 125.425781 50.171875 Z M 125.425781 50.171875 " fill-opacity="1" fill-rule="nonzero"/><path fill="#fdd878" d="M 417.957031 296.089844 C 415.75 293.570312 413.707031 291.820312 411.832031 290.839844 C 406.378906 259.691406 404.8125 228.429688 407.132812 197.058594 C 377.304688 174.472656 353.601562 162.886719 324.992188 147.019531 C 295.570312 130.671875 264.679688 117.957031 232.320312 108.859375 C 223.679688 106.398438 217.089844 100.519531 212.5625 91.230469 C 195.277344 84.175781 177.921875 77.125 160.5 70.070312 C 152.722656 66.910156 147.746094 62.917969 145.5625 58.105469 C 137.398438 56.847656 130.6875 54.203125 125.425781 50.171875 C 123.273438 52.382812 122.125 54.664062 121.988281 57.011719 C 119.972656 93.984375 120.253906 131.539062 122.828125 169.6875 C 123.0625 172.90625 124.898438 175.769531 127.695312 177.28125 C 131.695312 179.464844 136.113281 181.664062 140.953125 183.875 C 202.875 212.054688 282.667969 245.597656 380.332031 284.5 C 389.976562 288.320312 404.410156 299.613281 417.957031 296.089844 Z M 417.957031 296.089844 " fill-opacity="1" fill-rule="nonzero"/><path fill="#e69b58" d="M 145.5625 58.105469 C 147.746094 62.917969 152.722656 66.910156 160.5 70.070312 C 177.921875 77.125 195.277344 84.175781 212.5625 91.230469 L 332.710938 137.492188 C 333.855469 137.9375 335.144531 137.367188 335.589844 136.222656 C 335.796875 135.683594 335.789062 135.085938 335.566406 134.554688 L 334.261719 131.488281 Z M 145.5625 58.105469 " fill-opacity="1" fill-rule="nonzero"/><path fill="#f9d393" d="M 212.5625 91.230469 C 217.089844 100.519531 223.679688 106.398438 232.320312 108.859375 C 264.679688 117.957031 295.570312 130.675781 324.992188 147.019531 C 353.601562 162.886719 377.308594 174.476562 407.132812 197.058594 C 406.488281 190.230469 406.980469 183.1875 408.601562 175.941406 C 408.671875 175.269531 409.273438 174.78125 409.945312 174.851562 C 410.613281 174.921875 411.105469 175.523438 411.03125 176.195312 L 411.828125 290.84375 C 413.703125 291.820312 415.746094 293.570312 417.953125 296.089844 L 545.992188 246.679688 C 540.902344 221.6875 538.023438 197.144531 537.351562 173.046875 C 536.722656 149.285156 523.257812 142.109375 504.628906 131.863281 C 479.933594 140.960938 454.664062 148.8125 428.820312 155.414062 C 427.335938 155.808594 426.011719 155.585938 424.835938 154.746094 C 422.34375 154.941406 418.835938 156.464844 414.304688 159.320312 C 411.84375 160.886719 407.1875 161.851562 400.335938 162.214844 C 398.976562 162.269531 397.660156 161.738281 396.726562 160.75 C 392.835938 156.578125 388.9375 153.597656 385.019531 151.808594 C 371.878906 145.789062 354.957031 139.015625 334.261719 131.488281 L 335.5625 134.554688 C 336.039062 135.683594 335.507812 136.992188 334.378906 137.472656 C 333.84375 137.695312 333.25 137.703125 332.710938 137.496094 Z M 212.5625 91.230469 " fill-opacity="1" fill-rule="nonzero"/><g clip-path="url(#72e3e0d2f2)"><path fill="#76564d" d="M 666.023438 228.964844 C 664.207031 233.191406 661.296875 235.179688 657.296875 234.925781 C 674.160156 250.25 662.582031 263.347656 647.3125 272.957031 C 631.652344 282.8125 615.152344 291.066406 597.8125 297.726562 C 544.953125 318.046875 510.242188 331.578125 493.683594 338.324219 C 460.332031 351.925781 431.429688 363.386719 395.851562 350.835938 C 371.476562 342.273438 346.558594 333.121094 320.839844 321.910156 C 241.128906 287.09375 163.796875 253.902344 88.84375 222.332031 C 83.25 219.953125 75.65625 216.398438 66.0625 211.671875 C 50.539062 203.988281 32.289062 196.851562 18.195312 184.214844 C 1.957031 169.6875 17.859375 152.1875 31.910156 145.886719 C 50.652344 137.464844 73.503906 129 100.460938 120.492188 L 94.882812 111.382812 C 79.582031 115.523438 57.65625 123.738281 29.101562 136.023438 C 15.507812 141.84375 6.921875 149.332031 3.34375 158.480469 C -5.96875 182.070312 11.484375 194.625 28.640625 205.667969 C 30.25 206.703125 31.46875 208.222656 32.121094 209.992188 C 37.074219 223.507812 39.296875 230.394531 50.832031 243.785156 C 54.632812 248.179688 66.046875 254.953125 85.066406 264.101562 C 160.410156 300.316406 247.515625 337.707031 346.386719 376.273438 C 366.382812 384.082031 386.453125 390.226562 406.585938 394.699219 C 438.21875 401.796875 475.722656 389.160156 508.445312 376.105469 C 553.449219 358.136719 585.34375 344.730469 604.140625 335.886719 C 623.246094 326.902344 635.632812 312.296875 641.308594 292.058594 C 641.792969 290.359375 642.90625 288.917969 644.414062 288.027344 C 657.089844 280.554688 672.863281 269.476562 675.125 253.269531 C 676.136719 246.023438 673.097656 237.917969 666.023438 228.964844 Z M 45.796875 214.101562 C 47.726562 214.773438 137.269531 253.339844 314.417969 329.796875 C 326.472656 335.003906 349.53125 343.835938 383.597656 356.289062 C 398.238281 361.664062 415.230469 363.675781 427.648438 365.820312 C 429.035156 366.042969 430.453125 366.042969 431.84375 365.820312 C 446.164062 363.441406 455.785156 361.4375 460.707031 359.816406 C 511.722656 342.96875 562.261719 323.292969 612.324219 300.792969 C 618.085938 298.191406 623.765625 296.164062 629.355469 294.703125 C 630.03125 294.53125 630.714844 294.9375 630.886719 295.613281 C 630.964844 295.914062 630.929688 296.234375 630.785156 296.511719 C 623.625 309.71875 613.261719 319.527344 599.695312 325.9375 C 568.679688 340.660156 537.621094 354.230469 506.519531 366.65625 C 489.28125 373.582031 467.964844 380.511719 453.285156 383.953125 C 415.652344 392.769531 373.703125 377.824219 336.28125 362.25 C 232.882812 319.175781 150.976562 283.582031 90.566406 255.453125 C 68.457031 245.167969 55.15625 238.996094 44.335938 215.699219 C 44.0625 215.105469 44.324219 214.410156 44.910156 214.136719 C 45.1875 214.011719 45.507812 213.996094 45.796875 214.101562 Z M 45.796875 214.101562 " fill-opacity="1" fill-rule="nonzero"/></g><path fill="#fcfbf6" d="M 100.460938 120.488281 C 73.5 128.996094 50.652344 137.460938 31.910156 145.882812 C 17.855469 152.183594 1.957031 169.6875 18.195312 184.210938 C 32.289062 196.847656 50.539062 203.984375 66.0625 211.667969 C 75.65625 216.394531 83.25 219.953125 88.84375 222.328125 C 163.796875 253.898438 241.128906 287.089844 320.839844 321.90625 C 346.558594 333.117188 371.476562 342.269531 395.851562 350.832031 C 431.429688 363.382812 460.332031 351.921875 493.683594 338.320312 C 510.242188 331.578125 544.953125 318.042969 597.8125 297.726562 C 615.152344 291.0625 631.652344 282.808594 647.3125 272.957031 C 662.585938 263.34375 674.164062 250.246094 657.296875 234.921875 C 627.929688 219.136719 596.972656 205.144531 564.417969 192.941406 C 563.574219 192.617188 562.625 193.039062 562.300781 193.886719 C 562.226562 194.082031 562.191406 194.289062 562.195312 194.5 L 562.78125 214.269531 C 579.730469 219.25 595.753906 226.273438 610.855469 235.34375 C 623.316406 242.777344 630.15625 259.441406 613.542969 267.796875 C 586.382812 281.421875 551.03125 295.9375 507.484375 311.328125 C 497.699219 314.800781 486.367188 317.597656 473.503906 319.726562 C 472.21875 319.949219 471.40625 319.753906 471.074219 319.140625 C 470.273438 317.59375 470.917969 315.6875 472.507812 314.882812 C 472.824219 314.726562 473.160156 314.617188 473.503906 314.566406 C 479.9375 313.53125 486.242188 311.867188 492.425781 309.570312 C 517.429688 300.335938 546.671875 289.085938 580.152344 275.820312 C 592.148438 271.0625 603.140625 265.550781 613.125 259.28125 C 613.867188 258.8125 614.097656 257.828125 613.628906 257.082031 C 613.371094 256.667969 612.933594 256.394531 612.453125 256.34375 C 596.847656 254.496094 568.488281 250.886719 558.792969 260.121094 C 530.011719 287.53125 490.074219 300.632812 457.730469 313.265625 C 429.847656 324.183594 401.320312 326.730469 372.148438 320.910156 C 357.578125 316.316406 348.390625 313.253906 344.585938 311.714844 C 300.28125 293.804688 236.054688 266.78125 151.898438 230.652344 C 120.992188 217.386719 96.253906 206.164062 77.683594 196.984375 C 71.558594 193.960938 64.359375 189.34375 56.078125 183.128906 C 52.554688 181.199219 50.707031 177.878906 52.011719 173.894531 C 55.328125 163.441406 60.90625 158.742188 72.398438 155.042969 C 81.039062 152.300781 91.191406 147.363281 102.855469 140.226562 C 105.410156 138.671875 108.738281 139.480469 110.292969 142.039062 C 110.792969 142.855469 111.0625 143.796875 111.078125 144.757812 L 111.332031 161.214844 L 110.828125 119.652344 C 110.828125 118.726562 110.054688 117.984375 109.101562 117.992188 C 108.949219 117.996094 108.796875 118.015625 108.648438 118.058594 Z M 100.460938 120.488281 " fill-opacity="1" fill-rule="nonzero"/><path fill="#d08d51" d="M 424.839844 154.746094 C 426.011719 155.585938 427.339844 155.808594 428.824219 155.414062 C 454.667969 148.8125 479.9375 140.960938 504.632812 131.863281 L 533.121094 121.328125 C 533.636719 121.148438 533.914062 120.589844 533.75 120.070312 L 533.414062 119.058594 C 533.054688 118.042969 531.976562 117.476562 530.9375 117.757812 C 494.1875 127.914062 459.703125 139.320312 427.480469 151.96875 C 426.558594 152.335938 425.679688 153.257812 424.839844 154.746094 Z M 424.839844 154.746094 " fill-opacity="1" fill-rule="nonzero"/><path fill="#d3d0d3" d="M 56.078125 183.121094 L 56.164062 180.558594 C 56.179688 179.746094 56.863281 179.109375 57.699219 179.136719 C 57.921875 179.140625 58.140625 179.199219 58.34375 179.300781 C 93.5 197.238281 122 210.800781 143.84375 219.980469 C 221.117188 252.417969 297.863281 285.582031 374.078125 319.472656 C 374.488281 319.675781 374.675781 320.167969 374.5 320.578125 C 374.390625 320.820312 374.171875 320.988281 373.90625 321.027344 C 373.347656 321.109375 372.761719 321.066406 372.148438 320.902344 C 401.320312 326.722656 429.847656 324.175781 457.730469 313.261719 C 490.074219 300.625 530.011719 287.527344 558.792969 260.113281 C 568.484375 250.878906 596.847656 254.488281 612.453125 256.335938 C 613.324219 256.429688 613.960938 257.222656 613.863281 258.09375 C 613.808594 258.582031 613.535156 259.015625 613.125 259.273438 C 603.140625 265.539062 592.148438 271.054688 580.152344 275.8125 C 546.671875 289.082031 517.433594 300.332031 492.425781 309.566406 C 486.242188 311.859375 479.941406 313.523438 473.503906 314.558594 C 471.742188 314.828125 470.511719 316.441406 470.761719 318.164062 C 470.808594 318.503906 470.914062 318.832031 471.074219 319.136719 C 471.40625 319.75 472.21875 319.945312 473.503906 319.722656 C 486.367188 317.597656 497.699219 314.800781 507.484375 311.328125 C 551.03125 295.933594 586.382812 281.421875 613.542969 267.792969 C 630.15625 259.4375 623.316406 242.773438 610.855469 235.339844 C 595.753906 226.273438 579.730469 219.25 562.78125 214.265625 C 562.441406 218.183594 562.21875 222.242188 562.109375 226.441406 C 561.605469 243.945312 553.046875 253.351562 536.644531 260.613281 C 501.125 276.425781 465.535156 290.222656 429.878906 302.003906 C 412.003906 307.878906 393.589844 301.667969 373.410156 293.652344 C 286.398438 259.113281 205.347656 224.832031 130.253906 190.800781 C 117.109375 184.839844 110.804688 174.972656 111.332031 161.203125 L 111.078125 144.746094 C 111.027344 141.757812 108.5625 139.375 105.574219 139.425781 C 104.613281 139.441406 103.675781 139.710938 102.855469 140.210938 C 91.191406 147.347656 81.039062 152.289062 72.398438 155.03125 C 60.90625 158.726562 55.328125 163.429688 52.011719 173.878906 C 50.707031 177.875 52.554688 181.191406 56.078125 183.121094 Z M 56.078125 183.121094 " fill-opacity="1" fill-rule="nonzero"/><path fill="#d08d51" d="M 407.132812 197.0625 C 404.8125 228.433594 406.378906 259.695312 411.832031 290.84375 L 411.035156 176.195312 C 411.105469 175.523438 410.617188 174.921875 409.945312 174.851562 C 409.277344 174.78125 408.675781 175.269531 408.605469 175.941406 C 406.980469 183.191406 406.492188 190.230469 407.132812 197.0625 Z M 407.132812 197.0625 " fill-opacity="1" fill-rule="nonzero"/><path fill="#94716d" d="M 56.078125 183.121094 C 64.355469 189.335938 71.558594 193.953125 77.683594 196.976562 C 96.253906 206.15625 120.996094 217.378906 151.898438 230.644531 C 236.054688 266.777344 300.28125 293.796875 344.585938 311.707031 C 348.390625 313.246094 357.578125 316.3125 372.148438 320.902344 C 372.761719 321.070312 373.351562 321.109375 373.90625 321.027344 C 374.351562 320.960938 374.636719 320.542969 374.550781 320.09375 C 374.5 319.824219 374.324219 319.59375 374.078125 319.472656 C 297.863281 285.582031 221.117188 252.417969 143.84375 219.980469 C 122 210.800781 93.5 197.242188 58.34375 179.300781 C 57.597656 178.925781 56.695312 179.210938 56.320312 179.933594 C 56.21875 180.128906 56.167969 180.339844 56.164062 180.558594 Z M 56.078125 183.121094 " fill-opacity="1" fill-rule="nonzero"/><path fill="#d3d0d3" d="M 44.332031 215.699219 C 55.152344 238.996094 68.453125 245.167969 90.5625 255.453125 C 150.972656 283.582031 232.878906 319.175781 336.277344 362.25 C 373.699219 377.824219 415.648438 392.769531 453.28125 383.953125 C 467.964844 380.511719 489.277344 373.585938 506.519531 366.65625 C 537.617188 354.230469 568.675781 340.660156 599.691406 325.9375 C 613.257812 319.527344 623.621094 309.71875 630.78125 296.511719 C 631.105469 295.890625 630.863281 295.132812 630.25 294.808594 C 629.972656 294.664062 629.65625 294.625 629.355469 294.703125 C 623.761719 296.160156 618.082031 298.1875 612.320312 300.792969 C 562.257812 323.292969 511.71875 342.96875 460.703125 359.816406 C 455.785156 361.4375 446.160156 363.441406 431.839844 365.820312 C 430.449219 366.042969 429.035156 366.042969 427.644531 365.820312 C 415.226562 363.679688 398.238281 361.664062 383.59375 356.289062 C 349.527344 343.835938 326.46875 335.007812 314.414062 329.796875 C 137.261719 253.339844 47.722656 214.773438 45.792969 214.101562 C 45.183594 213.878906 44.507812 214.195312 44.289062 214.808594 C 44.1875 215.097656 44.203125 215.417969 44.332031 215.699219 Z M 44.332031 215.699219 " fill-opacity="1" fill-rule="nonzero"/></g></g></g><g clip-path="url(#8820a0b73b)"><path fill="#8d593e" d="M 443.292969 723.339844 C 443.53125 722.824219 443.769531 722.269531 444.003906 721.757812 L 444.164062 721.363281 L 444.757812 720.175781 C 445.035156 719.660156 445.269531 719.109375 445.585938 718.59375 C 445.902344 718.082031 446.179688 717.566406 446.496094 717.089844 C 446.65625 716.855469 446.773438 716.578125 446.972656 716.339844 L 447.484375 715.589844 C 447.839844 715.113281 448.15625 714.601562 448.511719 714.085938 C 448.867188 713.613281 449.265625 713.136719 449.621094 712.664062 C 449.816406 712.425781 450.015625 712.1875 450.214844 711.953125 L 450.847656 711.28125 C 452.507812 709.460938 454.363281 707.761719 456.460938 706.296875 C 460.652344 703.371094 465.632812 701.355469 470.972656 700.011719 C 475.953125 698.746094 481.25 697.953125 486.707031 697.125 L 487.578125 694.515625 C 487.578125 694.515625 487.539062 694.515625 487.539062 694.515625 C 481.6875 695.542969 475.914062 696.414062 470.417969 697.914062 C 467.6875 698.667969 465 699.574219 462.46875 700.683594 C 459.941406 701.789062 457.527344 703.175781 455.351562 704.753906 C 453.179688 706.335938 451.242188 708.15625 449.539062 710.09375 L 448.910156 710.84375 C 448.710938 711.082031 448.472656 711.320312 448.316406 711.597656 C 447.917969 712.109375 447.5625 712.625 447.167969 713.136719 C 446.8125 713.652344 446.457031 714.207031 446.140625 714.71875 L 445.625 715.511719 C 445.46875 715.785156 445.308594 716.0625 445.152344 716.300781 C 444.835938 716.855469 444.558594 717.367188 444.242188 717.921875 C 443.964844 718.476562 443.730469 718.988281 443.453125 719.542969 L 443.054688 720.332031 L 442.859375 720.730469 L 442.621094 721.125 C 442.382812 721.679688 442.148438 722.230469 441.949219 722.785156 C 441.121094 725 440.445312 727.214844 439.972656 729.429688 C 439.0625 733.855469 438.867188 738.207031 439.300781 742.277344 C 439.65625 746.3125 440.605469 750.105469 441.832031 753.507812 C 443.097656 756.90625 444.675781 759.914062 446.417969 762.5625 C 448.15625 765.171875 450.054688 767.425781 451.914062 769.324219 C 453.773438 771.222656 455.710938 772.722656 457.449219 773.988281 C 461.007812 776.480469 464.050781 777.863281 466.109375 778.652344 C 467.136719 779.089844 467.964844 779.328125 468.480469 779.523438 C 469.035156 779.722656 469.269531 779.800781 469.269531 779.800781 C 469.269531 779.800781 468.996094 779.722656 468.480469 779.523438 C 467.964844 779.328125 467.136719 779.089844 466.109375 778.613281 C 464.050781 777.746094 461.046875 776.320312 457.605469 773.75 C 455.90625 772.445312 454.046875 770.90625 452.230469 769.007812 C 450.410156 767.109375 448.59375 764.855469 446.972656 762.207031 C 445.308594 759.597656 443.808594 756.589844 442.660156 753.230469 C 441.515625 749.871094 440.644531 746.191406 440.367188 742.199219 C 440.050781 738.246094 440.328125 734.015625 441.277344 729.746094 C 441.75 727.570312 442.464844 725.472656 443.292969 723.339844 Z M 443.292969 723.339844 " fill-opacity="1" fill-rule="nonzero"/></g><g clip-path="url(#62ab0453ea)"><path fill="#8d593e" d="M 531.1875 659.839844 C 530.558594 658.097656 529.804688 656.4375 528.933594 654.816406 C 527.234375 651.574219 525.140625 648.570312 522.925781 645.683594 C 522.808594 645.527344 522.648438 645.328125 522.53125 645.171875 L 520.949219 648.808594 C 522.808594 651.257812 524.585938 653.789062 526.007812 656.398438 C 526.839844 657.863281 527.550781 659.402344 528.105469 660.945312 C 528.699219 662.488281 529.09375 664.070312 529.332031 665.613281 C 529.527344 667.191406 529.566406 668.734375 529.332031 670.277344 C 529.09375 671.78125 528.578125 673.242188 527.90625 674.625 C 527.195312 676.011719 526.285156 677.277344 525.257812 678.460938 C 524.191406 679.609375 523.082031 680.714844 521.820312 681.664062 C 519.328125 683.640625 516.597656 685.261719 513.792969 686.6875 C 513.082031 687.042969 512.40625 687.398438 511.65625 687.714844 C 510.945312 688.03125 510.195312 688.386719 509.480469 688.703125 C 508.769531 688.980469 508.058594 689.296875 507.347656 689.574219 C 506.636719 689.847656 505.882812 690.085938 505.171875 690.363281 C 502.761719 691.195312 500.347656 691.867188 497.898438 692.417969 L 565.589844 549.011719 C 567.800781 544.34375 566.855469 538.847656 563.253906 535.132812 C 560.882812 532.722656 557.5625 531.375 554.121094 531.457031 C 548.980469 531.613281 544.472656 534.933594 542.8125 539.796875 L 539.53125 549.367188 C 538.976562 549.050781 538.425781 548.773438 537.832031 548.457031 C 537.515625 548.300781 537.238281 548.140625 536.921875 547.984375 C 534.90625 546.996094 532.851562 546.085938 530.714844 545.375 C 528.578125 544.660156 526.40625 544.070312 524.191406 543.632812 C 521.976562 543.238281 519.722656 543 517.46875 542.960938 C 516.914062 542.921875 516.324219 542.960938 515.730469 542.960938 C 515.136719 542.960938 514.542969 542.960938 514.070312 543.039062 L 512.488281 543.160156 C 512.367188 543.160156 512.09375 543.199219 512.011719 543.199219 L 511.578125 543.238281 L 510.746094 543.355469 C 508.535156 543.671875 506.359375 544.109375 504.222656 544.78125 C 502.089844 545.414062 500.03125 546.242188 498.015625 547.191406 C 496.039062 548.140625 494.101562 549.25 492.324219 550.511719 C 485.125 555.417969 479.550781 562.574219 476.625 570.640625 C 475.875 572.65625 475.320312 574.710938 474.886719 576.808594 C 474.648438 577.835938 474.53125 578.902344 474.371094 579.929688 C 474.253906 580.996094 474.132812 582.027344 474.09375 583.09375 C 474.015625 584.121094 474.054688 585.230469 474.054688 586.296875 L 474.132812 587.796875 L 474.175781 588.15625 C 474.175781 588.234375 474.175781 588.472656 474.214844 588.589844 L 474.332031 589.417969 C 474.609375 591.632812 475.242188 593.730469 476.03125 595.667969 C 476.824219 597.644531 477.8125 599.460938 478.839844 601.203125 C 479.90625 602.941406 481.015625 604.640625 482.238281 606.222656 C 484.613281 609.464844 487.183594 612.429688 489.792969 615.316406 C 495.011719 621.050781 500.429688 626.390625 505.609375 631.6875 C 506.554688 632.675781 507.503906 633.625 508.453125 634.613281 C 508.929688 635.128906 509.441406 635.640625 509.917969 636.15625 L 471.960938 747.339844 L 496.511719 695.34375 C 499.675781 694.710938 502.839844 693.921875 506.003906 692.894531 C 506.753906 692.617188 507.542969 692.378906 508.296875 692.101562 C 509.046875 691.785156 509.796875 691.550781 510.589844 691.195312 C 511.300781 690.878906 512.050781 690.5625 512.804688 690.246094 C 513.554688 689.929688 514.304688 689.53125 515.019531 689.175781 C 517.984375 687.714844 520.910156 686.054688 523.636719 683.917969 C 525.019531 682.890625 526.285156 681.664062 527.511719 680.398438 C 528.699219 679.054688 529.765625 677.59375 530.636719 675.972656 C 531.464844 674.351562 532.097656 672.570312 532.414062 670.710938 C 532.769531 668.855469 532.730469 666.957031 532.492188 665.097656 C 532.296875 663.359375 531.820312 661.578125 531.1875 659.839844 Z M 555.585938 540.984375 C 557.757812 541.855469 556.769531 549.445312 553.332031 557.867188 C 549.890625 566.328125 545.382812 572.457031 543.167969 571.546875 C 541.3125 570.796875 541.785156 565.101562 544.117188 558.144531 C 544.671875 558.539062 545.1875 558.894531 545.699219 559.289062 C 546.925781 560.160156 548.113281 561.109375 549.296875 562.019531 C 550.011719 560.636719 550.722656 559.09375 551.433594 557.355469 C 550.128906 556.363281 548.824219 555.417969 547.480469 554.46875 C 546.964844 554.113281 546.410156 553.753906 545.898438 553.359375 C 549.335938 545.609375 553.527344 540.152344 555.585938 540.984375 Z M 509.796875 630.699219 C 509.285156 630.183594 508.808594 629.632812 508.296875 629.117188 C 503.15625 623.738281 497.816406 618.363281 492.757812 612.707031 C 490.226562 609.863281 487.773438 606.9375 485.5625 603.890625 C 484.453125 602.347656 483.386719 600.765625 482.4375 599.144531 C 481.488281 597.523438 480.617188 595.863281 479.945312 594.164062 C 479.273438 592.464844 478.761719 590.726562 478.5625 588.945312 L 478.484375 588.273438 C 478.484375 588.15625 478.484375 588.113281 478.445312 587.957031 L 478.445312 587.601562 C 478.40625 587.085938 478.40625 586.613281 478.363281 586.097656 C 478.363281 585.1875 478.363281 584.28125 478.445312 583.332031 C 478.484375 582.382812 478.601562 581.433594 478.679688 580.484375 C 478.839844 579.535156 478.957031 578.585938 479.15625 577.675781 C 479.550781 575.820312 480.066406 573.960938 480.777344 572.179688 C 483.464844 564.984375 488.488281 558.660156 495.011719 554.269531 C 501.496094 549.878906 509.441406 547.546875 517.390625 547.746094 C 519.367188 547.785156 521.34375 548.023438 523.320312 548.378906 C 525.296875 548.773438 527.234375 549.289062 529.132812 549.960938 C 531.03125 550.632812 532.929688 551.460938 534.746094 552.371094 C 535.261719 552.609375 535.734375 552.886719 536.25 553.164062 C 536.804688 553.480469 537.355469 553.796875 537.910156 554.113281 L 511.261719 632.199219 C 510.785156 631.726562 510.273438 631.210938 509.796875 630.699219 Z M 509.796875 630.699219 " fill-opacity="1" fill-rule="nonzero"/></g><g clip-path="url(#d00ef4309d)"><path fill="#8d593e" d="M 1042.863281 669.761719 C 1042.863281 654.539062 1038.832031 638.882812 1031.121094 624.6875 C 1030.648438 623.78125 1030.132812 622.949219 1029.621094 622.039062 L 1028.867188 620.734375 C 1028.632812 620.300781 1028.316406 619.863281 1028.078125 619.429688 C 1027.523438 618.558594 1027.011719 617.691406 1026.457031 616.859375 C 1025.863281 616.03125 1025.269531 615.160156 1024.675781 614.328125 C 1024.085938 613.460938 1023.492188 612.707031 1022.859375 611.878906 L 1021.949219 610.691406 L 1021.710938 610.375 C 1021.632812 610.296875 1021.515625 610.097656 1021.433594 610.058594 L 1020.960938 609.464844 C 1020.289062 608.675781 1019.65625 607.882812 1018.984375 607.09375 C 1018.351562 606.304688 1017.640625 605.550781 1016.925781 604.761719 C 1011.429688 598.554688 1005.144531 592.976562 998.382812 587.917969 C 994.945312 585.425781 991.464844 583.054688 987.789062 580.839844 C 984.109375 578.664062 980.355469 576.570312 976.480469 574.710938 L 975.015625 574 L 973.554688 573.328125 C 972.566406 572.890625 971.574219 572.417969 970.628906 571.984375 C 968.648438 571.152344 966.671875 570.242188 964.65625 569.492188 C 960.625 567.871094 956.550781 566.40625 952.398438 565.0625 C 935.792969 559.6875 918.316406 556.324219 900.523438 554.269531 C 898.308594 554.03125 896.054688 553.753906 893.84375 553.558594 L 892.179688 553.398438 L 891.351562 553.320312 L 890.480469 553.242188 C 889.375 553.164062 888.226562 553.082031 887.121094 553.003906 C 884.867188 552.847656 882.613281 552.6875 880.359375 552.53125 C 878.105469 552.410156 875.851562 552.410156 873.558594 552.332031 C 869.011719 552.132812 864.464844 552.292969 859.917969 552.371094 L 858.21875 552.410156 L 856.515625 552.53125 L 853.078125 552.726562 L 849.636719 552.925781 L 847.9375 553.042969 C 847.382812 553.082031 846.789062 553.164062 846.238281 553.203125 C 843.945312 553.4375 841.691406 553.675781 839.398438 553.914062 L 837.695312 554.113281 C 837.144531 554.191406 836.550781 554.269531 835.996094 554.347656 L 832.597656 554.863281 L 829.195312 555.375 L 827.496094 555.613281 L 825.796875 555.929688 C 823.542969 556.363281 821.289062 556.800781 818.996094 557.234375 C 817.847656 557.433594 816.742188 557.710938 815.59375 557.945312 L 812.234375 558.738281 C 809.980469 559.25 807.726562 559.726562 805.511719 560.359375 C 803.296875 560.953125 801.042969 561.542969 798.828125 562.136719 C 796.617188 562.769531 794.402344 563.480469 792.1875 564.113281 L 788.867188 565.101562 L 785.585938 566.210938 C 783.410156 566.960938 781.195312 567.671875 779.019531 568.425781 L 772.496094 570.796875 L 769.253906 571.984375 L 766.011719 573.25 L 759.566406 575.738281 L 753.160156 578.347656 L 749.960938 579.652344 L 746.757812 580.996094 L 740.390625 583.6875 L 734.066406 586.453125 C 731.96875 587.363281 729.835938 588.3125 727.777344 589.183594 C 723.625 590.960938 719.355469 592.503906 715.085938 593.925781 C 706.464844 596.695312 697.6875 598.832031 688.753906 600.09375 C 670.921875 602.785156 652.734375 602.386719 635.175781 599.304688 C 617.660156 596.101562 600.738281 590.171875 585.476562 581.710938 L 582.628906 580.128906 L 579.863281 578.46875 L 578.476562 577.636719 C 578.003906 577.359375 577.570312 577.042969 577.09375 576.765625 L 574.328125 574.988281 C 570.769531 572.65625 567.328125 570.007812 563.929688 567.316406 C 562.78125 566.40625 561.675781 565.5 560.527344 564.589844 L 558.273438 569.332031 C 559.066406 570.007812 559.894531 570.640625 560.726562 571.3125 C 564.164062 574.078125 567.683594 576.808594 571.480469 579.335938 L 574.246094 581.15625 C 574.722656 581.472656 575.15625 581.75 575.632812 582.066406 L 577.09375 582.933594 L 580.019531 584.714844 L 582.984375 586.375 C 590.855469 590.804688 599.15625 594.519531 607.738281 597.605469 C 608.804688 598 609.871094 598.355469 610.980469 598.710938 C 612.046875 599.066406 613.152344 599.421875 614.222656 599.777344 C 616.4375 600.410156 618.609375 601.125 620.824219 601.675781 L 624.144531 602.546875 L 627.507812 603.335938 L 629.167969 603.734375 L 630.867188 604.050781 L 634.269531 604.722656 C 652.375 607.964844 671.199219 608.398438 689.621094 605.628906 C 698.835938 604.324219 707.96875 602.113281 716.867188 599.265625 C 721.292969 597.800781 725.722656 596.21875 730.03125 594.363281 C 732.207031 593.453125 734.300781 592.542969 736.398438 591.632812 L 742.722656 588.90625 L 749.050781 586.21875 L 752.214844 584.871094 L 755.375 583.566406 L 761.742188 580.957031 L 768.148438 578.46875 L 771.351562 577.242188 L 774.554688 576.054688 L 780.996094 573.722656 C 783.171875 573.011719 785.308594 572.261719 787.480469 571.546875 L 790.722656 570.480469 L 793.964844 569.492188 C 796.140625 568.820312 798.316406 568.148438 800.492188 567.515625 C 802.664062 566.921875 804.878906 566.328125 807.054688 565.734375 C 809.230469 565.101562 811.441406 564.628906 813.65625 564.113281 L 816.976562 563.363281 C 818.085938 563.125 819.191406 562.847656 820.300781 562.652344 C 822.515625 562.21875 824.726562 561.820312 826.941406 561.386719 L 828.601562 561.070312 L 830.261719 560.832031 L 833.585938 560.320312 L 836.90625 559.804688 C 837.460938 559.726562 838.011719 559.648438 838.566406 559.566406 L 840.226562 559.371094 C 842.441406 559.132812 844.695312 558.894531 846.910156 558.660156 C 847.464844 558.617188 848.015625 558.539062 848.570312 558.5 L 850.230469 558.382812 L 853.589844 558.183594 L 856.953125 557.984375 L 858.613281 557.867188 L 860.273438 557.828125 C 864.742188 557.75 869.167969 557.589844 873.636719 557.75 C 875.851562 557.789062 878.066406 557.828125 880.28125 557.90625 C 882.496094 558.066406 884.707031 558.183594 886.921875 558.34375 C 891.3125 558.578125 895.78125 559.054688 900.128906 559.488281 C 917.644531 561.425781 934.804688 564.628906 951.054688 569.808594 C 955.128906 571.113281 959.121094 572.496094 963.035156 574.039062 C 965.011719 574.789062 966.949219 575.621094 968.886719 576.449219 C 969.835938 576.886719 970.785156 577.320312 971.734375 577.753906 L 973.15625 578.386719 L 974.582031 579.0625 C 982.09375 582.699219 989.210938 586.929688 995.851562 591.671875 C 1002.417969 596.496094 1008.507812 601.835938 1013.84375 607.726562 C 1014.515625 608.476562 1015.1875 609.1875 1015.820312 609.941406 C 1016.453125 610.691406 1017.085938 611.441406 1017.71875 612.234375 L 1018.191406 612.789062 C 1018.3125 612.90625 1018.3125 612.945312 1018.390625 613.023438 L 1018.628906 613.339844 L 1019.539062 614.527344 C 1020.128906 615.316406 1020.800781 616.109375 1021.316406 616.898438 C 1021.871094 617.691406 1022.421875 618.480469 1022.976562 619.273438 C 1023.53125 620.0625 1024.042969 620.894531 1024.558594 621.722656 C 1024.835938 622.117188 1025.113281 622.554688 1025.347656 622.949219 L 1026.101562 624.214844 C 1026.574219 625.042969 1027.089844 625.875 1027.5625 626.746094 C 1035.074219 640.308594 1039.03125 655.292969 1039.226562 669.84375 L 1039.265625 671.1875 C 1039.265625 671.621094 1039.226562 672.097656 1039.226562 672.53125 C 1039.1875 673.441406 1039.1875 674.351562 1039.148438 675.257812 C 1039.070312 676.167969 1038.992188 677.039062 1038.949219 677.949219 C 1038.910156 678.382812 1038.871094 678.855469 1038.832031 679.292969 L 1038.675781 680.636719 C 1038.277344 684.195312 1037.527344 687.675781 1036.65625 691.035156 C 1036.421875 691.867188 1036.183594 692.734375 1035.945312 693.566406 C 1035.828125 694 1035.707031 694.394531 1035.550781 694.792969 L 1035.117188 696.015625 C 1034.601562 697.679688 1033.890625 699.257812 1033.257812 700.839844 C 1031.832031 703.964844 1030.332031 707.046875 1028.511719 709.855469 C 1026.773438 712.742188 1024.71875 715.390625 1022.660156 717.960938 C 1022.105469 718.59375 1021.554688 719.1875 1021 719.820312 C 1020.445312 720.414062 1019.933594 721.046875 1019.339844 721.636719 C 1018.152344 722.785156 1017.046875 723.972656 1015.820312 725 C 1015.226562 725.554688 1014.59375 726.066406 1014 726.621094 L 1013.804688 726.816406 L 1013.566406 727.015625 L 1013.09375 727.410156 L 1012.144531 728.164062 C 1011.511719 728.675781 1010.878906 729.191406 1010.246094 729.703125 C 1009.613281 730.179688 1008.980469 730.652344 1008.347656 731.128906 C 1007.714844 731.601562 1007.082031 732.078125 1006.449219 732.550781 C 1005.816406 732.988281 1005.144531 733.460938 1004.511719 733.894531 C 1003.878906 734.332031 1003.246094 734.804688 1002.574219 735.238281 C 1001.902344 735.675781 1001.269531 736.070312 1000.597656 736.503906 C 995.339844 739.867188 990.042969 742.832031 984.703125 745.441406 C 983.359375 746.074219 982.054688 746.746094 980.75 747.339844 C 979.40625 747.933594 978.101562 748.523438 976.796875 749.117188 C 974.144531 750.226562 971.535156 751.332031 968.925781 752.28125 C 963.707031 754.257812 958.566406 755.957031 953.546875 757.34375 C 952.914062 757.5 952.28125 757.699219 951.6875 757.855469 C 951.054688 758.015625 950.421875 758.171875 949.828125 758.332031 C 948.605469 758.648438 947.378906 758.964844 946.152344 759.242188 C 943.703125 759.792969 941.289062 760.347656 938.917969 760.742188 C 936.542969 761.21875 934.210938 761.574219 931.917969 761.890625 C 931.363281 761.96875 930.773438 762.046875 930.21875 762.125 C 929.664062 762.207031 929.070312 762.246094 928.519531 762.324219 C 927.410156 762.441406 926.265625 762.601562 925.195312 762.679688 C 922.984375 762.839844 920.847656 763.074219 918.710938 763.113281 C 917.644531 763.15625 916.617188 763.195312 915.589844 763.234375 C 914.5625 763.234375 913.53125 763.234375 912.542969 763.234375 C 904.519531 763.234375 897.359375 762.441406 891.273438 761.179688 C 885.183594 759.914062 880.121094 758.171875 876.167969 756.550781 C 875.179688 756.117188 874.269531 755.722656 873.402344 755.324219 C 873.203125 755.246094 872.964844 755.128906 872.769531 755.050781 C 872.570312 754.929688 872.371094 754.851562 872.175781 754.734375 C 871.78125 754.535156 871.421875 754.335938 871.027344 754.140625 C 870.316406 753.746094 869.644531 753.386719 869.011719 753.070312 C 868.695312 752.914062 868.417969 752.757812 868.140625 752.597656 C 867.863281 752.441406 867.628906 752.28125 867.390625 752.125 C 865.492188 750.9375 864.503906 750.34375 864.503906 750.34375 C 864.503906 750.34375 865.453125 750.976562 867.351562 752.203125 C 867.589844 752.359375 867.824219 752.519531 868.101562 752.675781 C 868.378906 752.875 868.65625 753.03125 868.933594 753.191406 C 869.527344 753.546875 870.199219 753.902344 870.910156 754.296875 C 871.265625 754.496094 871.660156 754.691406 872.015625 754.929688 C 872.214844 755.050781 872.414062 755.167969 872.609375 755.246094 C 872.808594 755.324219 873.042969 755.445312 873.242188 755.5625 C 874.113281 755.957031 875.023438 756.394531 876.011719 756.867188 C 879.964844 758.609375 884.984375 760.464844 891.113281 761.890625 C 897.242188 763.3125 904.4375 764.261719 912.503906 764.421875 C 913.53125 764.421875 914.519531 764.460938 915.589844 764.460938 C 916.617188 764.421875 917.683594 764.421875 918.753906 764.378906 C 920.886719 764.378906 923.0625 764.183594 925.277344 764.0625 C 926.382812 764.023438 927.53125 763.867188 928.636719 763.746094 C 929.191406 763.707031 929.785156 763.628906 930.335938 763.589844 C 930.929688 763.550781 931.484375 763.472656 932.078125 763.390625 C 934.410156 763.074219 936.78125 762.796875 939.152344 762.363281 C 941.566406 762.007812 944.015625 761.453125 946.46875 760.980469 C 947.695312 760.742188 948.960938 760.386719 950.226562 760.109375 C 950.859375 759.953125 951.492188 759.792969 952.125 759.675781 C 952.753906 759.515625 953.386719 759.359375 954.019531 759.160156 C 959.121094 757.855469 964.339844 756.195312 969.640625 754.296875 C 972.289062 753.347656 974.976562 752.28125 977.664062 751.214844 C 979.007812 750.621094 980.355469 750.066406 981.699219 749.472656 C 983.042969 748.882812 984.386719 748.25 985.769531 747.617188 C 991.1875 745.046875 996.644531 742.121094 1002.0625 738.796875 C 1002.734375 738.363281 1003.40625 737.96875 1004.078125 737.535156 C 1004.75 737.097656 1005.421875 736.664062 1006.09375 736.1875 C 1006.765625 735.753906 1007.4375 735.28125 1008.109375 734.84375 C 1008.78125 734.410156 1009.414062 733.894531 1010.085938 733.421875 C 1010.757812 732.945312 1011.433594 732.472656 1012.0625 731.957031 C 1012.695312 731.445312 1013.328125 730.96875 1014 730.457031 L 1014.949219 729.703125 L 1015.425781 729.308594 L 1015.664062 729.113281 C 1015.78125 728.992188 1015.820312 728.953125 1015.9375 728.875 C 1016.570312 728.320312 1017.203125 727.765625 1017.835938 727.214844 C 1019.140625 726.144531 1020.328125 724.921875 1021.554688 723.734375 C 1022.1875 723.140625 1022.738281 722.507812 1023.332031 721.875 C 1023.925781 721.242188 1024.480469 720.609375 1025.074219 719.976562 C 1027.285156 717.328125 1029.460938 714.601562 1031.320312 711.59375 C 1033.257812 708.628906 1034.917969 705.46875 1036.421875 702.183594 C 1037.132812 700.523438 1037.882812 698.863281 1038.4375 697.164062 L 1038.910156 695.859375 C 1039.070312 695.425781 1039.226562 694.988281 1039.347656 694.554688 C 1039.625 693.683594 1039.859375 692.816406 1040.136719 691.90625 C 1041.085938 688.347656 1041.917969 684.75 1042.390625 681.03125 L 1042.589844 679.648438 C 1042.628906 679.171875 1042.667969 678.699219 1042.707031 678.265625 C 1042.785156 677.316406 1042.867188 676.40625 1042.945312 675.457031 C 1042.984375 674.507812 1043.023438 673.558594 1043.0625 672.609375 C 1043.0625 672.136719 1043.101562 671.660156 1043.101562 671.1875 Z M 1042.863281 669.761719 " fill-opacity="1" fill-rule="nonzero"/></g><g transform="matrix(1, 0, 0, 1, 526, 147)"><g clip-path="url(#e2bdc592c1)"><g fill="#635472" fill-opacity="1"><g transform="translate(120.843932, 343.963831)"><g><path d="M 78.6875 -151.984375 C 81.394531 -151.890625 83.078125 -150.40625 83.734375 -147.53125 C 84.398438 -144.664062 83.46875 -142.625 80.9375 -141.40625 C 79.1875 -140.707031 77.1875 -140.007812 74.9375 -139.3125 C 72.6875 -138.613281 70.757812 -138.09375 69.15625 -137.75 C 67.5625 -137.40625 65.421875 -136.972656 62.734375 -136.453125 C 60.054688 -135.929688 58.078125 -135.535156 56.796875 -135.265625 C 52.015625 -134.148438 46.644531 -132.898438 40.6875 -131.515625 C 41.363281 -128.316406 42.023438 -124.804688 42.671875 -120.984375 C 43.316406 -117.160156 43.851562 -113.703125 44.28125 -110.609375 C 44.71875 -107.515625 45.25 -103.96875 45.875 -99.96875 C 46.507812 -95.976562 47.078125 -92.53125 47.578125 -89.625 C 53.085938 -56.875 58.601562 -31.425781 64.125 -13.28125 C 65.570312 -8.570312 67.1875 -4.679688 68.96875 -1.609375 C 70.34375 0.671875 71.550781 2.425781 72.59375 3.65625 C 73.207031 4.425781 74.195312 5.164062 75.5625 5.875 C 79.789062 7.875 83.695312 7.320312 87.28125 4.21875 C 89.25 2.46875 90.46875 0.34375 90.9375 -2.15625 C 91.40625 -4.664062 91.191406 -7.28125 90.296875 -10 C 89.878906 -11.351562 90.160156 -12.492188 91.140625 -13.421875 C 92.117188 -14.359375 93.3125 -14.78125 94.71875 -14.6875 C 96.132812 -14.601562 97.101562 -13.882812 97.625 -12.53125 C 100.695312 -5.375 100.320312 1.425781 96.5 7.875 C 92.6875 14.320312 86.957031 18.1875 79.3125 19.46875 C 73.257812 20.425781 67.648438 19.132812 62.484375 15.59375 C 57.328125 12.0625 53.1875 7.390625 50.0625 1.578125 C 49.0625 -0.441406 48.0625 -2.628906 47.0625 -4.984375 C 46.0625 -7.347656 45.25 -9.460938 44.625 -11.328125 C 44.007812 -13.203125 43.328125 -15.644531 42.578125 -18.65625 C 41.828125 -21.675781 41.269531 -23.898438 40.90625 -25.328125 C 40.539062 -26.765625 39.988281 -29.21875 39.25 -32.6875 C 38.507812 -36.15625 38.023438 -38.425781 37.796875 -39.5 C 34.023438 -56.226562 31.359375 -71.675781 29.796875 -85.84375 C 27.785156 -103.726562 27.019531 -117.851562 27.5 -128.21875 C 20.601562 -126.53125 14.9375 -125.101562 10.5 -123.9375 C 7.425781 -123.164062 3.5625 -122.175781 -1.09375 -120.96875 C -1.519531 -120.882812 -2.285156 -120.691406 -3.390625 -120.390625 C -4.503906 -120.097656 -5.351562 -119.890625 -5.9375 -119.765625 C -6.53125 -119.640625 -7.285156 -119.507812 -8.203125 -119.375 C -9.128906 -119.238281 -9.972656 -119.140625 -10.734375 -119.078125 C -11.503906 -119.023438 -12.289062 -119.023438 -13.09375 -119.078125 C -15.269531 -119.410156 -16.773438 -120.625 -17.609375 -122.71875 C -18.453125 -124.820312 -17.988281 -126.6875 -16.21875 -128.3125 C -14.519531 -129.78125 -10.644531 -131.488281 -4.59375 -133.4375 C -1.351562 -134.46875 2.535156 -135.632812 7.078125 -136.9375 C 14.640625 -139.101562 22.398438 -141.144531 30.359375 -143.0625 C 37.148438 -144.726562 45.253906 -146.503906 54.671875 -148.390625 C 55.210938 -148.503906 57.078125 -148.925781 60.265625 -149.65625 C 63.453125 -150.394531 65.664062 -150.867188 66.90625 -151.078125 C 68.144531 -151.285156 69.941406 -151.5 72.296875 -151.71875 C 74.648438 -151.9375 76.78125 -152.023438 78.6875 -151.984375 Z M 78.6875 -151.984375 "/></g></g></g><g fill="#635472" fill-opacity="1"><g transform="translate(196.331485, 328.319146)"><g><path d="M 63.84375 -68.859375 C 64.84375 -70.972656 66.429688 -71.5625 68.609375 -70.625 C 70.785156 -69.695312 71.707031 -68.128906 71.375 -65.921875 C 70.820312 -61.296875 69.113281 -56.921875 66.25 -52.796875 C 63.382812 -48.679688 59.957031 -45.929688 55.96875 -44.546875 C 52.414062 -43.285156 48.910156 -43.367188 45.453125 -44.796875 C 42.003906 -46.222656 39.382812 -48.59375 37.59375 -51.90625 C 35.550781 -55.738281 34.945312 -60.578125 35.78125 -66.421875 C 35.957031 -67.285156 36.296875 -68.710938 36.796875 -70.703125 C 37.304688 -72.703125 37.597656 -74.140625 37.671875 -75.015625 C 37.742188 -75.890625 37.617188 -77.414062 37.296875 -79.59375 C 36.140625 -83.46875 34.523438 -85.410156 32.453125 -85.421875 C 28.941406 -85.484375 26.300781 -82.195312 24.53125 -75.5625 C 23.03125 -70.019531 22.472656 -64.421875 22.859375 -58.765625 C 23.035156 -57.015625 23.28125 -55.109375 23.59375 -53.046875 C 23.914062 -50.992188 24.320312 -48.828125 24.8125 -46.546875 C 25.300781 -44.273438 25.632812 -42.378906 25.8125 -40.859375 C 26.113281 -39.117188 25.640625 -37.566406 24.390625 -36.203125 C 23.140625 -34.835938 21.707031 -33.957031 20.09375 -33.5625 C 18.363281 -33.257812 16.765625 -33.566406 15.296875 -34.484375 C 13.828125 -35.398438 12.785156 -36.65625 12.171875 -38.25 C 6.546875 -53.519531 2.929688 -68.984375 1.328125 -84.640625 C -0.179688 -98.679688 0.0507812 -112.515625 2.03125 -126.140625 C 3.019531 -133.191406 5.140625 -138.207031 8.390625 -141.1875 C 10.804688 -143.375 13.425781 -144.640625 16.25 -144.984375 C 19.070312 -145.335938 21.882812 -144.757812 24.6875 -143.25 C 26.9375 -141.9375 28.582031 -139.992188 29.625 -137.421875 C 30.664062 -134.847656 31.097656 -132 30.921875 -128.875 C 30.742188 -125.757812 30.382812 -122.90625 29.84375 -120.3125 C 29.3125 -117.71875 28.664062 -115.144531 27.90625 -112.59375 C 24.84375 -103.15625 20.710938 -95.695312 15.515625 -90.21875 C 15.734375 -87.613281 16.007812 -85.0625 16.34375 -82.5625 C 17.84375 -85.363281 19.9375 -87.890625 22.625 -90.140625 C 25.3125 -92.390625 28.066406 -93.75 30.890625 -94.21875 C 31.328125 -94.34375 31.710938 -94.410156 32.046875 -94.421875 C 35.085938 -94.566406 37.957031 -93.796875 40.65625 -92.109375 C 43.363281 -90.429688 45.4375 -88.257812 46.875 -85.59375 C 49.375 -80.90625 49.921875 -74.816406 48.515625 -67.328125 C 48.398438 -63.054688 48.695312 -60.171875 49.40625 -58.671875 L 49.765625 -58.03125 C 49.878906 -57.8125 50 -57.65625 50.125 -57.5625 L 50.453125 -57.40625 C 50.785156 -57.3125 51.222656 -57.222656 51.765625 -57.140625 C 51.765625 -57.140625 51.929688 -57.117188 52.265625 -57.078125 C 52.597656 -57.046875 52.820312 -57.03125 52.9375 -57.03125 C 53.257812 -57.050781 53.960938 -57.132812 55.046875 -57.28125 L 55.53125 -57.3125 C 56.175781 -57.675781 56.867188 -58.203125 57.609375 -58.890625 C 59.609375 -60.617188 61.6875 -63.941406 63.84375 -68.859375 Z M 16.6875 -131.90625 C 16.207031 -130.570312 15.867188 -128.476562 15.671875 -125.625 C 14.921875 -118.28125 14.613281 -110.734375 14.75 -102.984375 C 17.757812 -108.785156 19.832031 -114.722656 20.96875 -120.796875 C 22.644531 -129.515625 22.414062 -134.476562 20.28125 -135.6875 C 20.164062 -135.6875 20.003906 -135.625 19.796875 -135.5 C 19.148438 -135.25 18.617188 -134.953125 18.203125 -134.609375 C 17.671875 -134.035156 17.164062 -133.132812 16.6875 -131.90625 Z M 16.6875 -131.90625 "/></g></g></g><g fill="#635472" fill-opacity="1"><g transform="translate(247.873253, 325.799871)"><g><path d="M 40.28125 -88.109375 C 44.789062 -88.316406 48.476562 -86.75 51.34375 -83.40625 C 54.207031 -80.070312 55.3125 -76.1875 54.65625 -71.75 C 53.820312 -66.5625 51.535156 -63.066406 47.796875 -61.265625 C 45.296875 -59.929688 42.789062 -59.765625 40.28125 -60.765625 C 37.78125 -61.773438 36.25 -63.617188 35.6875 -66.296875 C 35.21875 -68.628906 36.023438 -70.207031 38.109375 -71.03125 C 40.203125 -71.851562 41.945312 -71.453125 43.34375 -69.828125 C 44.019531 -70.097656 44.425781 -70.335938 44.5625 -70.546875 C 45.257812 -71.035156 45.757812 -71.875 46.0625 -73.0625 C 46.65625 -75.207031 46.179688 -76.9375 44.640625 -78.25 C 42.753906 -79.269531 40.859375 -79.519531 38.953125 -79 C 37.054688 -78.488281 35.289062 -77.582031 33.65625 -76.28125 C 30.851562 -73.96875 28.914062 -70.066406 27.84375 -64.578125 C 27.789062 -63.921875 27.757812 -63.484375 27.75 -63.265625 C 27.820312 -59.765625 27.679688 -54.960938 27.328125 -48.859375 C 27.390625 -46.765625 27.226562 -44.253906 26.84375 -41.328125 C 26.457031 -38.410156 25.757812 -36.054688 24.75 -34.265625 C 23.632812 -32.703125 22.210938 -32.039062 20.484375 -32.28125 C 18.753906 -32.519531 17.457031 -33.4375 16.59375 -35.03125 C 16.488281 -35.039062 16.429688 -34.992188 16.421875 -34.890625 C 15.941406 -35.796875 15.5625 -36.914062 15.28125 -38.25 C 15 -39.59375 14.828125 -40.617188 14.765625 -41.328125 C 14.710938 -42.046875 14.703125 -43.363281 14.734375 -45.28125 C 14.773438 -47.195312 14.800781 -48.265625 14.8125 -48.484375 C 14.832031 -50.234375 14.796875 -52.722656 14.703125 -55.953125 C 14.617188 -59.191406 14.601562 -61.140625 14.65625 -61.796875 C 14.507812 -70.015625 14.117188 -78.632812 13.484375 -87.65625 C 13.421875 -89.632812 14.21875 -91.109375 15.875 -92.078125 C 17.53125 -93.046875 19.066406 -92.710938 20.484375 -91.078125 C 22.796875 -88.390625 24.554688 -84.914062 25.765625 -80.65625 C 29.835938 -85.28125 34.675781 -87.765625 40.28125 -88.109375 Z M 43.515625 -69.8125 C 43.710938 -69.570312 43.859375 -69.335938 43.953125 -69.109375 C 43.742188 -69.347656 43.597656 -69.582031 43.515625 -69.8125 Z M 43.515625 -69.8125 "/></g></g></g><g fill="#635472" fill-opacity="1"><g transform="translate(290.646947, 328.669487)"><g><path d="M 69.5 -51.578125 C 70.832031 -52.765625 72.265625 -52.6875 73.796875 -51.34375 C 75.328125 -50.007812 75.625 -48.597656 74.6875 -47.109375 C 71.25 -41.867188 66.738281 -37.691406 61.15625 -34.578125 C 55.570312 -31.460938 49.722656 -29.925781 43.609375 -29.96875 C 37.316406 -30.144531 32.410156 -31.226562 28.890625 -33.21875 C 23.523438 -36.550781 19.910156 -41.234375 18.046875 -47.265625 C 16.835938 -51.484375 16.46875 -55.878906 16.9375 -60.453125 C 17.414062 -65.035156 18.84375 -69.378906 21.21875 -73.484375 C 23.601562 -77.597656 26.796875 -80.550781 30.796875 -82.34375 C 36.867188 -85.09375 42.457031 -85.265625 47.5625 -82.859375 C 52.863281 -80.316406 54.828125 -75.671875 53.453125 -68.921875 C 52.441406 -63.554688 50.035156 -59.203125 46.234375 -55.859375 C 42.441406 -52.523438 37.9375 -50.847656 32.71875 -50.828125 C 33.65625 -48.097656 35.328125 -46.203125 37.734375 -45.140625 C 40.140625 -44.078125 43.140625 -43.375 46.734375 -43.03125 C 50.785156 -42.707031 54.03125 -43.097656 56.46875 -44.203125 C 62.789062 -47.128906 67.132812 -49.585938 69.5 -51.578125 Z M 42.546875 -72.96875 C 39.210938 -72.375 36.582031 -70.507812 34.65625 -67.375 C 32.738281 -64.25 31.753906 -60.796875 31.703125 -57.015625 C 36.597656 -57.648438 40.429688 -59.707031 43.203125 -63.1875 C 45.054688 -65.394531 46.054688 -67.765625 46.203125 -70.296875 C 46.359375 -71.703125 46.140625 -72.597656 45.546875 -72.984375 C 44.960938 -73.378906 43.960938 -73.375 42.546875 -72.96875 Z M 42.546875 -72.96875 "/></g></g></g><g fill="#635472" fill-opacity="1"><g transform="translate(332.326689, 335.777274)"><g><path d="M 86.078125 -39.5 C 87.410156 -40.09375 88.691406 -39.789062 89.921875 -38.59375 C 91.160156 -37.40625 91.28125 -36.171875 90.28125 -34.890625 C 89.0625 -33.210938 87.550781 -31.515625 85.75 -29.796875 C 83.945312 -28.078125 81.953125 -26.390625 79.765625 -24.734375 C 77.578125 -23.085938 75.300781 -21.78125 72.9375 -20.8125 C 70.570312 -19.84375 68.25 -19.203125 65.96875 -18.890625 C 63.695312 -18.585938 61.492188 -18.945312 59.359375 -19.96875 C 57.222656 -20.988281 55.445312 -22.695312 54.03125 -25.09375 C 52.6875 -27.363281 51.90625 -29.960938 51.6875 -32.890625 C 46.601562 -30.265625 41.46875 -29.601562 36.28125 -30.90625 C 31.695312 -32.019531 28.070312 -34.316406 25.40625 -37.796875 C 22.738281 -41.273438 21.265625 -45.09375 20.984375 -49.25 C 20.703125 -53.40625 21.28125 -57.660156 22.71875 -62.015625 C 24.164062 -66.378906 26.4375 -70.007812 29.53125 -72.90625 C 32.550781 -75.96875 36.238281 -78.035156 40.59375 -79.109375 C 44.945312 -80.179688 49.140625 -80.019531 53.171875 -78.625 C 60.035156 -76.445312 64.753906 -72.203125 67.328125 -65.890625 C 67.878906 -66.523438 68.757812 -67.476562 69.96875 -68.75 C 71.175781 -70.019531 72.03125 -70.921875 72.53125 -71.453125 C 73.800781 -72.878906 75.265625 -72.867188 76.921875 -71.421875 C 78.578125 -69.984375 78.8125 -68.484375 77.625 -66.921875 C 73.457031 -61.023438 69.863281 -55.289062 66.84375 -49.71875 C 62.59375 -42.132812 61.082031 -36.140625 62.3125 -31.734375 C 62.675781 -30.367188 63.335938 -29.382812 64.296875 -28.78125 C 65.253906 -28.1875 66.347656 -28.035156 67.578125 -28.328125 C 68.816406 -28.628906 70.113281 -29.109375 71.46875 -29.765625 C 72.832031 -30.421875 74.28125 -31.28125 75.8125 -32.34375 C 77.351562 -33.40625 78.726562 -34.398438 79.9375 -35.328125 C 81.15625 -36.253906 82.347656 -37.101562 83.515625 -37.875 C 84.679688 -38.65625 85.535156 -39.195312 86.078125 -39.5 Z M 38.40625 -45.1875 C 39.101562 -44.5 39.894531 -44.015625 40.78125 -43.734375 C 41.664062 -43.453125 42.503906 -43.300781 43.296875 -43.28125 C 44.097656 -43.257812 44.9375 -43.363281 45.8125 -43.59375 C 46.695312 -43.832031 47.503906 -44.117188 48.234375 -44.453125 C 48.972656 -44.785156 49.800781 -45.238281 50.71875 -45.8125 C 51.644531 -46.382812 52.40625 -46.890625 53 -47.328125 C 53.601562 -47.765625 54.296875 -48.320312 55.078125 -49 C 55.378906 -49.59375 55.664062 -50.128906 55.9375 -50.609375 C 57.414062 -53.460938 59.328125 -56.410156 61.671875 -59.453125 C 57.367188 -66.078125 52.566406 -68.800781 47.265625 -67.625 C 44.546875 -67.007812 42.195312 -65.582031 40.21875 -63.34375 C 38.695312 -61.757812 37.515625 -59.835938 36.671875 -57.578125 C 36.410156 -56.753906 36.160156 -55.972656 35.921875 -55.234375 C 35.796875 -54.816406 35.734375 -54.609375 35.734375 -54.609375 C 35.816406 -54.472656 35.804688 -54.25 35.703125 -53.9375 C 35.628906 -53.382812 35.582031 -52.71875 35.5625 -51.9375 C 35.601562 -51.332031 35.648438 -50.910156 35.703125 -50.671875 C 36.078125 -48.265625 36.976562 -46.4375 38.40625 -45.1875 Z M 38.40625 -45.1875 "/></g></g></g><g fill="#635472" fill-opacity="1"><g transform="translate(381.150952, 350.35312)"><g><path d="M 96.421875 -24.828125 C 98.222656 -26.023438 100.109375 -25.84375 102.078125 -24.28125 C 104.046875 -22.71875 104.429688 -20.953125 103.234375 -18.984375 C 98.160156 -11.253906 91.476562 -6.84375 83.1875 -5.75 C 79.488281 -5.375 75.945312 -5.941406 72.5625 -7.453125 C 69.175781 -8.972656 66.40625 -11.28125 64.25 -14.375 C 62.414062 -17.082031 61.234375 -20.265625 60.703125 -23.921875 C 53.804688 -21.441406 47.359375 -21.648438 41.359375 -24.546875 C 38.460938 -25.835938 36.066406 -27.726562 34.171875 -30.21875 C 32.285156 -32.707031 31.007812 -35.382812 30.34375 -38.25 C 29.675781 -41.125 29.46875 -44.140625 29.71875 -47.296875 C 29.96875 -50.453125 30.707031 -53.429688 31.9375 -56.234375 C 34.269531 -61.523438 37.804688 -65.816406 42.546875 -69.109375 C 46.992188 -72.285156 51.976562 -73.566406 57.5 -72.953125 C 63.664062 -72.398438 68.300781 -70.941406 71.40625 -68.578125 C 76.289062 -78.960938 82.222656 -88.34375 89.203125 -96.71875 C 90.546875 -98.257812 93.050781 -100.6875 96.71875 -104 C 98.894531 -105.976562 101.078125 -107.109375 103.265625 -107.390625 C 105.421875 -107.554688 107.1875 -107.0625 108.5625 -105.90625 C 109.945312 -104.75 110.820312 -103.175781 111.1875 -101.1875 C 111.707031 -98.25 111.414062 -94.257812 110.3125 -89.21875 C 109.101562 -84.226562 106.9375 -78.128906 103.8125 -70.921875 C 98.5 -58.453125 90.082031 -46.691406 78.5625 -35.640625 C 77.5 -34.710938 76.460938 -33.820312 75.453125 -32.96875 C 74.734375 -27.976562 75.019531 -24.328125 76.3125 -22.015625 C 76.96875 -20.835938 77.800781 -19.972656 78.8125 -19.421875 C 79.820312 -18.878906 80.992188 -18.679688 82.328125 -18.828125 C 83.671875 -18.972656 84.898438 -19.195312 86.015625 -19.5 C 87.140625 -19.800781 88.476562 -20.363281 90.03125 -21.1875 C 91.582031 -22.019531 92.734375 -22.644531 93.484375 -23.0625 C 94.234375 -23.488281 95.210938 -24.078125 96.421875 -24.828125 Z M 104.296875 -100.875 C 103.566406 -101.351562 102.421875 -100.726562 100.859375 -99 C 99.296875 -97.269531 97.640625 -94.914062 95.890625 -91.9375 C 94.140625 -88.96875 92.726562 -86.4375 91.65625 -84.34375 C 90.59375 -82.25 89.773438 -80.613281 89.203125 -79.4375 C 85.347656 -71.476562 82.078125 -62.210938 79.390625 -51.640625 C 79.910156 -52.234375 80.390625 -52.84375 80.828125 -53.46875 C 88.816406 -62.707031 95.160156 -72.4375 99.859375 -82.65625 C 102.097656 -87.269531 103.441406 -90.800781 103.890625 -93.25 C 104.953125 -97.695312 105.085938 -100.238281 104.296875 -100.875 Z M 59 -36.578125 C 59.675781 -36.734375 60.40625 -36.988281 61.1875 -37.34375 C 61.238281 -37.4375 61.210938 -37.507812 61.109375 -37.5625 C 62.296875 -44.007812 64.347656 -51.140625 67.265625 -58.953125 C 66.285156 -59.660156 65.203125 -60.300781 64.015625 -60.875 C 61.066406 -62.0625 57.953125 -61.753906 54.671875 -59.953125 C 53.367188 -59.253906 52.160156 -58.265625 51.046875 -56.984375 L 50.53125 -56.3125 C 50.394531 -56.257812 50.273438 -56.132812 50.171875 -55.9375 C 50.078125 -55.738281 49.976562 -55.601562 49.875 -55.53125 C 49.78125 -55.46875 49.6875 -55.335938 49.59375 -55.140625 C 49.5 -54.941406 49.40625 -54.742188 49.3125 -54.546875 C 48.925781 -53.992188 48.734375 -53.71875 48.734375 -53.71875 L 48.390625 -53.359375 C 47.234375 -51.234375 46.445312 -49.488281 46.03125 -48.125 C 45.9375 -47.6875 45.828125 -46.953125 45.703125 -45.921875 C 45.648438 -45.585938 45.578125 -45.195312 45.484375 -44.75 C 45.578125 -44.707031 45.601562 -44.640625 45.5625 -44.546875 C 45.582031 -43.554688 45.613281 -42.742188 45.65625 -42.109375 C 45.75 -42.066406 45.835938 -41.9375 45.921875 -41.71875 C 46.003906 -41.5 46.082031 -41.21875 46.15625 -40.875 C 46.238281 -40.539062 46.300781 -40.359375 46.34375 -40.328125 C 46.394531 -40.304688 46.394531 -40.242188 46.34375 -40.140625 C 46.539062 -39.804688 46.71875 -39.546875 46.875 -39.359375 C 47.414062 -38.710938 47.863281 -38.25 48.21875 -37.96875 C 51.125 -35.707031 54.71875 -35.242188 59 -36.578125 Z M 59 -36.578125 "/></g></g></g><g fill="#635472" fill-opacity="1"><g transform="translate(435.958583, 377.395903)"><g/></g></g><g fill="#635472" fill-opacity="1"><g transform="translate(463.867763, 394.238865)"><g><path d="M 95.28125 -2.796875 C 96.800781 -3.117188 97.90625 -2.398438 98.59375 -0.640625 C 99.28125 1.109375 98.929688 2.40625 97.546875 3.25 C 94.453125 4.96875 92.257812 6.144531 90.96875 6.78125 C 89.6875 7.414062 87.679688 8.28125 84.953125 9.375 C 82.234375 10.476562 79.722656 11.148438 77.421875 11.390625 C 75.128906 11.640625 72.863281 11.488281 70.625 10.9375 C 65.375 9.613281 61.707031 6.597656 59.625 1.890625 C 57.539062 -2.816406 57.847656 -7.523438 60.546875 -12.234375 C 61.128906 -13.296875 61.84375 -14.429688 62.6875 -15.640625 C 63.53125 -16.859375 64.285156 -17.832031 64.953125 -18.5625 C 65.617188 -19.289062 66.519531 -20.316406 67.65625 -21.640625 C 68.789062 -22.960938 69.597656 -23.914062 70.078125 -24.5 C 71.492188 -25.894531 73.050781 -27.765625 74.75 -30.109375 C 76.445312 -32.453125 77.5 -34.660156 77.90625 -36.734375 C 78.1875 -38.460938 77.976562 -39.894531 77.28125 -41.03125 C 76.582031 -42.164062 75.570312 -42.953125 74.25 -43.390625 C 72.925781 -43.835938 71.378906 -43.929688 69.609375 -43.671875 C 65.753906 -43.421875 62.421875 -42.265625 59.609375 -40.203125 C 58.054688 -37.941406 57.003906 -36.472656 56.453125 -35.796875 C 55.585938 -34.535156 54.5 -32.921875 53.1875 -30.953125 C 51.875 -28.992188 50.75 -27.304688 49.8125 -25.890625 C 48.875 -24.484375 47.753906 -22.894531 46.453125 -21.125 C 45.160156 -19.351562 43.925781 -17.828125 42.75 -16.546875 C 41.289062 -14.921875 39.554688 -14.210938 37.546875 -14.421875 C 35.546875 -14.640625 33.992188 -15.582031 32.890625 -17.25 C 31.796875 -18.925781 31.6875 -20.75 32.5625 -22.71875 C 34.570312 -27.269531 39.054688 -34.171875 46.015625 -43.421875 C 52.347656 -51.910156 57.816406 -57.878906 62.421875 -61.328125 C 64.140625 -62.734375 65.972656 -62.644531 67.921875 -61.0625 C 69.867188 -59.476562 70.367188 -57.675781 69.421875 -55.65625 C 68.765625 -54.488281 68.015625 -53.117188 67.171875 -51.546875 C 70.773438 -52.003906 74.050781 -51.804688 77 -50.953125 C 82.050781 -49.378906 85.394531 -46.3125 87.03125 -41.75 C 88.675781 -37.195312 88.597656 -32.421875 86.796875 -27.421875 C 85.410156 -23.617188 82.441406 -18.914062 77.890625 -13.3125 C 77.753906 -13.144531 77.160156 -12.503906 76.109375 -11.390625 C 75.066406 -10.285156 74.21875 -9.328125 73.5625 -8.515625 C 72.90625 -7.710938 72.34375 -6.757812 71.875 -5.65625 C 71.40625 -4.5625 71.285156 -3.644531 71.515625 -2.90625 C 72.179688 -0.25 75.476562 0.804688 81.40625 0.265625 C 82.332031 0.171875 83.269531 0.0546875 84.21875 -0.078125 C 85.164062 -0.210938 86.09375 -0.40625 87 -0.65625 C 87.90625 -0.90625 88.796875 -1.132812 89.671875 -1.34375 C 90.546875 -1.550781 91.515625 -1.785156 92.578125 -2.046875 C 93.640625 -2.304688 94.539062 -2.554688 95.28125 -2.796875 Z M 95.28125 -2.796875 "/></g></g></g><g fill="#635472" fill-opacity="1"><g transform="translate(504.992837, 427.912172)"><g/></g></g><g fill="#635472" fill-opacity="1"><g transform="translate(528.416108, 447.253368)"><g><path d="M 111.953125 65.28125 C 112.773438 66.4375 113.023438 67.628906 112.703125 68.859375 C 112.378906 70.097656 111.75 71.050781 110.8125 71.71875 C 109.882812 72.382812 108.757812 72.6875 107.4375 72.625 C 106.113281 72.570312 104.992188 72 104.078125 70.90625 C 96.023438 60.957031 90.742188 54.601562 88.234375 51.84375 C 78.179688 59.570312 67.144531 63.84375 55.125 64.65625 C 44.8125 65.457031 36.085938 63.78125 28.953125 59.625 C 25.773438 57.601562 23.015625 55.144531 20.671875 52.25 C 18.335938 49.363281 16.796875 46.039062 16.046875 42.28125 C 15.304688 38.519531 15.800781 34.9375 17.53125 31.53125 C 21.625 23.375 30.644531 19.472656 44.59375 19.828125 C 54.1875 20.085938 63.1875 22.441406 71.59375 26.890625 C 75.757812 29.148438 79.816406 31.816406 83.765625 34.890625 C 86.066406 32.847656 88.1875 30.460938 90.125 27.734375 C 93.4375 22.816406 94.914062 17.296875 94.5625 11.171875 C 94.21875 5.046875 91.859375 0.0546875 87.484375 -3.796875 C 86.429688 -4.515625 85.238281 -5.335938 83.90625 -6.265625 C 83.84375 -6.359375 83.78125 -6.453125 83.71875 -6.546875 C 83.5625 -6.566406 83.453125 -6.625 83.390625 -6.71875 C 82.585938 -7.070312 82.015625 -7.59375 81.671875 -8.28125 C 80.046875 -9.800781 79.722656 -11.519531 80.703125 -13.4375 C 81.679688 -15.351562 83.203125 -16.171875 85.265625 -15.890625 C 85.960938 -15.867188 87.144531 -15.8125 88.8125 -15.71875 C 90.476562 -15.632812 91.769531 -15.519531 92.6875 -15.375 C 95.28125 -14.9375 97.457031 -14.613281 99.21875 -14.40625 C 102.4375 -14.039062 106.71875 -14.15625 112.0625 -14.75 C 114.445312 -14.976562 116.300781 -15.296875 117.625 -15.703125 C 118.707031 -16.066406 119.707031 -16.441406 120.625 -16.828125 C 121.5625 -17.234375 122.117188 -17.5 122.296875 -17.625 C 125.316406 -19.394531 127.335938 -21.445312 128.359375 -23.78125 C 128.359375 -23.78125 128.445312 -23.984375 128.625 -24.390625 C 128.8125 -24.796875 128.945312 -25.125 129.03125 -25.375 C 129.113281 -25.632812 129.15625 -25.765625 129.15625 -25.765625 C 129.25 -25.828125 129.300781 -26.03125 129.3125 -26.375 C 129.332031 -26.726562 129.351562 -26.976562 129.375 -27.125 C 129.40625 -27.269531 129.421875 -27.34375 129.421875 -27.34375 C 129.554688 -28.65625 129.351562 -30.066406 128.8125 -31.578125 C 127.78125 -34.703125 125.625 -37.253906 122.34375 -39.234375 C 117.15625 -42.347656 111.773438 -43.859375 106.203125 -43.765625 C 105.234375 -43.066406 103.414062 -41.765625 100.75 -39.859375 C 98.082031 -37.953125 96 -36.460938 94.5 -35.390625 C 92.175781 -33.734375 87.976562 -30.863281 81.90625 -26.78125 C 75.832031 -22.707031 71.179688 -19.453125 67.953125 -17.015625 C 66.441406 -15.929688 62.570312 -13.125 56.34375 -8.59375 C 50.125 -4.070312 45.3125 -0.53125 41.90625 2.03125 C 41.800781 2.238281 33.265625 9.148438 16.296875 22.765625 C 14.929688 23.878906 13.390625 24.078125 11.671875 23.359375 C 9.953125 22.640625 8.785156 21.425781 8.171875 19.71875 C 7.554688 18.007812 7.910156 16.488281 9.234375 15.15625 C 15.992188 8.289062 24.039062 0.78125 33.375 -7.375 C 48.238281 -20.5625 56.539062 -27.910156 58.28125 -29.421875 C 60 -30.773438 62.644531 -32.9375 66.21875 -35.90625 C 69.800781 -38.875 72.992188 -41.492188 75.796875 -43.765625 C 78.597656 -46.035156 81.335938 -48.128906 84.015625 -50.046875 C 86.410156 -51.753906 90.953125 -54.867188 97.640625 -59.390625 C 104.398438 -63.835938 109.695312 -66.28125 113.53125 -66.71875 C 115.9375 -67.101562 118.003906 -66.132812 119.734375 -63.8125 C 121.460938 -61.5 121.710938 -59.226562 120.484375 -57 C 119.628906 -55.582031 118.570312 -54.160156 117.3125 -52.734375 C 120.289062 -52.304688 123.140625 -51.519531 125.859375 -50.375 C 135.210938 -46.46875 141.441406 -40.660156 144.546875 -32.953125 C 146.617188 -27.992188 146.90625 -22.992188 145.40625 -17.953125 C 143.90625 -12.921875 141.082031 -8.523438 136.9375 -4.765625 C 133.164062 -1.390625 128.71875 0.984375 123.59375 2.359375 C 118.476562 3.742188 113.304688 4.15625 108.078125 3.59375 C 106.710938 3.382812 105.28125 3.066406 103.78125 2.640625 C 104.738281 4.921875 105.453125 7.238281 105.921875 9.59375 C 108.160156 19.664062 106.210938 29.515625 100.078125 39.140625 C 98.722656 41.179688 97.179688 43.148438 95.453125 45.046875 C 101.273438 50.941406 106.773438 57.6875 111.953125 65.28125 Z M 50.390625 46.515625 Z M 68.828125 43.578125 C 71.335938 42.578125 73.578125 41.578125 75.546875 40.578125 C 72.878906 38.722656 70.207031 37.148438 67.53125 35.859375 C 60.789062 32.617188 54.039062 30.875 47.28125 30.625 C 36.289062 30.28125 30.601562 32.265625 30.21875 36.578125 C 30.144531 37.441406 30.578125 38.332031 31.515625 39.25 C 32.304688 40.175781 33.582031 41.210938 35.34375 42.359375 C 36.207031 42.816406 37.253906 43.335938 38.484375 43.921875 C 39.160156 44.117188 39.972656 44.421875 40.921875 44.828125 C 40.921875 44.828125 41.035156 44.84375 41.265625 44.875 C 41.492188 44.90625 41.738281 44.960938 42 45.046875 C 42.257812 45.128906 42.390625 45.171875 42.390625 45.171875 C 44.046875 45.609375 45.601562 45.90625 47.0625 46.0625 C 47.207031 46.09375 47.394531 46.125 47.625 46.15625 C 47.851562 46.1875 48.078125 46.21875 48.296875 46.25 C 48.523438 46.289062 48.753906 46.332031 48.984375 46.375 C 49.222656 46.414062 49.414062 46.453125 49.5625 46.484375 C 49.65625 46.421875 49.8125 46.445312 50.03125 46.5625 C 53 46.582031 56.203125 46.367188 59.640625 45.921875 C 60.753906 45.796875 61.804688 45.578125 62.796875 45.265625 C 62.859375 45.359375 63.015625 45.347656 63.265625 45.234375 C 63.523438 45.117188 63.65625 45.0625 63.65625 45.0625 C 65.457031 44.582031 67.179688 44.085938 68.828125 43.578125 Z M 68.828125 43.578125 "/></g></g></g><g fill="#635472" fill-opacity="1"><g transform="translate(580.294179, 520.496037)"><g><path d="M 94.875 46.484375 C 96.769531 46.929688 97.453125 48.148438 96.921875 50.140625 C 96.390625 52.128906 95.242188 53.039062 93.484375 52.875 C 92.847656 52.800781 91.898438 52.695312 90.640625 52.5625 C 88.773438 52.445312 87.304688 52.332031 86.234375 52.21875 C 85.171875 52.113281 83.582031 51.914062 81.46875 51.625 C 79.351562 51.332031 77.628906 51.035156 76.296875 50.734375 C 74.972656 50.441406 73.363281 50.003906 71.46875 49.421875 C 69.582031 48.847656 68.078125 48.25 66.953125 47.625 C 65.828125 47 64.644531 46.191406 63.40625 45.203125 C 62.175781 44.210938 61.265625 43.128906 60.671875 41.953125 C 60.078125 40.773438 59.695312 39.414062 59.53125 37.875 C 59.363281 36.332031 59.507812 34.613281 59.96875 32.71875 C 61.082031 28.613281 63.976562 24.710938 68.65625 21.015625 C 54.90625 20.335938 46.140625 16.125 42.359375 8.375 C 41.347656 6.425781 40.742188 4.445312 40.546875 2.4375 C 40.347656 0.4375 40.546875 -1.414062 41.140625 -3.125 C 41.742188 -4.84375 42.546875 -6.503906 43.546875 -8.109375 C 44.554688 -9.710938 45.828125 -11.191406 47.359375 -12.546875 C 48.898438 -13.910156 50.472656 -15.140625 52.078125 -16.234375 C 53.679688 -17.328125 55.351562 -18.332031 57.09375 -19.25 C 62.570312 -21.988281 68.15625 -23.816406 73.84375 -24.734375 C 82.039062 -25.960938 87.710938 -26.035156 90.859375 -24.953125 C 92.203125 -24.378906 92.984375 -23.390625 93.203125 -21.984375 C 93.421875 -20.578125 92.976562 -19.378906 91.875 -18.390625 C 90.957031 -17.492188 89.816406 -16.707031 88.453125 -16.03125 C 87.085938 -15.351562 85.5 -14.6875 83.6875 -14.03125 C 81.882812 -13.382812 80.535156 -12.859375 79.640625 -12.453125 C 79.335938 -12.316406 77.347656 -11.410156 73.671875 -9.734375 C 70.003906 -8.054688 68.046875 -7.097656 67.796875 -6.859375 C 63.171875 -4.378906 60.019531 -2.21875 58.34375 -0.375 C 57.78125 0.25 57.46875 0.75 57.40625 1.125 C 57.40625 1.125 57.566406 1.347656 57.890625 1.796875 C 57.929688 1.898438 57.972656 2 58.015625 2.09375 C 61.210938 5.925781 67.644531 8.035156 77.3125 8.421875 C 82.957031 8.710938 90.769531 8.078125 100.75 6.515625 C 102.90625 6.253906 104.5625 6.9375 105.71875 8.5625 C 106.882812 10.1875 107.191406 11.96875 106.640625 13.90625 C 106.085938 15.851562 104.679688 16.976562 102.421875 17.28125 C 97.453125 18.238281 93.8125 18.945312 91.5 19.40625 C 88.34375 20.113281 85.523438 21.15625 83.046875 22.53125 C 75.722656 26.488281 71.316406 30.242188 69.828125 33.796875 C 69.390625 34.953125 69.320312 36 69.625 36.9375 C 69.9375 37.882812 70.773438 38.734375 72.140625 39.484375 C 73.515625 40.242188 74.488281 40.734375 75.0625 40.953125 C 75.632812 41.171875 76.769531 41.550781 78.46875 42.09375 C 80.5 42.851562 85.96875 44.316406 94.875 46.484375 Z M 94.875 46.484375 "/></g></g></g><g fill="#635472" fill-opacity="1"><g transform="translate(606.047978, 577.922441)"><g><path d="M 38.6875 43.671875 C 37.550781 46.992188 35.53125 49.222656 32.625 50.359375 C 29.726562 51.492188 26.738281 51.625 23.65625 50.75 C 20.582031 49.882812 17.625 48.378906 14.78125 46.234375 C 11.9375 44.085938 9.953125 41.765625 8.828125 39.265625 C 6.316406 33.410156 6.488281 27.632812 9.34375 21.9375 C 12.195312 16.25 16.4375 11.441406 22.0625 7.515625 C 30.570312 1.410156 43.582031 -4.375 61.09375 -9.84375 C 76.300781 -14.59375 91.601562 -18.507812 107 -21.59375 C 105.46875 -26.832031 104.410156 -30.390625 103.828125 -32.265625 C 103.503906 -33.648438 103.800781 -34.800781 104.71875 -35.71875 C 105.632812 -36.632812 106.753906 -36.984375 108.078125 -36.765625 C 109.398438 -36.546875 110.273438 -35.757812 110.703125 -34.40625 C 112.148438 -30.53125 113.507812 -26.726562 114.78125 -23 C 125.050781 -24.945312 135.320312 -26.5 145.59375 -27.65625 C 147.800781 -27.882812 149.46875 -27.113281 150.59375 -25.34375 C 151.71875 -23.582031 152.019531 -21.703125 151.5 -19.703125 C 150.976562 -17.710938 149.660156 -16.445312 147.546875 -15.90625 C 143.515625 -14.875 134.226562 -12.375 119.6875 -8.40625 C 121.65625 -2.5 122.828125 2.164062 123.203125 5.59375 C 123.347656 7.15625 122.5625 8.203125 120.84375 8.734375 C 119.132812 9.273438 117.890625 8.863281 117.109375 7.5 C 115.066406 4.257812 113.1875 -0.296875 111.46875 -6.171875 C 107.863281 -5.273438 105.363281 -4.671875 103.96875 -4.359375 C 87.164062 0.0859375 73.25 4.035156 62.21875 7.484375 C 54.320312 10.066406 47.734375 12.582031 42.453125 15.03125 C 35.265625 18.4375 30.09375 21.484375 26.9375 24.171875 C 25.15625 25.753906 23.738281 27.625 22.6875 29.78125 C 21.644531 31.9375 21.710938 33.972656 22.890625 35.890625 C 23.390625 36.765625 24.472656 37.6875 26.140625 38.65625 C 27.816406 39.625 28.972656 39.660156 29.609375 38.765625 C 30.609375 37.546875 31.984375 37.003906 33.734375 37.140625 C 35.484375 37.285156 36.84375 37.976562 37.8125 39.21875 C 38.78125 40.46875 39.070312 41.953125 38.6875 43.671875 Z M 38.6875 43.671875 "/></g></g></g><g fill="#635472" fill-opacity="1"><g transform="translate(617.103917, 612.477948)"><g><path d="M 34.4375 47.109375 C 32.988281 50.304688 30.765625 52.332031 27.765625 53.1875 C 24.773438 54.050781 21.785156 53.90625 18.796875 52.75 C 15.816406 51.59375 13.015625 49.8125 10.390625 47.40625 C 7.765625 45.007812 6.007812 42.515625 5.125 39.921875 C 3.164062 33.847656 3.867188 28.113281 7.234375 22.71875 C 10.609375 17.320312 15.289062 12.929688 21.28125 9.546875 C 30.3125 4.273438 43.800781 -0.257812 61.75 -4.0625 C 77.332031 -7.375 92.929688 -9.847656 108.546875 -11.484375 C 107.515625 -16.835938 106.796875 -20.476562 106.390625 -22.40625 C 106.203125 -23.8125 106.601562 -24.929688 107.59375 -25.765625 C 108.59375 -26.597656 109.742188 -26.835938 111.046875 -26.484375 C 112.347656 -26.140625 113.144531 -25.273438 113.4375 -23.890625 C 114.519531 -19.890625 115.519531 -15.972656 116.4375 -12.140625 C 126.832031 -13.128906 137.203125 -13.71875 147.546875 -13.90625 C 149.765625 -13.925781 151.347656 -13.003906 152.296875 -11.140625 C 153.253906 -9.273438 153.378906 -7.375 152.671875 -5.4375 C 151.972656 -3.5 150.546875 -2.359375 148.390625 -2.015625 C 144.273438 -1.367188 134.789062 0.25 119.9375 2.84375 C 121.34375 8.894531 122.078125 13.648438 122.140625 17.109375 C 122.128906 18.671875 121.242188 19.640625 119.484375 20.015625 C 117.734375 20.390625 116.535156 19.859375 115.890625 18.421875 C 114.160156 15.003906 112.710938 10.296875 111.546875 4.296875 C 107.878906 4.847656 105.335938 5.21875 103.921875 5.40625 C 86.773438 8.257812 72.546875 10.882812 61.234375 13.28125 C 53.140625 15.101562 46.347656 16.992188 40.859375 18.953125 C 33.390625 21.648438 27.953125 24.195312 24.546875 26.59375 C 22.628906 28.007812 21.046875 29.738281 19.796875 31.78125 C 18.554688 33.820312 18.429688 35.859375 19.421875 37.890625 C 19.835938 38.804688 20.832031 39.820312 22.40625 40.9375 C 23.988281 42.0625 25.140625 42.207031 25.859375 41.375 C 26.953125 40.25 28.363281 39.835938 30.09375 40.140625 C 31.832031 40.441406 33.125 41.253906 33.96875 42.578125 C 34.8125 43.910156 34.96875 45.421875 34.4375 47.109375 Z M 34.4375 47.109375 "/></g></g></g><g fill="#635472" fill-opacity="1"><g transform="translate(625.011332, 647.414698)"><g><path d="M 69.4375 51.6875 C 70.957031 52.613281 71.296875 54 70.453125 55.84375 C 69.609375 57.695312 68.335938 58.382812 66.640625 57.90625 C 60.628906 56.132812 55.328125 53.023438 50.734375 48.578125 C 46.148438 44.128906 42.988281 38.972656 41.25 33.109375 C 39.625 27.035156 39.253906 22.03125 40.140625 18.09375 C 41.785156 11.988281 45.222656 7.175781 50.453125 3.65625 C 54.148438 1.289062 58.257812 -0.328125 62.78125 -1.203125 C 67.300781 -2.078125 71.867188 -1.96875 76.484375 -0.875 C 81.109375 0.21875 84.859375 2.429688 87.734375 5.765625 C 92.109375 10.773438 93.878906 16.070312 93.046875 21.65625 C 92.140625 27.457031 88.265625 30.675781 81.421875 31.3125 C 75.992188 31.894531 71.128906 30.847656 66.828125 28.171875 C 62.535156 25.492188 59.628906 21.660156 58.109375 16.671875 C 55.765625 18.347656 54.429688 20.492188 54.109375 23.109375 C 53.785156 25.722656 53.972656 28.800781 54.671875 32.34375 C 55.535156 36.3125 56.847656 39.304688 58.609375 41.328125 C 63.234375 46.535156 66.84375 49.988281 69.4375 51.6875 Z M 82.140625 19.703125 C 80.617188 16.671875 78.078125 14.6875 74.515625 13.75 C 70.953125 12.820312 67.359375 12.875 63.734375 13.90625 C 65.765625 18.414062 68.835938 21.492188 72.953125 23.140625 C 75.597656 24.285156 78.160156 24.5625 80.640625 23.96875 C 82.035156 23.707031 82.832031 23.238281 83.03125 22.5625 C 83.238281 21.882812 82.941406 20.929688 82.140625 19.703125 Z M 82.140625 19.703125 "/></g></g></g><g fill="#635472" fill-opacity="1"><g transform="translate(629.922766, 690.001957)"><g><path d="M 90.734375 33.921875 C 91.273438 38.410156 89.976562 42.203125 86.84375 45.296875 C 83.71875 48.390625 79.921875 49.769531 75.453125 49.4375 C 70.222656 48.96875 66.578125 46.929688 64.515625 43.328125 C 62.992188 40.921875 62.644531 38.4375 63.46875 35.875 C 64.300781 33.3125 66.03125 31.65625 68.65625 30.90625 C 70.945312 30.257812 72.578125 30.945312 73.546875 32.96875 C 74.523438 34.988281 74.25 36.757812 72.71875 38.28125 C 73.039062 38.9375 73.3125 39.320312 73.53125 39.4375 C 74.070312 40.09375 74.945312 40.535156 76.15625 40.765625 C 78.320312 41.203125 80.015625 40.601562 81.234375 38.96875 C 82.109375 37.007812 82.222656 35.097656 81.578125 33.234375 C 80.929688 31.378906 79.898438 29.6875 78.484375 28.15625 C 75.984375 25.519531 71.953125 23.863281 66.390625 23.1875 C 65.734375 23.1875 65.296875 23.1875 65.078125 23.1875 C 61.585938 23.5 56.785156 23.695312 50.671875 23.78125 C 48.597656 23.988281 46.085938 24.003906 43.140625 23.828125 C 40.191406 23.660156 37.789062 23.132812 35.9375 22.25 C 34.300781 21.257812 33.539062 19.890625 33.65625 18.140625 C 33.769531 16.398438 34.59375 15.039062 36.125 14.0625 C 36.125 13.945312 36.070312 13.890625 35.96875 13.890625 C 36.84375 13.359375 37.9375 12.90625 39.25 12.53125 C 40.5625 12.15625 41.570312 11.910156 42.28125 11.796875 C 42.988281 11.691406 44.296875 11.585938 46.203125 11.484375 C 48.117188 11.390625 49.1875 11.34375 49.40625 11.34375 C 51.15625 11.226562 53.640625 11.015625 56.859375 10.703125 C 60.078125 10.390625 62.015625 10.234375 62.671875 10.234375 C 70.867188 9.503906 79.441406 8.503906 88.390625 7.234375 C 90.359375 7.023438 91.882812 7.710938 92.96875 9.296875 C 94.050781 10.878906 93.828125 12.4375 92.296875 13.96875 C 89.785156 16.46875 86.445312 18.472656 82.28125 19.984375 C 87.175781 23.710938 89.992188 28.359375 90.734375 33.921875 Z M 72.71875 38.453125 C 72.5 38.671875 72.28125 38.832031 72.0625 38.9375 C 72.28125 38.71875 72.5 38.554688 72.71875 38.453125 Z M 72.71875 38.453125 "/></g></g></g></g></g></g></g></svg>